<svg width="181" height="41" viewBox="0 0 181 41" fill="none" xmlns="http://www.w3.org/2000/svg">
<g opacity="0.43">
<path d="M16.5859 38.2417C16.593 38.2435 16.6003 38.2449 16.6068 38.2458C16.603 38.2452 16.5962 38.2435 16.5859 38.2417Z" fill="white"/>
<path d="M17.9805 7.08045C18.3761 7.08045 18.6968 6.76015 18.6968 6.36505C18.6968 5.96995 18.3761 5.64966 17.9805 5.64966C17.5849 5.64966 17.2642 5.96995 17.2642 6.36505C17.2642 6.76015 17.5849 7.08045 17.9805 7.08045Z" fill="white"/>
<path d="M18.1709 5.02673C18.5665 5.02673 18.8872 4.70644 18.8872 4.31134C18.8872 3.91624 18.5665 3.59595 18.1709 3.59595C17.7753 3.59595 17.4546 3.91624 17.4546 4.31134C17.4546 4.70644 17.7753 5.02673 18.1709 5.02673Z" fill="white"/>
<path d="M21.7877 13.0952C20.488 13.6662 19.2054 13.6662 17.9563 13.0952C17.9563 15.0935 21.7877 15.0935 21.7877 13.0952Z" fill="white"/>
<path d="M15.3244 13.0952C14.0752 13.6662 12.7926 13.6662 11.4929 13.0952C11.4929 15.0935 15.3244 15.0935 15.3244 13.0952Z" fill="white"/>
<path d="M16.6569 39.3587C18.7224 39.3587 18.4277 39.8246 21.9816 40.5788C31.8435 42.442 35.3831 32.1282 31.9707 28.0574C31.2263 27.1696 30.4648 26.6329 29.7214 26.3597C29.6602 25.8755 29.1028 21.7727 27.5504 19.7938C25.5352 17.7772 23.7627 17.2534 23.6475 17.2209C23.9585 16.5988 24.2452 16.0676 24.3998 15.7407C25.719 15.7687 28.2133 12.3441 25.0804 9.82485C25.0804 2.0817 18.7224 0.24212 16.5903 0.23584C14.5248 0.24212 8.12737 2.08142 8.12737 9.82456C4.99453 12.3439 7.51052 15.7678 8.82997 15.7398C8.98461 16.0664 9.27389 16.5971 9.58517 17.2191C9.46998 17.2517 7.69861 17.7738 5.6837 19.7907C4.13129 21.7696 3.57475 25.8695 3.51358 26.3537C2.7701 26.6269 2.00891 27.1576 1.26486 28.0454C-2.14782 32.1162 1.39834 42.4418 11.2599 40.5785C14.8132 39.8245 14.5025 39.3587 16.5903 39.3587H16.6569ZM25.9874 20.6785C26.9181 21.9406 27.4738 23.9897 27.6862 26.1887C27.5492 26.2144 27.4166 26.2469 27.2843 26.2855C26.8041 25.8821 25.8108 25.1093 25.0107 24.8958C25.5355 23.9574 25.697 23.3625 25.697 23.3625C25.4191 23.8835 25.1127 24.3788 24.7834 24.8504C24.78 24.8498 24.7766 24.8492 24.7731 24.849C23.6626 24.7159 21.7486 25.672 21.2421 27.0451C21.0692 27.5141 21.0846 28.0383 21.2133 28.5675C17.3661 31.5875 12.959 32.8493 12.004 33.098C11.3974 32.5559 10.9901 32.0075 10.6454 31.4348C21.6269 28.6652 24.2472 21.5897 24.7491 19.7618C25.1556 20.0008 25.5809 20.3017 25.9874 20.6785ZM26.1292 26.7945C25.3454 27.2586 24.7177 27.8835 24.341 28.4088C23.8956 29.03 23.5446 29.384 23.1527 29.9592C22.7399 29.4525 22.0519 28.4924 22.3086 27.5547C22.559 26.6397 23.763 25.8618 24.5296 25.8909C25.1773 25.9161 25.7807 26.4328 26.1292 26.7945ZM9.94933 30.159C9.65892 29.6092 9.33963 29.0303 8.89429 28.4091C8.51755 27.8838 7.88984 27.2589 7.10605 26.7947C7.4545 26.433 8.05791 25.9161 8.70535 25.8915C9.47226 25.8621 10.6759 26.6403 10.9263 27.5552C11.183 28.4927 10.3618 29.6523 9.94933 30.159ZM9.201 14.4001C7.98674 13.9582 7.35445 12.1183 8.92002 10.832C9.41795 11.1583 9.84472 11.7538 9.84472 11.7538C8.94517 7.01238 11.5924 2.10083 16.6175 2.09683C21.6423 2.10083 24.2898 7.01209 23.3902 11.7538C23.3902 11.7538 23.817 11.1583 24.3149 10.832C25.8805 12.1183 25.2482 13.9582 24.034 14.4001C23.7084 14.1229 23.5317 13.9551 23.2725 13.6116C22.912 16.4644 20.9297 20.7139 16.6175 20.7179C12.3053 20.7139 10.3229 16.4644 9.96248 13.6116C9.70351 13.9551 9.52657 14.1229 9.201 14.4001ZM7.23926 20.6785C8.66276 19.3588 10.3015 18.9677 10.567 18.9117C11.7584 20.6343 13.6584 22.3428 16.5903 22.3474C19.5888 22.3425 21.4494 20.6343 22.6408 18.9117C22.7825 18.9417 23.3225 19.0676 24.0119 19.3799C21.484 26.6686 14.1561 29.0214 11.6072 29.6552C12.0137 28.7451 12.2575 27.7631 11.9925 27.0451C11.7284 26.3294 11.0818 25.7276 10.3661 25.3337C10.3564 24.9337 10.3612 23.7359 10.7263 22.8969C9.96677 23.7311 9.59775 24.4993 9.45082 24.9546C9.09238 24.8538 8.74937 24.8144 8.46066 24.849C7.63029 24.9486 6.47749 25.8413 5.94839 26.2857C5.81605 26.2472 5.68141 26.2147 5.5445 26.189C5.75716 23.9894 6.30855 21.9406 7.23926 20.6785ZM23.9116 38.7986C20.1491 38.7986 19.2555 37.3603 16.6569 37.3603H16.5903C13.9583 37.3603 13.0922 38.7986 9.32934 38.7986C2.71294 38.762 0.00285931 31.7383 3.26347 28.7585C4.92936 27.4276 7.02831 28.2178 8.2943 30.1807C9.5603 32.1439 11.4594 35.3449 15.5241 35.1565C14.4634 34.714 13.641 34.2798 12.9858 33.8488C16.8021 32.4705 19.5016 30.7777 21.4002 29.1582C21.6552 29.8187 22.0456 30.4576 22.4249 30.9772C21.6769 32.0583 20.8105 32.5461 18.5006 33.6329C21.6989 33.3669 22.854 32.3018 24.7423 30.1724C26.2924 28.4242 28.3087 27.4276 29.9746 28.7585C33.2352 31.7383 30.528 38.762 23.9116 38.7986Z" fill="white"/>
<path d="M15.0642 5.02673C15.4598 5.02673 15.7805 4.70644 15.7805 4.31134C15.7805 3.91624 15.4598 3.59595 15.0642 3.59595C14.6686 3.59595 14.3479 3.91624 14.3479 4.31134C14.3479 4.70644 14.6686 5.02673 15.0642 5.02673Z" fill="white"/>
<path d="M15.4509 9.20105C15.8466 9.20105 16.1673 8.88076 16.1673 8.48566C16.1673 8.09056 15.8466 7.77026 15.4509 7.77026C15.0553 7.77026 14.7346 8.09056 14.7346 8.48566C14.7346 8.88076 15.0553 9.20105 15.4509 9.20105Z" fill="white"/>
<path d="M17.7837 9.20105C18.1793 9.20105 18.5 8.88076 18.5 8.48566C18.5 8.09056 18.1793 7.77026 17.7837 7.77026C17.3881 7.77026 17.0674 8.09056 17.0674 8.48566C17.0674 8.88076 17.3881 9.20105 17.7837 9.20105Z" fill="white"/>
<path d="M15.2547 7.08045C15.6503 7.08045 15.971 6.76015 15.971 6.36505C15.971 5.96995 15.6503 5.64966 15.2547 5.64966C14.859 5.64966 14.5383 5.96995 14.5383 6.36505C14.5383 6.76015 14.859 7.08045 15.2547 7.08045Z" fill="white"/>
<path d="M50.318 17.3527V31.6515H46.2122V17.3527H42.3464V13.8911H54.184V17.3527H50.318Z" fill="white"/>
<path d="M70.5915 16.0746C72.2711 17.6989 73.3642 20.0421 73.3642 22.7846C73.3642 25.1546 72.511 27.5777 70.5915 29.4416C68.9385 31.0391 66.6986 32.0511 63.7127 32.0511C60.3801 32.0511 58.1139 30.7196 56.7807 29.4416C55.0742 27.8441 54.0081 25.4475 54.0081 22.838C54.0081 20.2816 55.1543 17.6989 56.7541 16.1014C57.9541 14.9033 60.1668 13.4919 63.713 13.4919C66.4857 13.4917 68.805 14.3438 70.5915 16.0746ZM59.7935 18.7906C59.0203 19.5362 58.2205 20.8409 58.2205 22.8112C58.2205 24.4355 58.7539 25.7401 59.847 26.8052C60.9932 27.8969 62.2729 28.27 63.6595 28.27C65.4726 28.27 66.7524 27.6043 67.6053 26.7521C68.2985 26.0864 69.1517 24.8349 69.1517 22.7846C69.1517 20.9476 68.4051 19.5893 67.6053 18.7906C66.7255 17.9387 65.3126 17.2727 63.6861 17.2727C62.1397 17.2727 60.7534 17.832 59.7935 18.7906Z" fill="white"/>
<path d="M81.6771 13.8911C83.2235 13.8911 84.9299 14.1041 86.3429 15.3559C87.8627 16.687 88.0757 18.4447 88.0757 19.6694C88.0757 21.9057 87.2227 23.1575 86.5561 23.8498C85.1429 25.2874 83.2766 25.4208 82.0235 25.4208H79.5172V31.6515H75.4114V13.8911H81.6771ZM79.5178 22.0659H80.9842C81.5441 22.0659 82.5306 22.0393 83.1972 21.4002C83.5705 21.0273 83.8638 20.415 83.8638 19.6428C83.8638 18.8972 83.5973 18.2848 83.1972 17.912C82.584 17.3262 81.7042 17.2463 80.9044 17.2463H79.5181V22.0659H79.5178Z" fill="white"/>
<path d="M88.0833 31.6515L90.936 13.8911H94.3486L98.7743 24.5152L103.2 13.8911H106.613L109.466 31.6515H105.36L103.947 21.0539L99.4944 31.6515H98.0549L93.6023 21.0539L92.1891 31.6515H88.0833Z" fill="white"/>
<path d="M126.899 16.0746C128.579 17.6989 129.672 20.0421 129.672 22.7846C129.672 25.1546 128.819 27.5777 126.899 29.4416C125.246 31.0391 123.006 32.0511 120.02 32.0511C116.688 32.0511 114.422 30.7196 113.088 29.4416C111.382 27.8441 110.316 25.4475 110.316 22.838C110.316 20.2816 111.462 17.6989 113.062 16.1014C114.262 14.9033 116.474 13.4919 120.021 13.4919C122.793 13.4917 125.113 14.3438 126.899 16.0746ZM116.101 18.7906C115.328 19.5362 114.528 20.8409 114.528 22.8112C114.528 24.4355 115.062 25.7401 116.155 26.8052C117.301 27.8969 118.581 28.27 119.967 28.27C121.78 28.27 123.06 27.6043 123.913 26.7521C124.606 26.0864 125.459 24.8349 125.459 22.7846C125.459 20.9476 124.713 19.5893 123.913 18.7906C123.033 17.9387 121.62 17.2727 119.994 17.2727C118.447 17.2727 117.061 17.832 116.101 18.7906Z" fill="white"/>
<path d="M131.719 31.6515V13.8911H135.291L144.943 25.3408V13.8911H149.049V31.6515H145.476L135.825 20.1487V31.6515H131.719Z" fill="white"/>
<path d="M156.159 21.2934L162.238 13.8912H167.25L160.052 22.3052L167.81 31.6512H162.531L156.159 23.7696V31.6512H152.053V13.8909H156.159V21.2934H156.159Z" fill="white"/>
<path d="M177.757 18.2314C176.424 17.0333 175.278 16.9534 174.771 16.9534C174.212 16.9534 173.518 17.0333 173.038 17.5657C172.772 17.8318 172.585 18.2314 172.585 18.6839C172.585 19.1101 172.719 19.4296 172.985 19.6694C173.412 20.0687 174.025 20.2283 175.225 20.6811L176.558 21.1869C177.331 21.4798 178.291 21.8792 178.984 22.5449C180.024 23.5301 180.29 24.8081 180.29 25.8467C180.29 27.684 179.65 29.2818 178.717 30.2401C177.144 31.891 174.851 32.0509 173.678 32.0509C172.398 32.0509 171.278 31.8644 170.159 31.3052C169.252 30.8527 168.212 30.0271 167.546 29.3614L169.679 26.4325C170.132 26.8852 170.852 27.4976 171.332 27.7905C172.025 28.2164 172.745 28.4294 173.571 28.4294C174.105 28.4294 174.851 28.3229 175.438 27.817C175.784 27.5241 176.078 27.0448 176.078 26.3794C176.078 25.7933 175.838 25.4208 175.465 25.101C174.985 24.7017 173.892 24.3023 173.385 24.1159L171.919 23.61C171.092 23.3171 170.132 22.9443 169.439 22.1986C168.506 21.2135 168.373 19.9623 168.373 19.1098C168.373 17.5389 168.853 16.2074 169.919 15.1158C171.172 13.8377 172.665 13.4915 174.318 13.4915C175.545 13.4915 177.518 13.7044 179.597 15.2488L177.757 18.2314Z" fill="white"/>
</g>
</svg>
