<svg width="77" height="58" viewBox="0 0 77 58" fill="none" xmlns="http://www.w3.org/2000/svg">
<g opacity="0.43">
<path fill-rule="evenodd" clip-rule="evenodd" d="M74.5694 46.8394H68.323V57.4397H74.5694V55.5385H70.461V52.7391H74.2691V51.1894H70.461V48.7397H74.5694V46.8394Z" fill="white"/>
<path fill-rule="evenodd" clip-rule="evenodd" d="M31.7984 53.3823H29.1804L30.4894 50.6008L31.7984 53.3823ZM30.1224 46.8394L25.132 57.4397H27.2691L28.4498 54.9329H32.5274L33.7072 57.4397H35.8444L30.8539 46.8394H30.1224Z" fill="white"/>
<path fill-rule="evenodd" clip-rule="evenodd" d="M14.6522 48.3883V51.8504H16.2033C17.1615 51.8504 17.9392 51.0759 17.9392 50.1198C17.9392 49.1636 17.1615 48.3891 16.2033 48.3891H14.6522V48.3883ZM14.6522 53.3993V57.4389H12.5142V46.8394H13.5827H14.6522H16.9622C18.7794 46.8394 20.2527 48.3081 20.2527 50.1198C20.2527 51.5109 19.3834 52.6999 18.1565 53.1767L21.4367 57.4397H18.7152L15.9877 53.4002H14.6522V53.3993Z" fill="white"/>
<path fill-rule="evenodd" clip-rule="evenodd" d="M2.1611 48.3934V52.0483H3.37343C4.38726 52.0483 5.20945 51.2286 5.20945 50.2187C5.20945 49.2071 4.38726 48.3883 3.37343 48.3883L2.1611 48.3934ZM2.1611 53.5946V57.4397H0.0230713V46.8394H0.836705H2.16025H4.18193C6.05388 46.8394 7.57164 48.3525 7.57164 50.2196C7.57164 52.0858 6.05388 53.5989 4.18193 53.5989L2.1611 53.5946Z" fill="white"/>
<path fill-rule="evenodd" clip-rule="evenodd" d="M46.413 52.7936V55.4854C45.9322 55.5946 45.3966 55.6211 44.8884 55.6211C42.9181 55.6211 41.3961 54.0619 41.3961 52.1385C41.3961 50.216 42.96 48.6568 44.8884 48.6568C46.2556 48.6568 47.1052 48.9152 48.2337 49.2991V47.1991C47.5638 46.8392 46.8015 46.5398 44.8884 46.5398C41.965 46.5398 39.2726 49.0466 39.2726 52.1385C39.2726 55.2313 41.3584 57.7534 44.8884 57.7389C45.9177 57.7346 47.8692 57.4421 48.5571 56.9431L48.5511 52.7927H46.413V52.7936Z" fill="white"/>
<path fill-rule="evenodd" clip-rule="evenodd" d="M60.475 46.8394V53.0931V53.0948C60.475 54.4826 59.3457 55.6084 57.9537 55.6084C56.5608 55.6084 55.4315 54.4826 55.4315 53.0948V46.8394H53.2943V53.0948C53.2943 55.6588 55.381 57.7391 57.9537 57.7391C60.5263 57.7391 62.6122 55.6588 62.6122 53.0948V46.8394H60.475Z" fill="white"/>
<path fill-rule="evenodd" clip-rule="evenodd" d="M1.72309 40.3075C2.67361 40.3075 3.44532 39.5382 3.44532 38.5897V9.76369C3.44532 9.19734 4.14174 9.02504 4.45402 9.4771L25.1987 39.5356C25.5178 40.0167 26.0602 40.3118 26.6369 40.3075C27.5882 40.2998 28.36 39.5348 28.36 38.5897V2.49578C28.36 1.54816 27.5882 0.778809 26.6369 0.778809C25.6855 0.778809 24.9138 1.54816 24.9138 2.49578V31.3064C24.9138 31.837 24.2225 32.0365 23.9145 31.5913L3.14502 1.52087C2.82847 1.06199 2.28006 0.778809 1.72223 0.778809C0.770856 0.778809 0 1.54816 0 2.49578V38.5897C0 39.5373 0.770855 40.3075 1.72309 40.3075Z" fill="white"/>
<path fill-rule="evenodd" clip-rule="evenodd" d="M34.6201 37.7112H45.7706C46.4234 37.7112 46.9521 38.2383 46.9521 38.8882C46.9521 39.5382 46.4234 40.0644 45.7706 40.0644H34.6201C33.9682 40.0644 33.4395 39.5382 33.4395 38.8882C33.4395 38.2383 33.9682 37.7112 34.6201 37.7112Z" fill="white"/>
<path fill-rule="evenodd" clip-rule="evenodd" d="M34.6201 18.8424H45.7706C46.4234 18.8424 46.9521 18.3153 46.9521 17.6653C46.9521 17.0154 46.4234 16.4883 45.7706 16.4883H40.68V11.6376C40.68 11.1079 40.2497 10.6789 39.7184 10.6789C39.1879 10.6789 38.7567 11.1079 38.7567 11.6376V16.4883H35.4466V7.87784H45.7706C46.4234 7.87784 46.9521 7.35072 46.9521 6.70078C46.9521 6.05084 46.4234 5.52372 45.7706 5.52372H35.4466V1.77931C35.4466 1.22746 34.9974 0.778809 34.443 0.778809C33.8895 0.778809 33.4395 1.2266 33.4395 1.77931V17.6653C33.4395 18.3153 33.9682 18.8424 34.6201 18.8424Z" fill="white"/>
<path fill-rule="evenodd" clip-rule="evenodd" d="M40.1957 21.6936C44.0543 21.6936 47.1822 24.609 47.1822 28.205C47.1822 31.7993 44.0543 34.7146 40.1957 34.7146C36.3371 34.7146 33.2084 31.7993 33.2084 28.205C33.2084 24.609 36.3371 21.6936 40.1957 21.6936ZM40.1957 24.2013C42.8685 24.2013 45.0356 25.9941 45.0356 28.205C45.0356 30.4149 42.8685 32.207 40.1957 32.207C37.5221 32.207 35.355 30.4149 35.355 28.205C35.3558 25.9941 37.5229 24.2013 40.1957 24.2013Z" fill="white"/>
<path fill-rule="evenodd" clip-rule="evenodd" d="M58.6372 18.7826C58.6372 18.8235 58.6406 19.0359 58.3882 19.1758C54.6794 21.2186 52.1837 25.0381 52.1837 29.4111C52.1837 35.9344 57.7397 41.2277 64.591 41.2277C71.444 41.2269 77 35.9344 77 29.4102C77 25.0389 74.5052 21.2203 70.7989 19.1767C70.5448 19.0368 70.5474 18.8244 70.5465 18.7818C70.5448 18.7016 70.5311 18.4935 70.7775 18.3357C73.5649 16.5385 75.3872 13.5626 75.3872 10.1943C75.3872 4.70907 70.5542 0.260986 64.5918 0.260986C58.6312 0.260986 53.7973 4.70907 53.7973 10.1943C53.7973 13.5575 55.6153 16.5308 58.395 18.328C58.6432 18.4883 58.6355 18.7033 58.6372 18.7826ZM64.591 17.4793C60.4116 17.4793 57.0227 14.3661 57.0227 10.5261C57.0227 6.68619 60.4116 3.5721 64.591 3.5721C68.7712 3.5721 72.1601 6.68534 72.1601 10.5261C72.1601 14.3652 68.7712 17.4793 64.591 17.4793ZM64.5918 20.6488C59.5218 20.6488 55.4109 24.5468 55.4109 29.3531C55.4109 34.1594 59.5227 38.0565 64.5918 38.0565C69.661 38.0565 73.7728 34.1594 73.7728 29.3531C73.7737 24.5468 69.6619 20.6488 64.5918 20.6488Z" fill="white"/>
</g>
</svg>
