<svg width="83" height="68" viewBox="0 0 83 68" fill="none" xmlns="http://www.w3.org/2000/svg">
<g opacity="0.43">
<path d="M41.3282 25.8909C41.389 25.8909 41.4498 25.8909 41.5106 25.8301L48.5626 21.757C49.2314 21.3922 49.4138 20.5411 49.049 19.8724C48.8666 19.5684 48.5627 19.3252 48.1979 19.2644C47.8331 19.1428 47.4684 19.2036 47.1644 19.386L41.3282 22.7905L35.492 19.386C35.1881 19.2036 34.8233 19.1428 34.4586 19.2644C34.0938 19.386 33.7898 19.5684 33.6075 19.8724C33.4251 20.1763 33.3643 20.5411 33.4859 20.9059C33.6074 21.2706 33.7898 21.5746 34.0938 21.757L41.1458 25.8301C41.2066 25.8909 41.2674 25.8909 41.3282 25.8909Z" fill="white"/>
<path d="M47.833 15.0087C47.833 15.0087 47.833 14.9479 47.833 15.0087L46.07 13.7321C46.0092 13.6713 45.9484 13.6713 45.8876 13.6713C45.8269 13.6713 45.7661 13.6713 45.7053 13.7321C43.2735 15.9814 39.5043 15.9814 37.0726 13.7321C36.951 13.6105 36.7686 13.6105 36.647 13.7321L34.9448 14.9479C34.884 15.0087 34.8232 15.0695 34.8232 15.1911C34.8232 15.3127 34.8232 15.3735 34.884 15.4343C36.647 17.2581 39.018 18.17 41.3889 18.17C43.6991 18.17 46.0092 17.3189 47.7723 15.5559L47.8938 15.4343C47.9546 15.3735 47.9546 15.3127 47.9546 15.2519C47.9546 15.1303 47.8938 15.0695 47.833 15.0087Z" fill="white"/>
<path d="M40.5379 29.7816C40.5379 29.7208 40.5379 29.7208 40.5379 29.7816C40.5379 29.7208 40.4771 29.66 40.4771 29.66C40.4771 29.66 40.4771 29.66 40.4163 29.5992C40.4163 29.5992 40.4163 29.5992 40.3555 29.5384L35.9176 26.3771C35.796 26.3163 35.6744 26.3163 35.5528 26.3771L33.729 27.6538C33.6682 27.7146 33.6074 27.8362 33.6074 27.897C33.6074 27.9578 33.6682 28.0794 33.729 28.1401L38.1669 31.3014C38.2277 31.3622 38.2885 31.3622 38.3493 31.3622C38.4101 31.3622 38.4709 31.3622 38.5317 31.3014L40.3555 30.0247C40.3555 30.0247 40.3555 30.0247 40.4163 29.964C40.4163 29.964 40.4163 29.9639 40.4771 29.9032V29.8424V29.7816C40.5379 29.8424 40.5379 29.8424 40.5379 29.7816Z" fill="white"/>
<path d="M23.0901 35.6179C23.0901 35.5571 23.0901 35.4355 23.0293 35.3747C21.5703 33.247 21.5703 30.5112 23.0293 28.3835C23.0901 28.3227 23.0901 28.2619 23.0901 28.1403C23.0901 28.0795 23.0293 28.0187 22.9685 27.9579L21.2663 26.7421C21.1447 26.6205 20.9016 26.6813 20.8408 26.8029C18.7738 29.8425 18.7738 33.9157 20.8408 36.9554C20.9016 37.0162 20.9624 37.077 21.0231 37.077H21.0839C21.1447 37.077 21.2055 37.0769 21.2663 37.0162L22.9685 35.8003C23.0293 35.8003 23.0901 35.7395 23.0901 35.6179Z" fill="white"/>
<path d="M35.0057 25.83C35.0057 25.7692 35.0057 25.7692 34.9449 25.7084L34.8841 25.6476L33.4251 24.6141C29.7775 22 24.7316 22.5471 21.6919 25.83C21.6311 25.8908 21.5703 26.0123 21.6311 26.0731C21.6311 26.1339 21.6919 26.2555 21.7527 26.3163L23.4549 27.5322C23.5157 27.593 23.5765 27.593 23.6373 27.593C23.6981 27.593 23.8197 27.5322 23.8805 27.4714C26.0691 25.3436 29.4127 25.1004 31.9052 26.8027L32.7563 27.4106C32.8779 27.4714 32.9995 27.4714 33.1211 27.4106L34.9449 26.1339C34.9449 26.1339 34.9449 26.1339 35.0057 26.0731C35.0057 26.0731 35.0057 26.0731 35.0665 26.0123C35.0665 25.9515 35.0665 25.9516 35.1273 25.8908C35.0057 25.8908 35.0057 25.83 35.0057 25.83Z" fill="white"/>
<path d="M38.5925 32.3957C38.4709 32.3349 38.3493 32.3349 38.2277 32.3957L33.7898 35.557C33.729 35.6178 33.6682 35.7393 33.6682 35.8001C33.6682 35.9217 33.729 35.9825 33.7898 36.0433L35.6136 37.32C35.6744 37.3808 35.7352 37.3808 35.796 37.3808C35.8568 37.3808 35.9176 37.3808 35.9784 37.32L40.4163 34.1587C40.4771 34.0979 40.5379 33.9763 40.5379 33.9155C40.5379 33.7939 40.4771 33.7332 40.4163 33.6724L38.5925 32.3957Z" fill="white"/>
<path d="M48.9881 35.8609C48.9881 35.7393 48.9273 35.6785 48.8665 35.6178L44.4286 32.4565C44.307 32.3957 44.1854 32.3957 44.0638 32.4565L42.24 33.7332C42.1792 33.7939 42.1184 33.9155 42.1184 33.9763C42.1184 34.0979 42.1792 34.1587 42.24 34.2195L46.6779 37.3808C46.7387 37.4416 46.7995 37.4416 46.8603 37.4416C46.9211 37.4416 46.9819 37.4416 47.0427 37.3808L48.8665 36.1041C48.9881 36.0433 48.9881 35.9217 48.9881 35.8609Z" fill="white"/>
<path d="M44.0638 31.3622C44.1246 31.423 44.1854 31.423 44.2462 31.423C44.307 31.423 44.3678 31.423 44.4286 31.3622L48.8665 28.2009C48.9273 28.1401 48.9881 28.0186 48.9881 27.9578C48.9881 27.8362 48.9273 27.7754 48.8665 27.7146L47.0427 26.4379C46.9211 26.3771 46.7995 26.3771 46.6779 26.4379L42.24 29.5992C42.1792 29.66 42.1184 29.7816 42.1184 29.8424C42.1184 29.964 42.1792 30.0247 42.24 30.0855L44.0638 31.3622Z" fill="white"/>
<path d="M43.456 31.9094C43.456 31.7878 43.3952 31.7271 43.3344 31.6663L41.5106 30.3896C41.389 30.3288 41.2674 30.3288 41.1458 30.3896L39.322 31.6663C39.2612 31.7271 39.2004 31.8486 39.2004 31.9094C39.2004 32.031 39.2612 32.0918 39.322 32.1526L41.1458 33.4293C41.2066 33.4901 41.2674 33.4901 41.3282 33.4901C41.389 33.4901 41.4498 33.4901 41.5106 33.4293L43.3344 32.1526C43.3952 32.0918 43.456 31.9702 43.456 31.9094Z" fill="white"/>
<path d="M48.2586 3.64039L46.5564 4.85626C46.4956 4.91705 46.4348 4.97784 46.4348 5.03863C46.4348 5.09942 46.4348 5.22101 46.4956 5.2818C48.137 7.53116 48.137 10.5709 46.4956 12.8202C46.4348 12.881 46.4348 13.0026 46.4348 13.0634C46.4348 13.1242 46.4956 13.2458 46.5564 13.2458L48.2586 14.4616C48.3194 14.5224 48.3802 14.5224 48.441 14.5224C48.5626 14.5224 48.6234 14.4616 48.6842 14.4008C50.9943 11.1788 50.9943 6.86245 48.6842 3.70118C48.6234 3.64039 48.5626 3.57959 48.5018 3.57959C48.441 3.57959 48.3194 3.57959 48.2586 3.64039Z" fill="white"/>
<path d="M34.2153 14.5833C34.2761 14.5833 34.3369 14.5833 34.3977 14.5225L36.0999 13.3067C36.1607 13.2459 36.2215 13.1851 36.2215 13.1243C36.2215 13.0635 36.2215 12.9419 36.1607 12.8811C34.5193 10.6317 34.5193 7.59206 36.1607 5.3427C36.2215 5.28191 36.2215 5.16033 36.2215 5.09953C36.2215 5.03874 36.1607 4.91716 36.0999 4.91716L34.3977 3.70129C34.2761 3.5797 34.0329 3.64048 33.9721 3.76207C31.662 6.98412 31.662 11.3005 33.9721 14.4617C34.0329 14.5225 34.1545 14.5833 34.2153 14.5833Z" fill="white"/>
<path d="M36.6471 4.36996C36.7079 4.43076 36.7686 4.43076 36.8294 4.43076C36.8902 4.43076 37.0118 4.43076 37.0726 4.36996C39.5043 2.1206 43.2736 2.1206 45.7053 4.36996C45.7661 4.43076 45.8269 4.43076 45.8877 4.43076H45.9485C46.0093 4.43076 46.0093 4.43076 46.0701 4.36996L47.7723 3.15409C47.7723 3.15409 47.7723 3.15411 47.7723 3.09332C47.8331 3.03252 47.8331 2.97172 47.8331 2.91092C47.8331 2.85013 47.8331 2.78934 47.7723 2.72855C44.2462 -0.858266 38.4709 -0.919067 34.884 2.60696L34.7625 2.72855C34.7017 2.78934 34.6409 2.91093 34.6409 2.97172C34.6409 3.09331 34.7017 3.1541 34.7625 3.21489L36.6471 4.36996Z" fill="white"/>
<path d="M33.06 36.3473C32.9385 36.2865 32.8169 36.2865 32.6953 36.3473L31.8442 36.9552C29.3516 38.7183 26.008 38.4143 23.8194 36.2865C23.6978 36.1649 23.5155 36.1649 23.3939 36.2257L21.6917 37.4416C21.6309 37.5024 21.5701 37.5632 21.5701 37.6848C21.5701 37.7456 21.5701 37.8671 21.6309 37.9279C23.3939 39.8125 25.7648 40.7852 28.1966 40.7852C30.0204 40.7852 31.8442 40.2381 33.364 39.1438L34.8231 38.1103C34.8839 38.0495 34.9446 37.9279 34.9446 37.8671C34.9446 37.7456 34.8839 37.6848 34.8231 37.624L33.06 36.3473Z" fill="white"/>
<path d="M49.9608 27.4106L50.8119 26.8027C53.3044 25.0397 56.6481 25.3437 58.8366 27.4714C58.8974 27.5322 58.9582 27.593 59.0798 27.593C59.1406 27.593 59.2014 27.593 59.2622 27.5322L60.9644 26.3164C61.0252 26.2556 61.086 26.1948 61.086 26.0732C61.086 26.0124 61.086 25.8908 61.0252 25.83C57.9855 22.5472 52.9397 22.0608 49.2921 24.6141L47.833 25.6476C47.7722 25.7084 47.7114 25.83 47.7114 25.8908C47.7114 26.0124 47.7722 26.0732 47.833 26.134L49.6568 27.4106C49.7176 27.4714 49.9 27.4714 49.9608 27.4106Z" fill="white"/>
<path d="M59.2622 36.2865C59.1406 36.2257 58.9582 36.2257 58.8367 36.3473C56.7089 38.4751 53.3044 38.7791 50.8119 37.016L49.9608 36.4081C49.8392 36.3473 49.7176 36.3473 49.596 36.4081L47.7722 37.6848C47.7114 37.7456 47.6506 37.8672 47.6506 37.9279C47.6506 38.0495 47.7114 38.1103 47.7722 38.1711L49.2313 39.2046C50.8119 40.2989 52.5749 40.846 54.3987 40.846C56.8305 40.846 59.2014 39.8733 60.9644 37.9887C61.0252 37.9279 61.086 37.8064 61.0252 37.7456C61.0252 37.6848 60.9644 37.5632 60.9036 37.5024L59.2622 36.2865Z" fill="white"/>
<path d="M61.8763 26.8029C61.7547 26.6813 61.5723 26.6205 61.4508 26.7421L59.7485 27.9579L59.6878 28.0187V28.0795V28.1403V28.2011V28.2619C59.6878 28.2619 59.6878 28.2619 59.6878 28.3227V28.3835C61.1468 30.5112 61.1468 33.247 59.6878 35.3747C59.627 35.4355 59.627 35.4963 59.627 35.6179C59.627 35.6787 59.6878 35.7395 59.7485 35.8003L61.4508 37.0162C61.5116 37.0769 61.5723 37.077 61.6331 37.077H61.6939C61.7547 37.077 61.8155 37.0162 61.8763 36.9554C63.9433 33.9157 63.9433 29.8425 61.8763 26.8029Z" fill="white"/>
<path d="M10.0675 55.1405C11.0176 56.0509 11.4926 57.3968 11.4926 59.1385V66.5011H9.4342V59.4156C9.4342 58.1489 9.11753 57.1989 8.48419 56.5655C7.85084 55.8926 7.01958 55.5759 5.91122 55.5759C4.80287 55.5759 3.93202 55.9322 3.29867 56.6051C2.66533 57.278 2.34866 58.2676 2.34866 59.6135V66.5407H0.290283V54.0321H2.34866V55.8134C2.7445 55.1801 3.29867 54.6655 4.01118 54.3488C4.72369 53.9926 5.51538 53.8342 6.34665 53.8342C7.89043 53.755 9.11753 54.2301 10.0675 55.1405Z" fill="white"/>
<path d="M32.9471 54.4675C33.7784 53.9925 34.6888 53.755 35.7576 53.755C36.8659 53.755 37.8951 54.0321 38.8055 54.5467C39.716 55.0613 40.4285 55.8134 40.9431 56.803C41.4577 57.753 41.7348 58.9009 41.7348 60.1676C41.7348 61.4343 41.4577 62.5427 40.9431 63.5323C40.4285 64.5219 39.716 65.274 38.8055 65.8282C37.8951 66.3823 36.9055 66.6594 35.7972 66.6594C34.7284 66.6594 33.7784 66.4219 32.9471 65.9469C32.1158 65.4719 31.5221 64.8781 31.1262 64.126V66.4219H29.0679V49.5195H31.1262V56.2092C31.5221 55.5759 32.1554 54.9425 32.9471 54.4675ZM39.0035 57.7134C38.6076 57.0009 38.093 56.4863 37.4597 56.1301C36.8263 55.7738 36.1138 55.5759 35.3221 55.5759C34.57 55.5759 33.8575 55.7738 33.2242 56.1301C32.5909 56.4863 32.0763 57.0405 31.6804 57.753C31.2846 58.4655 31.0867 59.2968 31.0867 60.2072C31.0867 61.1572 31.2846 61.9885 31.6804 62.701C32.0763 63.4135 32.5909 63.9677 33.2242 64.324C33.8575 64.6802 34.57 64.8781 35.3221 64.8781C36.1138 64.8781 36.8263 64.6802 37.4597 64.324C38.093 63.9677 38.6076 63.4135 39.0035 62.701C39.3993 61.9885 39.5576 61.1572 39.5576 60.2072C39.5972 59.2572 39.3993 58.4259 39.0035 57.7134Z" fill="white"/>
<path d="M55.5101 53.9924V66.501H53.4517V64.6405C53.0559 65.2739 52.5017 65.7885 51.7892 66.1447C51.0767 66.501 50.285 66.6989 49.4538 66.6989C48.4642 66.6989 47.5933 66.501 46.8412 66.1051C46.0495 65.7093 45.4558 65.1155 45.0203 64.2843C44.5849 63.4926 44.3474 62.503 44.3474 61.3551V54.032H46.4058V61.078C46.4058 62.3051 46.7224 63.2551 47.3558 63.928C47.9891 64.6009 48.8204 64.9176 49.9288 64.9176C51.0371 64.9176 51.908 64.5614 52.5413 63.8884C53.1746 63.2155 53.4913 62.2259 53.4913 60.8801V53.9924H55.5101Z" fill="white"/>
<path d="M61.0913 49.5986H59.033V66.501H61.0913V49.5986Z" fill="white"/>
<path d="M66.7124 49.5986H64.6541V66.501H66.7124V49.5986Z" fill="white"/>
<path d="M71.6603 63.8887C71.779 63.8095 71.779 63.6908 71.6999 63.572C71.6999 63.572 71.6999 63.572 71.6603 63.572C70.3936 61.9491 70.3936 59.6532 71.6603 58.0302C71.6999 57.9907 71.6999 57.9115 71.6999 57.8719C71.6999 57.7927 71.6603 57.7532 71.6207 57.7136L70.3936 56.8427C70.2748 56.7635 70.1561 56.8031 70.0769 56.8823C69.2061 57.9907 68.7311 59.3761 68.7311 60.8011C68.6915 62.2261 69.1665 63.6512 70.0373 64.7595C70.0769 64.7991 70.1561 64.8387 70.2353 64.8387C70.2748 64.8387 70.3144 64.8387 70.3936 64.7991L71.6603 63.8887Z" fill="white"/>
<path d="M81.8334 54.5071H80.3292C80.2105 54.5071 80.0917 54.6259 80.0917 54.7446V56.3676C80.0917 56.328 80.0521 56.328 80.0521 56.2884L79.5375 55.7738L78.9438 55.2988L78.3104 54.9425L77.6375 54.6654L76.8854 54.4675L76.1333 54.3488L75.3812 54.3092C73.6395 54.2696 71.9374 54.9821 70.7103 56.2092C70.6707 56.2488 70.6311 56.328 70.6311 56.4071C70.6311 56.4863 70.6707 56.5259 70.7103 56.5655L71.9374 57.4363C72.0166 57.5155 72.1353 57.4759 72.2145 57.4363C73.0853 56.6842 74.1937 56.2884 75.3416 56.2884C76.5292 56.2488 77.6375 56.6842 78.5084 57.4759C78.5479 57.5155 78.5875 57.5155 78.6667 57.5155C78.7063 57.5155 78.7459 57.5155 78.7855 57.4759L79.9334 56.6842C79.973 56.6446 79.973 56.6446 80.0126 56.6051V57.1988L79.1813 57.7926C79.1417 57.8322 79.1021 57.8718 79.1021 57.9509C79.1021 58.0301 79.1021 58.0697 79.1417 58.1093C80.3292 59.7322 80.3292 61.9489 79.1813 63.6114C79.1021 63.7302 79.1417 63.8489 79.2209 63.9281L80.0126 64.5219V65.1156L78.825 64.2844C78.7459 64.2052 78.6271 64.2448 78.5479 64.2844C77.6375 65.076 76.4896 65.4719 75.3021 65.4719C74.1541 65.4719 73.0458 65.0365 72.2145 64.2844C72.1353 64.2052 72.0166 64.2052 71.9374 64.2844L70.6707 65.1552C70.6311 65.1948 70.5916 65.274 70.5916 65.3135C70.5916 65.3927 70.5916 65.4323 70.6707 65.5115C71.8978 66.7386 73.5999 67.4511 75.3021 67.4115C75.3416 67.4115 75.4208 67.4115 75.4604 67.4115C77.2021 67.4115 78.8646 66.699 80.0521 65.4323V66.9365C80.0521 67.0552 80.1709 67.174 80.2896 67.174H81.7938C81.9126 67.174 82.0314 67.0552 82.0314 66.9365V54.7446C82.0709 54.5863 81.9522 54.5071 81.8334 54.5071Z" fill="white"/>
<path d="M17.128 65.9317C17.1472 65.9589 17.1712 65.9964 17.2007 66.012C18.1348 66.5076 19.0728 66.6989 20.2405 66.6989C21.7407 66.6989 22.8471 66.3445 23.874 65.5965C23.8794 65.5926 23.8852 65.589 23.8912 65.586C23.9647 65.5493 23.9806 65.4514 23.9225 65.3933L22.8533 64.3242C22.7657 64.2366 22.6363 64.2506 22.5363 64.3239C21.9426 64.7593 21.1905 64.9572 20.28 64.9572C19.7339 64.9572 19.2575 64.8642 18.8152 64.6959C18.5739 64.6041 18.2964 64.645 18.1138 64.8276L17.138 65.8034C17.1025 65.8389 17.0992 65.8907 17.128 65.9317Z" fill="white"/>
<path d="M25.7546 63.3664C25.9141 63.0025 25.6262 62.6218 25.2289 62.6218H24.2235C23.9712 62.6218 23.7502 62.7822 23.6344 63.0063C23.5748 63.1215 23.5096 63.2321 23.4396 63.3399C23.2748 63.5937 23.2909 63.9303 23.5049 64.1443L24.0915 64.7309C24.3259 64.9653 24.7086 64.9672 24.9201 64.7121C25.2599 64.3023 25.5401 63.8558 25.7546 63.3664Z" fill="white"/>
<path d="M20.2011 55.5362C20.9136 55.5362 21.5865 55.6945 22.1803 55.9716C22.3554 56.0689 22.5209 56.1757 22.6768 56.292C22.9424 56.4902 23.3203 56.4942 23.5546 56.2598L24.0227 55.7917C24.2681 55.5463 24.2556 55.1431 23.9809 54.931C23.8063 54.7962 23.6266 54.6663 23.447 54.5466C22.5366 54.032 21.4678 53.7549 20.2803 53.7549C19.0532 53.7549 17.9844 54.032 17.0344 54.5466C16.751 54.7166 16.7289 55.1119 16.9626 55.3456L17.5083 55.8913C17.7148 56.0978 18.0376 56.1205 18.2956 55.9836C18.8576 55.6853 19.4796 55.5362 20.2011 55.5362Z" fill="white"/>
<path d="M26.2576 59.7323C26.2576 58.5843 26.0201 57.5552 25.5055 56.6447C25.4158 56.4833 25.3261 56.3382 25.2291 56.1983C25.0314 55.913 24.6245 55.9028 24.379 56.1482L23.5878 56.9394C23.5101 57.0171 23.5167 57.1402 23.5658 57.2385C23.8297 57.6489 23.985 58.1461 24.0478 58.698C24.0852 59.0273 23.8118 59.2969 23.4804 59.2969H16.8685C16.5127 59.2969 16.2311 58.9875 16.3079 58.6401C16.4429 58.0285 16.6738 57.5072 17.0005 57.0601C17.196 56.7925 17.2008 56.4152 16.9665 56.1809L16.4511 55.6655C16.2239 55.4383 15.8553 55.4283 15.6422 55.6686C15.3415 56.0077 15.0799 56.3858 14.8574 56.8031C14.3428 57.7927 14.0657 58.901 14.0657 60.2073C14.0657 61.5136 14.3428 62.6219 14.8574 63.6115C15.2037 64.2413 15.6253 64.7709 16.122 65.2003C16.3429 65.3913 16.6708 65.3607 16.8773 65.1542L17.5068 64.5247C17.6925 64.339 17.6556 64.0347 17.4699 63.849C16.8523 63.2964 16.4483 62.5303 16.2796 61.5945C16.2182 61.2534 16.4966 60.9594 16.8432 60.9594H25.6865C25.9725 60.9594 26.2207 60.7571 26.2404 60.4718C26.2576 60.2224 26.2576 59.9702 26.2576 59.7323Z" fill="white"/>
</g>
</svg>
