<svg width="49" height="48" viewBox="0 0 49 48" fill="none" xmlns="http://www.w3.org/2000/svg">
<rect x="7" y="6" width="42" height="42" rx="21" fill="#E0E0E0"/>
<rect width="42" height="42" rx="21" fill="url(#paint0_linear_507_709)"/>
<path d="M20.5 30C15.651 30 12 27.9559 12 25.252V15.748C12 13.0441 15.651 11 20.5 11C25.349 11 29 13.0441 29 15.748V25.252C29 27.964 25.349 30 20.5 30ZM13.8862 23.5581V25.252C13.8862 26.5958 16.7114 28.1024 20.5 28.1024C24.2886 28.1024 27.1138 26.5958 27.1138 25.252V23.5581C25.5838 24.6087 23.2281 25.252 20.5 25.252C17.7719 25.252 15.4243 24.6087 13.8862 23.5581V23.5581ZM13.8862 20.5041C13.8862 21.8478 16.7114 23.3545 20.5 23.3545C24.2886 23.3545 27.1138 21.8478 27.1138 20.5041V18.8101C25.5838 19.8607 23.2281 20.5041 20.5 20.5041C17.7719 20.5041 15.4243 19.8607 13.8862 18.8101V20.5041V20.5041ZM13.8862 15.7561C13.8862 17.0999 16.7114 18.6065 20.5 18.6065C24.2886 18.6065 27.1138 17.0999 27.1138 15.7561C27.1138 14.4123 24.2886 12.9057 20.5 12.9057C16.7114 12.9057 13.8862 14.4042 13.8862 15.748V15.7561Z" fill="white"/>
<defs>
<linearGradient id="paint0_linear_507_709" x1="-7.68056" y1="49.6242" x2="51.9539" y2="32.1066" gradientUnits="userSpaceOnUse">
<stop stop-color="#E30D7F"/>
<stop offset="0.526042" stop-color="#0B050F"/>
<stop offset="1" stop-color="#2A2962"/>
</linearGradient>
</defs>
</svg>
