<svg width="49" height="48" viewBox="0 0 49 48" fill="none" xmlns="http://www.w3.org/2000/svg">
<rect x="7" y="6" width="42" height="42" rx="21" fill="#E0E0E0"/>
<rect width="42" height="42" rx="21" fill="url(#paint0_linear_507_761)"/>
<path d="M28.0598 30C27.8991 30 27.7384 29.9593 27.5938 29.8778L24.7818 28.249L21.9698 29.8778C21.6806 30.0407 21.3271 30.0407 21.0378 29.8778L18.2258 28.249L15.4138 29.8778C15.1246 30.0489 14.7711 30.0407 14.4738 29.8778C14.1846 29.7068 14.0079 29.3973 14.0079 29.0553V13.8504C13.9998 12.2786 15.2612 11 16.8118 11H26.1878C27.7384 11 28.9998 12.2786 28.9998 13.8504V29.0553C28.9998 29.3973 28.8231 29.7068 28.5338 29.8778C28.3892 29.9674 28.2285 30.0081 28.0598 30.0081V30ZM18.2178 26.1967C18.3785 26.1967 18.5392 26.2375 18.6838 26.3189L21.4958 27.9477L24.3078 26.3189C24.597 26.156 24.9505 26.156 25.2398 26.3189L27.1198 27.4102V13.8504C27.1198 13.3292 26.702 12.8976 26.1798 12.8976H16.8118C16.2976 12.8976 15.8718 13.321 15.8718 13.8504V27.4183L17.7518 26.327C17.8964 26.2456 18.0571 26.2049 18.2178 26.2049V26.1967ZM18.6838 23.3463C18.4428 23.3463 18.2017 23.2568 18.017 23.0694C17.6474 22.6948 17.6474 22.1003 18.017 21.7257L23.641 16.0249C24.0105 15.6502 24.597 15.6502 24.9666 16.0249C25.3362 16.3995 25.3362 16.994 24.9666 17.3686L19.3426 23.0694C19.1578 23.2568 18.9168 23.3463 18.6758 23.3463H18.6838ZM23.8418 23.3463C23.0705 23.3463 22.4358 22.7111 22.4358 21.9211C22.4358 21.1312 23.0705 20.4959 23.8418 20.4959C24.6131 20.4959 25.2478 21.1312 25.2478 21.9211C25.2478 22.7111 24.6131 23.3463 23.8418 23.3463ZM19.1578 18.5984C18.3865 18.5984 17.7518 17.9631 17.7518 17.1732C17.7518 16.3832 18.3865 15.748 19.1578 15.748C19.9291 15.748 20.5638 16.3913 20.5638 17.1732C20.5638 17.955 19.9291 18.5984 19.1578 18.5984Z" fill="white"/>
<defs>
<linearGradient id="paint0_linear_507_761" x1="-7.68056" y1="49.6242" x2="51.9539" y2="32.1066" gradientUnits="userSpaceOnUse">
<stop stop-color="#E30D7F"/>
<stop offset="0.526042" stop-color="#0B050F"/>
<stop offset="1" stop-color="#2A2962"/>
</linearGradient>
</defs>
</svg>
