<svg width="49" height="48" viewBox="0 0 49 48" fill="none" xmlns="http://www.w3.org/2000/svg">
<rect x="7" y="6" width="42" height="42" rx="21" fill="#E0E0E0"/>
<rect width="42" height="42" rx="21" fill="url(#paint0_linear_368_336)"/>
<path d="M22.2868 29C22.0974 29 21.917 28.9542 21.7456 28.8441C21.2494 28.5413 21.087 27.8808 21.3847 27.3762C21.9981 26.3486 22.4943 25.2661 22.8552 24.1652C23.0446 23.6055 23.649 23.312 24.1903 23.4954C24.7406 23.6881 25.0383 24.2936 24.8488 24.8532C24.4339 26.1009 23.8746 27.3211 23.1799 28.4771C22.9815 28.8074 22.6386 28.9909 22.2778 28.9909L22.2868 29ZM17.6229 28.7615C17.3973 28.7615 17.1808 28.6881 16.9914 28.5413C16.5313 28.1835 16.4411 27.5138 16.7839 27.0459C18.543 24.6881 19.4722 21.9725 19.4722 19.1835C19.4722 18.5964 19.9413 18.1101 20.5277 18.1101C21.1141 18.1101 21.5832 18.5872 21.5832 19.1835C21.5832 22.4404 20.5096 25.6055 18.4709 28.3395C18.2634 28.6147 17.9476 28.7615 17.6319 28.7615H17.6229ZM14.0054 26.945C13.7889 26.945 13.5723 26.8808 13.3919 26.7431C12.9228 26.3945 12.8146 25.7248 13.1574 25.2477L13.2115 25.1652C14.5647 23.3486 15.2683 21.2844 15.2593 19.1835C15.2593 16.6331 17.6229 14.5597 20.5187 14.5597C23.4145 14.5597 25.778 16.6331 25.778 19.1835C25.778 20.1285 25.7059 21.0826 25.5525 22.0275C25.4623 22.6147 24.921 23.0092 24.3437 22.9083C23.7663 22.8165 23.3784 22.2661 23.4776 21.6789C23.6129 20.8532 23.6761 20.0092 23.6761 19.1835C23.6761 17.8165 22.2598 16.6973 20.5187 16.6973C18.7776 16.6973 17.3612 17.8165 17.3612 19.1835C17.3612 21.7615 16.5133 24.2753 14.8985 26.4404L14.8534 26.5046C14.6459 26.789 14.3301 26.945 13.9963 26.945H14.0054ZM27.898 26.5872C27.7898 26.5872 27.6725 26.5688 27.5552 26.5321C27.0049 26.3395 26.7162 25.734 26.8967 25.1743C27.5462 23.2386 27.88 21.2202 27.88 19.1835C27.88 17.0642 26.4997 15.0734 24.2715 13.9909C21.953 12.8624 19.0753 12.8624 16.7568 13.9909C16.2336 14.2477 15.6021 14.0184 15.3495 13.4863C15.0969 12.9542 15.3225 12.312 15.8457 12.0551C18.7234 10.6514 22.2958 10.6514 25.1736 12.0551C28.1416 13.5046 29.9819 16.2294 29.9819 19.1835C29.9819 21.4587 29.612 23.7064 28.8813 25.8716C28.728 26.3119 28.322 26.5964 27.889 26.5964L27.898 26.5872ZM11.0554 24.1285C10.875 24.1285 10.6946 24.0826 10.5232 23.9817C10.018 23.6789 9.85561 23.0275 10.1443 22.5138C10.7487 21.4679 11.0554 20.3395 11.0554 19.1743C11.0554 17.7064 11.5065 16.2661 12.3725 15.0092C12.7063 14.523 13.3649 14.4037 13.834 14.7431C14.3031 15.0826 14.4294 15.7523 14.0956 16.2294C13.4821 17.1285 13.1574 18.1468 13.1574 19.1743C13.1574 20.7248 12.7514 22.211 11.9575 23.5964C11.7591 23.9358 11.4073 24.1285 11.0464 24.1285H11.0554Z" fill="#EEF1FA"/>
<defs>
<linearGradient id="paint0_linear_368_336" x1="-7.68056" y1="49.6242" x2="51.9539" y2="32.1066" gradientUnits="userSpaceOnUse">
<stop stop-color="#E30D7F"/>
<stop offset="0.526042" stop-color="#0B050F"/>
<stop offset="1" stop-color="#2A2962"/>
</linearGradient>
</defs>
</svg>
