<svg width="194" height="244" viewBox="0 0 194 244" fill="none" xmlns="http://www.w3.org/2000/svg">
<g class="cube-line" opacity="0.77">
<path d="M172.549 49.9607L86.4638 99.9214L0 49.9607L86.4638 0L172.549 49.9607Z" fill="url(#paint0_linear_91_1639)"/>
<path d="M172.549 49.9607V148.116L86.4639 198.077V99.9214L172.549 49.9607Z" fill="url(#paint1_linear_91_1639)"/>
<path d="M86.4638 99.9214V198.077L0 148.116V49.9607L86.4638 99.9214Z" fill="url(#paint2_linear_91_1639)"/>
<path d="M125.593 41.8862L86.3374 64.5956L46.8291 41.8862L86.3374 19.0507L125.593 41.8862Z" fill="url(#paint3_linear_91_1639)"/>
<path d="M125.593 41.8862V47.9421L86.3374 70.7776V64.5956L125.593 41.8862Z" fill="url(#paint4_linear_91_1639)"/>
<path d="M86.3374 64.5956V70.7776L46.8291 47.9421V41.8862L86.3374 64.5956Z" fill="url(#paint5_linear_91_1639)"/>
<path d="M116.253 118.089L113.854 116.701L114.738 115.313L117.136 116.701L116.253 118.089Z" fill="white"/>
<path d="M326.922 239.837L322.125 237.061L323.009 235.547L327.805 238.323L326.922 239.837ZM317.329 234.285L312.532 231.51L313.416 229.996L318.212 232.771L317.329 234.285ZM307.357 228.734L302.687 225.959L303.444 224.445L308.241 227.22L307.357 228.734ZM297.89 223.183L293.094 220.407L294.735 219.65L299.531 222.426L297.89 223.183ZM288.297 217.632L283.501 214.856L284.258 213.468L289.054 216.244L288.297 217.632ZM278.704 212.081L273.907 209.305L274.791 207.917L279.588 210.693L278.704 212.081ZM269.49 207.034L264.693 204.258L265.577 202.745L270.373 205.52L269.49 207.034ZM259.897 201.483L255.1 198.707L255.984 197.193L260.78 199.969L259.897 201.483ZM250.304 195.932L245.633 193.156L246.391 191.642L251.187 194.418L250.304 195.932ZM240.837 190.381L236.04 187.605L236.798 186.217L241.594 188.993L240.837 190.381ZM231.622 184.451L226.447 181.801L227.331 180.414L232.001 183.189L231.622 184.451ZM222.029 178.9L217.233 176.124L218.116 174.736L222.913 177.512L222.029 178.9ZM212.436 173.475L207.64 170.699L208.523 169.185L213.32 171.961L212.436 173.475ZM202.843 167.923L198.046 165.148L198.93 163.634L203.727 166.409L202.843 167.923ZM193.25 162.372L188.453 159.597L189.337 158.083L194.134 160.858L193.25 162.372ZM183.404 156.569L178.608 153.793L179.365 152.405L184.162 155.055L183.404 156.569ZM173.811 151.018L168.51 148.494L169.267 147.106L174.064 149.882L173.811 151.018ZM164.218 145.466L159.422 142.691L160.305 141.303L165.102 144.079L164.218 145.466ZM154.625 140.041L149.829 137.266L150.712 135.752L155.509 138.527L154.625 140.041ZM145.032 134.49L140.236 131.715L141.119 130.201L145.916 132.976L145.032 134.49ZM135.439 128.939L130.643 126.416L131.526 124.902L136.323 127.677L135.439 128.939ZM125.846 123.388L121.176 120.612L121.933 119.224L126.73 121.874L125.846 123.388Z" fill="white"/>
</g>
<defs class="cube-body">
<linearGradient id="paint0_linear_91_1639" x1="86.2114" y1="95.758" x2="86.2114" y2="-23.8449" gradientUnits="userSpaceOnUse">
<stop stop-color="#F3E5FF"/>
<stop offset="1" stop-color="#DEAFFF"/>
</linearGradient>
<linearGradient id="paint1_linear_91_1639" x1="219.505" y1="-0.378497" x2="65.3563" y2="212.782" gradientUnits="userSpaceOnUse">
<stop stop-color="#E9CCFF"/>
<stop offset="0.43" stop-color="#DEB0FF"/>
<stop offset="0.57" stop-color="#D596FF"/>
<stop offset="0.72" stop-color="#CE81FF"/>
<stop offset="0.86" stop-color="#C974FF"/>
<stop offset="1" stop-color="#C870FF"/>
</linearGradient>
<linearGradient id="paint2_linear_91_1639" x1="153.363" y1="-20.1861" x2="41.9748" y2="125.711" gradientUnits="userSpaceOnUse">
<stop stop-color="#D58CFF"/>
<stop offset="1" stop-color="#9948FF"/>
</linearGradient>
<linearGradient id="paint3_linear_91_1639" x1="86.2112" y1="26.8728" x2="86.2112" y2="-25.7373" gradientUnits="userSpaceOnUse">
<stop stop-color="#F3E5FF"/>
<stop offset="1" stop-color="#DEAFFF"/>
</linearGradient>
<linearGradient id="paint4_linear_91_1639" x1="140.74" y1="33.5594" x2="59.98" y2="86.4578" gradientUnits="userSpaceOnUse">
<stop stop-color="#E9CCFF"/>
<stop offset="0.43" stop-color="#DEB0FF"/>
<stop offset="0.57" stop-color="#D596FF"/>
<stop offset="0.72" stop-color="#CE81FF"/>
<stop offset="0.86" stop-color="#C974FF"/>
<stop offset="1" stop-color="#C870FF"/>
</linearGradient>
<linearGradient id="paint5_linear_91_1639" x1="79.6475" y1="39.363" x2="66.5282" y2="56.5273" gradientUnits="userSpaceOnUse">
<stop stop-color="#D58CFF"/>
<stop offset="1" stop-color="#9948FF"/>
</linearGradient>
</defs>
</svg>
