<svg width="49" height="48" viewBox="0 0 49 48" fill="none" xmlns="http://www.w3.org/2000/svg">
<rect x="7" y="6" width="42" height="42" rx="21" fill="#E0E0E0"/>
<rect width="42" height="42" rx="21" fill="url(#paint0_linear_368_556)"/>
<path d="M20.4633 29C19.0544 29 17.6373 28.7086 16.3424 28.1419L12.1319 28.9757C11.7899 29.0405 11.4478 28.9271 11.2198 28.66C10.9918 28.3929 10.9348 28.0367 11.0569 27.7129L12.2134 24.6529C11.4153 23.3981 10.9999 21.9652 10.9999 20.5C10.9999 15.8129 15.2593 12 20.504 12C25.7487 12 30.0081 15.8129 30.0081 20.5C30.0081 25.1871 25.7487 29 20.504 29H20.4714H20.4633ZM16.4564 26.2152C16.5949 26.2152 16.7333 26.2476 16.8636 26.3043C17.9875 26.8386 19.2254 27.1057 20.4959 27.1138C24.69 27.1138 28.1024 24.151 28.1024 20.5C28.1024 16.849 24.69 13.8862 20.504 13.8862C16.318 13.8862 12.8975 16.8571 12.8975 20.5C12.8975 21.7386 13.2965 22.9448 14.0458 23.9971C14.2331 24.2562 14.2738 24.58 14.1598 24.8795L13.435 26.8062L16.2691 26.2395C16.3343 26.2233 16.3913 26.2233 16.4564 26.2233V26.2152ZM24.3073 21.4471C23.786 21.4471 23.3544 21.0262 23.3544 20.5C23.3544 19.9738 23.7779 19.5529 24.2991 19.5529H24.3073C24.8285 19.5529 25.2601 19.9738 25.2601 20.5C25.2601 21.0262 24.8366 21.4471 24.3073 21.4471ZM20.504 21.4471C19.9828 21.4471 19.5511 21.0262 19.5511 20.5C19.5511 19.9738 19.9746 19.5529 20.4959 19.5529H20.504C21.0252 19.5529 21.4569 19.9738 21.4569 20.5C21.4569 21.0262 21.0334 21.4471 20.504 21.4471ZM16.7007 21.4471C16.1795 21.4471 15.7479 21.0262 15.7479 20.5C15.7479 19.9738 16.1714 19.5529 16.6926 19.5529H16.7007C17.222 19.5529 17.6536 19.9738 17.6536 20.5C17.6536 21.0262 17.2301 21.4471 16.7007 21.4471Z" fill="#EEF1FA"/>
<defs>
<linearGradient id="paint0_linear_368_556" x1="-7.68056" y1="49.6242" x2="51.9539" y2="32.1066" gradientUnits="userSpaceOnUse">
<stop stop-color="#E30D7F"/>
<stop offset="0.526042" stop-color="#0B050F"/>
<stop offset="1" stop-color="#2A2962"/>
</linearGradient>
</defs>
</svg>
