<svg width="357" height="260" viewBox="0 0 357 260" fill="none" xmlns="http://www.w3.org/2000/svg">
<path d="M183.881 53.2368L92.1421 106.474L0 53.2368L92.1421 0L183.881 53.2368Z" fill="url(#paint0_linear_210_3307)"/>
<path d="M183.881 53.2368V157.828L92.1421 211.065V106.474L183.881 53.2368Z" fill="url(#paint1_linear_210_3307)"/>
<path d="M92.142 106.474V211.065L0 157.828V53.2368L92.142 106.474Z" fill="url(#paint2_linear_210_3307)"/>
<path d="M133.841 44.6328L92.0076 68.8313L49.9048 44.6328L92.0076 20.2998L133.841 44.6328Z" fill="url(#paint3_linear_210_3307)"/>
<path d="M133.842 44.6328V51.0858L92.0078 75.4188V68.8314L133.842 44.6328Z" fill="url(#paint4_linear_210_3307)"/>
<path d="M92.0077 68.8314V75.4188L49.9048 51.0858V44.6328L92.0077 68.8314Z" fill="url(#paint5_linear_210_3307)"/>
<path d="M123.887 125.832L121.332 124.354L122.273 122.875L124.829 124.354L123.887 125.832Z" fill="white"/>
<path d="M348.391 255.564L343.279 252.606L344.221 250.993L349.333 253.95L348.391 255.564ZM338.168 249.648L333.056 246.691L333.998 245.078L339.11 248.035L338.168 249.648ZM327.541 243.733L322.564 240.776L323.371 239.162L328.483 242.12L327.541 243.733ZM317.453 237.818L312.341 234.86L314.09 234.054L319.201 237.011L317.453 237.818ZM307.23 231.903L302.118 228.945L302.925 227.466L308.037 230.424L307.23 231.903ZM297.007 225.988L291.895 223.03L292.837 221.551L297.948 224.509L297.007 225.988ZM287.187 220.61L282.076 217.653L283.017 216.039L288.129 218.997L287.187 220.61ZM276.964 214.695L271.853 211.737L272.794 210.124L277.906 213.082L276.964 214.695ZM266.741 208.78L261.764 205.822L262.571 204.209L267.683 207.167L266.741 208.78ZM256.653 202.865L251.541 199.907L252.348 198.428L257.46 201.386L256.653 202.865ZM246.833 196.546L241.318 193.723L242.26 192.244L247.237 195.202L246.833 196.546ZM236.61 190.631L231.498 187.673L232.44 186.194L237.552 189.152L236.61 190.631ZM226.387 184.85L221.275 181.893L222.217 180.279L227.329 183.237L226.387 184.85ZM216.164 178.935L211.052 175.977L211.994 174.364L217.105 177.322L216.164 178.935ZM205.941 173.02L200.829 170.062L201.771 168.449L206.882 171.406L205.941 173.02ZM195.449 166.836L190.337 163.878L191.144 162.399L196.256 165.222L195.449 166.836ZM185.226 160.92L179.576 158.232L180.383 156.753L185.495 159.71L185.226 160.92ZM175.003 155.005L169.891 152.048L170.833 150.569L175.944 153.526L175.003 155.005ZM164.78 149.224L159.668 146.267L160.61 144.654L165.721 147.611L164.78 149.224ZM154.556 143.309L149.445 140.352L150.387 138.738L155.498 141.696L154.556 143.309ZM144.333 137.394L139.222 134.705L140.163 133.092L145.275 136.05L144.333 137.394ZM134.11 131.479L129.133 128.521L129.94 127.042L135.052 129.866L134.11 131.479Z" fill="white"/>
<path d="M354.238 256.952L353.366 258.467L355.931 259.942L356.803 258.427L354.238 256.952Z" fill="white"/>
<defs>
<linearGradient id="paint0_linear_210_3307" x1="91.873" y1="102.037" x2="91.873" y2="-25.4085" gradientUnits="userSpaceOnUse">
<stop stop-color="#F3E5FF"/>
<stop offset="1" stop-color="#DEAFFF"/>
</linearGradient>
<linearGradient id="paint1_linear_210_3307" x1="233.92" y1="-0.403298" x2="69.6682" y2="226.75" gradientUnits="userSpaceOnUse">
<stop stop-color="#E9CCFF"/>
<stop offset="0.43" stop-color="#DEB0FF"/>
<stop offset="0.57" stop-color="#D596FF"/>
<stop offset="0.72" stop-color="#CE81FF"/>
<stop offset="0.86" stop-color="#C974FF"/>
<stop offset="1" stop-color="#C870FF"/>
</linearGradient>
<linearGradient id="paint2_linear_210_3307" x1="163.434" y1="-21.5098" x2="44.7451" y2="133.965" gradientUnits="userSpaceOnUse">
<stop stop-color="#D58CFF"/>
<stop offset="1" stop-color="#9948FF"/>
</linearGradient>
<linearGradient id="paint3_linear_210_3307" x1="91.8731" y1="28.6349" x2="91.8731" y2="-27.4251" gradientUnits="userSpaceOnUse">
<stop stop-color="#F3E5FF"/>
<stop offset="1" stop-color="#DEAFFF"/>
</linearGradient>
<linearGradient id="paint4_linear_210_3307" x1="149.983" y1="35.76" x2="63.9242" y2="92.1343" gradientUnits="userSpaceOnUse">
<stop stop-color="#E9CCFF"/>
<stop offset="0.43" stop-color="#DEB0FF"/>
<stop offset="0.57" stop-color="#D596FF"/>
<stop offset="0.72" stop-color="#CE81FF"/>
<stop offset="0.86" stop-color="#C974FF"/>
<stop offset="1" stop-color="#C870FF"/>
</linearGradient>
<linearGradient id="paint5_linear_210_3307" x1="84.8784" y1="41.9441" x2="70.8991" y2="60.2352" gradientUnits="userSpaceOnUse">
<stop stop-color="#D58CFF"/>
<stop offset="1" stop-color="#9948FF"/>
</linearGradient>
</defs>
</svg>
