<svg width="49" height="48" viewBox="0 0 49 48" fill="none" xmlns="http://www.w3.org/2000/svg">
<rect x="7" y="6" width="42" height="42" rx="21" fill="#E0E0E0"/>
<rect width="42" height="42" rx="21" fill="url(#paint0_linear_368_722)"/>
<path d="M24.1886 30.0008C23.6104 30.0008 23.024 29.8624 22.4946 29.5938C21.5907 29.1379 20.9066 28.3564 20.5889 27.3958C20.3691 26.7446 20.3365 26.0527 20.4749 25.3933L15.6618 22.9837C14.7497 24.0338 13.3245 24.5141 11.9237 24.1885C10.1972 23.7814 9 22.2592 9 20.4927C9 18.7262 10.1972 17.2039 11.9156 16.7969C13.3245 16.4631 14.7497 16.9515 15.6537 18.0017L20.4668 15.5921C20.3283 14.9327 20.3609 14.2489 20.5808 13.5976C20.8984 12.6371 21.5744 11.8556 22.4865 11.3997C24.3678 10.4635 26.6481 11.2287 27.5847 13.1011C28.0407 14.0047 28.114 15.0385 27.7883 15.9991C27.4706 16.9597 26.7947 17.7412 25.8826 18.197C24.9704 18.6529 23.9443 18.7262 22.9833 18.4006C22.3318 18.1808 21.7617 17.7982 21.3138 17.2934L16.4925 19.703C16.5495 19.9635 16.5739 20.2322 16.5739 20.5008C16.5739 20.7694 16.5495 21.0381 16.4925 21.2986L21.3138 23.7082C22.4213 22.4301 24.3026 22.015 25.8826 22.8046C27.7557 23.7407 28.5212 26.0282 27.5847 27.9006C27.1286 28.8123 26.3468 29.488 25.3858 29.8054C24.9867 29.9357 24.5877 30.0008 24.1805 30.0008H24.1886ZM24.1886 24.2943C23.985 24.2943 23.7814 24.3269 23.5859 24.392C23.1054 24.5548 22.7145 24.8886 22.4865 25.3444C22.2585 25.8003 22.2259 26.3132 22.3806 26.7934C22.5435 27.2737 22.8774 27.6645 23.3335 27.8924C23.7895 28.1203 24.3026 28.1529 24.7831 27.9982C25.2636 27.8354 25.6545 27.5017 25.8826 27.0458C26.3468 26.1096 25.9721 24.9618 25.0274 24.4978C24.7587 24.3676 24.4736 24.2943 24.1805 24.2943H24.1886ZM12.7951 18.5959C12.6485 18.5959 12.5019 18.6122 12.3553 18.6448C11.4921 18.8483 10.8894 19.6054 10.8894 20.4927C10.8894 21.38 11.4921 22.1371 12.3553 22.3406C13.2186 22.5441 14.0982 22.1371 14.4891 21.3393C14.6194 21.0706 14.6927 20.7857 14.6927 20.4927C14.6927 20.1996 14.6275 19.9066 14.4972 19.6461C14.1715 18.9867 13.5118 18.5959 12.8033 18.5959H12.7951ZM22.4946 15.6491C22.7227 16.1049 23.1136 16.4387 23.5941 16.6015C24.0746 16.7643 24.5877 16.7236 25.0437 16.4957C25.4998 16.2677 25.8337 15.877 25.9966 15.3967C26.1595 14.9164 26.1187 14.4036 25.8907 13.9477C25.4183 13.0115 24.2782 12.6289 23.3416 13.1011C22.8856 13.329 22.5517 13.7197 22.3888 14.2C22.2259 14.6803 22.2666 15.1932 22.4946 15.6491Z" fill="#EEF1FA"/>
<defs>
<linearGradient id="paint0_linear_368_722" x1="-7.68056" y1="49.6242" x2="51.9539" y2="32.1066" gradientUnits="userSpaceOnUse">
<stop stop-color="#E30D7F"/>
<stop offset="0.526042" stop-color="#0B050F"/>
<stop offset="1" stop-color="#2A2962"/>
</linearGradient>
</defs>
</svg>
