<svg width="49" height="48" viewBox="0 0 49 48" fill="none" xmlns="http://www.w3.org/2000/svg">
<rect x="7" y="6" width="42" height="42" rx="21" fill="#E0E0E0"/>
<rect width="42" height="42" rx="21" fill="url(#paint0_linear_507_748)"/>
<path d="M28.83 29.67H17.17C15.24 29.67 13.67 28.1 13.67 26.17V25H12.5C10.57 25 9 23.43 9 21.5V14.5C9 12.57 10.57 11 12.5 11H24.17C26.1 11 27.67 12.57 27.67 14.5V15.67H28.84C30.77 15.67 32.34 17.24 32.34 19.17V26.17C32.34 28.1 30.77 29.67 28.84 29.67H28.83ZM17.17 18C16.53 18 16 18.52 16 19.17V26.17C16 26.81 16.52 27.34 17.17 27.34H28.84C29.48 27.34 30.01 26.82 30.01 26.17V19.17C30.01 18.53 29.49 18 28.84 18H17.17ZM12.5 13.33C11.86 13.33 11.33 13.85 11.33 14.5V21.5C11.33 22.14 11.85 22.67 12.5 22.67H13.67V19.17C13.67 17.24 15.24 15.67 17.17 15.67H25.34V14.5C25.34 13.86 24.82 13.33 24.17 13.33H12.5ZM23 26.17C21.07 26.17 19.5 24.6 19.5 22.67C19.5 20.74 21.07 19.17 23 19.17C24.93 19.17 26.5 20.74 26.5 22.67C26.5 24.6 24.93 26.17 23 26.17ZM23 21.5C22.36 21.5 21.83 22.02 21.83 22.67C21.83 23.32 22.35 23.84 23 23.84C23.65 23.84 24.17 23.32 24.17 22.67C24.17 22.02 23.65 21.5 23 21.5Z" fill="white"/>
<defs>
<linearGradient id="paint0_linear_507_748" x1="-7.68056" y1="49.6242" x2="51.9539" y2="32.1066" gradientUnits="userSpaceOnUse">
<stop stop-color="#E30D7F"/>
<stop offset="0.526042" stop-color="#0B050F"/>
<stop offset="1" stop-color="#2A2962"/>
</linearGradient>
</defs>
</svg>
