<svg width="49" height="48" viewBox="0 0 49 48" fill="none" xmlns="http://www.w3.org/2000/svg">
<rect x="7" y="6" width="42" height="42" rx="21" fill="#E0E0E0"/>
<rect width="42" height="42" rx="21" fill="url(#paint0_linear_507_683)"/>
<path d="M20.671 29.9999C20.5583 29.9999 20.4377 29.9999 20.325 29.9999C15.4417 29.8149 11.4675 25.8407 11.2825 20.9574C11.1055 16.0741 14.774 11.8264 19.6251 11.2793C19.8906 11.2552 20.1561 11.3357 20.3572 11.5126C20.5583 11.6896 20.671 11.9471 20.671 12.2126V20.6115H29.0699C29.3354 20.6115 29.5928 20.7241 29.7698 20.9252C29.9468 21.1264 30.0353 21.3918 30.0031 21.6573C29.4721 26.3958 25.4094 29.9999 20.671 29.9999ZM18.7884 13.3388C15.4417 14.2157 13.0363 17.3452 13.165 20.8931C13.3098 24.8029 16.4876 27.9726 20.3894 28.1174C23.9372 28.2461 27.0667 25.8407 27.9356 22.494H19.7297C19.2148 22.494 18.7884 22.0757 18.7884 21.5527V13.3388Z" fill="white"/>
<path d="M28.6354 18.7368H23.4867C22.9718 18.7368 22.5454 18.3184 22.5454 17.7955V12.6467C22.5454 12.341 22.6902 12.0595 22.9396 11.8825C23.189 11.7055 23.5028 11.6653 23.7924 11.7618C26.4794 12.7111 28.563 14.8028 29.5123 17.4818C29.6169 17.7714 29.5687 18.0851 29.3917 18.3345C29.2147 18.5839 28.9331 18.7287 28.6274 18.7287L28.6354 18.7368ZM24.4199 16.8623H27.1713C26.5116 15.7199 25.5623 14.7706 24.4199 14.1109V16.8623Z" fill="white"/>
<defs>
<linearGradient id="paint0_linear_507_683" x1="-7.68056" y1="49.6242" x2="51.9539" y2="32.1066" gradientUnits="userSpaceOnUse">
<stop stop-color="#E30D7F"/>
<stop offset="0.526042" stop-color="#0B050F"/>
<stop offset="1" stop-color="#2A2962"/>
</linearGradient>
</defs>
</svg>
