<svg width="226" height="165" viewBox="0 0 226 165" fill="none" xmlns="http://www.w3.org/2000/svg">
<g class="cube-line" clip-path="url(#clip0_210_3230)">
<path d="M109.594 33.7849L167.669 67.5698L226 33.7849L167.669 0L109.594 33.7849Z" fill="url(#paint0_linear_210_3230)"/>
<path d="M109.594 33.7847V100.16L167.669 133.945V67.5696L109.594 33.7847Z" fill="url(#paint1_linear_210_3230)"/>
<path d="M167.669 67.5696V133.945L226 100.16V33.7847L167.669 67.5696Z" fill="url(#paint2_linear_210_3230)"/>
<path d="M141.271 28.3249L167.754 43.6817L194.408 28.3249L167.754 12.8828L141.271 28.3249Z" fill="url(#paint3_linear_210_3230)"/>
<path d="M141.271 28.3247V32.4198L167.754 47.8619V43.6815L141.271 28.3247Z" fill="url(#paint4_linear_210_3230)"/>
<path d="M167.754 43.6815V47.8619L194.408 32.4198V28.3247L167.754 43.6815Z" fill="url(#paint5_linear_210_3230)"/>
<path d="M147.573 79.8555L149.19 78.917L148.594 77.9785L146.976 78.917L147.573 79.8555Z" fill="white"/>
<path d="M5.44965 162.185L8.68555 160.308L8.08948 159.284L4.85356 161.161L5.44965 162.185ZM11.9214 158.431L15.1572 156.554L14.5612 155.53L11.3253 157.407L11.9214 158.431ZM18.6486 154.677L21.7994 152.8L21.2884 151.776L18.0525 153.653L18.6486 154.677ZM25.0352 150.923L28.271 149.046L27.1641 148.534L23.9282 150.411L25.0352 150.923ZM31.507 147.169L34.7428 145.292L34.2319 144.354L30.996 146.231L31.507 147.169ZM37.9787 143.415L41.2146 141.538L40.6185 140.6L37.3826 142.477L37.9787 143.415ZM44.195 140.003L47.4308 138.126L46.8347 137.102L43.5989 138.979L44.195 140.003ZM50.6667 136.249L53.9026 134.372L53.3065 133.348L50.0706 135.225L50.6667 136.249ZM57.1384 132.495L60.2891 130.618L59.7782 129.594L56.5423 131.471L57.1384 132.495ZM63.525 128.741L66.7609 126.864L66.2499 125.926L63.0141 127.802L63.525 128.741ZM69.7413 124.731L73.2327 122.939L72.6365 122.001L69.4858 123.878L69.7413 124.731ZM76.2131 120.977L79.4489 119.1L78.8528 118.162L75.617 120.039L76.2131 120.977ZM82.6847 117.309L85.9207 115.432L85.3246 114.408L82.0887 116.285L82.6847 117.309ZM89.1565 113.555L92.3924 111.678L91.7963 110.654L88.5604 112.531L89.1565 113.555ZM95.6283 109.801L98.8641 107.924L98.268 106.9L95.0322 108.777L95.6283 109.801ZM102.27 105.876L105.506 103.999L104.995 103.061L101.759 104.853L102.27 105.876ZM108.742 102.123L112.319 100.416L111.808 99.4777L108.572 101.355L108.742 102.123ZM115.214 98.3686L118.45 96.4917L117.854 95.5532L114.618 97.4302L115.214 98.3686ZM121.686 94.7001L124.921 92.8231L124.325 91.7994L121.089 93.6763L121.686 94.7001ZM128.157 90.9462L131.393 89.0693L130.797 88.0455L127.561 89.9224L128.157 90.9462ZM134.629 87.1923L137.865 85.486L137.269 84.4622L134.033 86.3392L134.629 87.1923ZM141.101 83.4385L144.251 81.5615L143.741 80.623L140.505 82.4147L141.101 83.4385Z" fill="white"/>
<path d="M1.7481 163.066L2.30029 164.027L0.676581 164.964L0.124391 164.002L1.7481 163.066Z" fill="white"/>
<g opacity="0.4">
</g>
</g>
<defs class="cube-body">
<linearGradient id="paint0_linear_210_3230" x1="167.839" y1="64.7544" x2="167.839" y2="-16.1246" gradientUnits="userSpaceOnUse">
<stop stop-color="#F3E5FF"/>
<stop offset="1" stop-color="#DEAFFF"/>
</linearGradient>
<linearGradient id="paint1_linear_210_3230" x1="77.9161" y1="-0.256178" x2="182.233" y2="143.654" gradientUnits="userSpaceOnUse">
<stop stop-color="#E9CCFF"/>
<stop offset="0.43" stop-color="#DEB0FF"/>
<stop offset="0.57" stop-color="#D596FF"/>
<stop offset="0.72" stop-color="#CE81FF"/>
<stop offset="0.86" stop-color="#C974FF"/>
<stop offset="1" stop-color="#C870FF"/>
</linearGradient>
<linearGradient id="paint2_linear_210_3230" x1="122.537" y1="-13.6507" x2="197.908" y2="84.8366" gradientUnits="userSpaceOnUse">
<stop stop-color="#D58CFF"/>
<stop offset="1" stop-color="#9948FF"/>
</linearGradient>
<linearGradient id="paint3_linear_210_3230" x1="167.84" y1="18.1724" x2="167.84" y2="-17.4042" gradientUnits="userSpaceOnUse">
<stop stop-color="#F3E5FF"/>
<stop offset="1" stop-color="#DEAFFF"/>
</linearGradient>
<linearGradient id="paint4_linear_210_3230" x1="131.053" y1="22.6939" x2="185.613" y2="58.3466" gradientUnits="userSpaceOnUse">
<stop stop-color="#E9CCFF"/>
<stop offset="0.43" stop-color="#DEB0FF"/>
<stop offset="0.57" stop-color="#D596FF"/>
<stop offset="0.72" stop-color="#CE81FF"/>
<stop offset="0.86" stop-color="#C974FF"/>
<stop offset="1" stop-color="#C870FF"/>
</linearGradient>
<linearGradient id="paint5_linear_210_3230" x1="172.268" y1="26.6184" x2="181.145" y2="38.2051" gradientUnits="userSpaceOnUse">
<stop stop-color="#D58CFF"/>
<stop offset="1" stop-color="#9948FF"/>
</linearGradient>
<clipPath id="clip0_210_3230">
<rect width="226" height="165" fill="white" transform="matrix(-1 0 0 1 226 0)"/>
</clipPath>
</defs>
</svg>
