<svg width="49" height="48" viewBox="0 0 49 48" fill="none" xmlns="http://www.w3.org/2000/svg">
<rect x="7" y="6" width="42" height="42" rx="21" fill="#E0E0E0"/>
<rect width="42" height="42" rx="21" fill="url(#paint0_linear_507_629)"/>
<path d="M20.5 30C20.4271 30 20.3543 29.9919 20.2814 29.9756C20.2005 29.9593 20.1276 29.9267 20.0548 29.8941L18.1848 28.9494C17.7152 28.7132 17.529 28.1432 17.7638 27.6708C17.9986 27.1985 18.5652 27.0111 19.0267 27.2473L19.5448 27.5079V26.6691C19.5448 26.1479 19.9657 25.7162 20.4919 25.7162C21.0181 25.7162 21.439 26.1397 21.439 26.6691V27.5079L21.9571 27.2473C22.4186 27.0111 22.9933 27.2066 23.22 27.6708C23.4548 28.1432 23.2686 28.7132 22.799 28.9494L20.929 29.8941C20.8562 29.9348 20.7833 29.9593 20.7024 29.9756C20.6295 29.9919 20.5567 30 20.4919 30H20.5ZM26.1667 27.1496C25.8186 27.1496 25.4867 26.9541 25.3248 26.6202C25.09 26.1479 25.2762 25.5778 25.7457 25.3416L27.1138 24.6575V22.8658C27.1138 22.3446 27.5348 21.913 28.061 21.913C28.5871 21.913 29.0081 22.3365 29.0081 22.8658V25.2439C29.0081 25.6022 28.8057 25.9361 28.4819 26.0909L26.5957 27.0437C26.4581 27.1089 26.3205 27.1414 26.1748 27.1414L26.1667 27.1496ZM14.8333 27.1496C14.6876 27.1496 14.55 27.117 14.4124 27.0519L12.5262 26.099C12.2024 25.9361 12 25.6104 12 25.252V22.874C12 22.3528 12.421 21.9211 12.9471 21.9211C13.4733 21.9211 13.8943 22.3446 13.8943 22.874V24.6657L15.2624 25.3498C15.7319 25.5859 15.9181 26.156 15.6833 26.6284C15.5214 26.9623 15.1814 27.1577 14.8414 27.1577L14.8333 27.1496ZM20.5 22.874C19.9819 22.874 19.5529 22.4505 19.5529 21.9211V20.1294L18.1848 19.4453C17.7152 19.2092 17.529 18.6391 17.7638 18.1749C17.9986 17.7025 18.5652 17.5152 19.0348 17.7514L20.5 18.4925L21.9652 17.7514C22.4348 17.5152 23.0014 17.7107 23.2362 18.1749C23.471 18.6391 23.2767 19.2173 22.8152 19.4453L21.4471 20.1294V21.9211C21.4471 22.4423 21.0262 22.874 20.5 22.874ZM28.0529 19.0707C27.5348 19.0707 27.1057 18.6472 27.1057 18.1179V17.279L26.5876 17.5396C26.1181 17.7758 25.5514 17.5804 25.3167 17.1162C25.0819 16.6438 25.2762 16.0737 25.7376 15.8457L25.94 15.748L25.7376 15.6502C25.2681 15.4141 25.0819 14.844 25.3167 14.3716C25.5514 13.8993 26.1181 13.712 26.5795 13.9481L28.4495 14.8928C28.4495 14.8928 28.5143 14.9254 28.5386 14.9417C28.6033 14.9824 28.66 15.0231 28.7086 15.0802C28.7571 15.1372 28.8057 15.1942 28.8462 15.2512C28.8948 15.3326 28.9352 15.4303 28.9595 15.5281C28.9757 15.6014 28.9838 15.6747 28.9838 15.748V18.126C28.9838 18.6472 28.5629 19.0789 28.0367 19.0789L28.0529 19.0707ZM12.9471 19.0789C12.429 19.0789 12 18.6554 12 18.126V15.748C12 15.6747 12.0081 15.6014 12.0243 15.5281C12.0486 15.4303 12.089 15.3326 12.1376 15.2512C12.1781 15.1779 12.2348 15.1127 12.2995 15.0557C12.34 15.015 12.3886 14.9743 12.4452 14.9417C12.4776 14.9254 12.51 14.901 12.5424 14.8847L14.4124 13.94C14.8738 13.7038 15.4486 13.8993 15.6752 14.3635C15.91 14.8358 15.7238 15.4059 15.2543 15.6421L15.0519 15.7398L15.2543 15.8375C15.7238 16.0737 15.91 16.6438 15.6752 17.108C15.4405 17.5804 14.8738 17.7677 14.4043 17.5315L13.8862 17.2709V18.1097C13.8862 18.6309 13.4652 19.0626 12.939 19.0626L12.9471 19.0789ZM22.3862 13.8504C22.2405 13.8504 22.1029 13.8178 21.9652 13.7527L20.5 13.0116L19.0348 13.7527C18.5733 13.9889 17.9986 13.8015 17.7719 13.3292C17.5371 12.8568 17.7233 12.2868 18.1929 12.0506L20.079 11.0977C20.3462 10.9674 20.6538 10.9674 20.921 11.0977L22.8071 12.0506C23.2767 12.2868 23.4629 12.8568 23.2281 13.3292C23.0662 13.6631 22.7262 13.8586 22.3862 13.8586V13.8504Z" fill="white"/>
<defs>
<linearGradient id="paint0_linear_507_629" x1="-7.68056" y1="49.6242" x2="51.9539" y2="32.1066" gradientUnits="userSpaceOnUse">
<stop stop-color="#E30D7F"/>
<stop offset="0.526042" stop-color="#0B050F"/>
<stop offset="1" stop-color="#2A2962"/>
</linearGradient>
</defs>
</svg>
