<svg width="49" height="48" viewBox="0 0 49 48" fill="none" xmlns="http://www.w3.org/2000/svg">
<rect x="7" y="6" width="42" height="42" rx="21" fill="#E0E0E0"/>
<rect width="42" height="42" rx="21" fill="url(#paint0_linear_368_395)"/>
<path d="M21.5486 31C21.0986 31 20.6935 30.712 20.5495 30.2799L18.3082 23.5559L12.7724 21.4856C12.3583 21.3326 12.0883 20.9366 12.0883 20.5045C12.0883 20.0724 12.3583 19.6764 12.7724 19.5234L18.3082 17.4531L20.5585 10.7201C20.7025 10.288 21.0986 10 21.5577 10C22.0167 10 22.4128 10.288 22.5568 10.7201L24.7981 17.4441L30.3339 19.5144C30.748 19.6674 31.018 20.0634 31.018 20.4955C31.018 20.9276 30.748 21.3236 30.3339 21.4766L24.7981 23.5469L22.5568 30.2709C22.4128 30.703 22.0167 30.991 21.5577 30.991L21.5486 31ZM16.1389 20.5045L19.5144 21.7737C19.8114 21.8817 20.0454 22.1247 20.1445 22.4218L21.5486 26.6344L22.9529 22.4218C23.0519 22.1247 23.2859 21.8817 23.5829 21.7737L26.9584 20.5045L23.5829 19.2353C23.2859 19.1273 23.0609 18.8843 22.9529 18.5872L21.5486 14.3746L20.1445 18.5872C20.0454 18.8843 19.8114 19.1273 19.5144 19.2353L16.1389 20.5045ZM14.1946 31.009C13.6185 31.009 13.1414 30.5409 13.1414 29.9559V28.9027H12.0883C11.5122 28.9027 11.0351 28.4346 11.0351 27.8496C11.0351 27.2645 11.5032 26.7964 12.0883 26.7964H13.1414V25.7432C13.1414 25.1672 13.6095 24.6901 14.1946 24.6901C14.7797 24.6901 15.2477 25.1582 15.2477 25.7432V26.7964H16.3009C16.877 26.7964 17.3541 27.2645 17.3541 27.8496C17.3541 28.4346 16.886 28.9027 16.3009 28.9027H15.2477V29.9559C15.2477 30.5319 14.7797 31.009 14.1946 31.009ZM13.1505 16.3009C12.5744 16.3009 12.0973 15.8328 12.0973 15.2477V14.1946H11.0532C10.4771 14.1946 10 13.7265 10 13.1414C10 12.5564 10.4681 12.0883 11.0532 12.0883H12.1063V11.0532C12.1063 10.4771 12.5744 10 13.1595 10C13.7445 10 14.2126 10.4681 14.2126 11.0532V12.1063H15.2658C15.8418 12.1063 16.3189 12.5744 16.3189 13.1595C16.3189 13.7445 15.8508 14.2126 15.2658 14.2126H14.2126V15.2658C14.2126 15.8418 13.7445 16.3189 13.1595 16.3189L13.1505 16.3009Z" fill="#EEF1FA"/>
<defs>
<linearGradient id="paint0_linear_368_395" x1="-7.68056" y1="49.6242" x2="51.9539" y2="32.1066" gradientUnits="userSpaceOnUse">
<stop stop-color="#E30D7F"/>
<stop offset="0.526042" stop-color="#0B050F"/>
<stop offset="1" stop-color="#2A2962"/>
</linearGradient>
</defs>
</svg>
