<svg width="920" height="613" viewBox="0 0 920 613" fill="none" xmlns="http://www.w3.org/2000/svg">
  <g class="planet-body" clip-path="url(#clip0_491_625)">
    <path
      d="M790.407 308.064C790.407 313.055 790.151 317.662 789.895 322.654C789.767 327.645 789.383 332.252 788.998 336.987C788.486 341.338 788.101 345.818 787.333 350.297C786.564 354.904 785.667 359.639 785.027 364.246C758.765 492.737 644.752 590 507.936 590C455.285 590 405.836 575.538 363.69 550.455C368.046 547.639 382.393 538.937 386.877 536.121C395.46 530.746 404.427 525.115 413.138 519.74C430.433 508.478 447.727 497.344 465.021 485.826C482.059 474.436 499.225 462.918 516.263 451.016C533.173 439.37 549.954 427.468 566.864 415.182C583.518 403.024 600.044 390.61 616.569 378.196C629.251 368.47 641.934 358.103 654.232 347.993C655.257 347.481 656.282 346.969 657.306 346.329C698.812 322.781 730.582 304.353 744.93 295.522C746.467 294.626 747.877 293.73 749.286 292.835C758.766 287.076 768.886 280.805 768.886 280.805C774.266 277.477 779.647 274.278 785.027 270.694C785.027 270.694 785.539 270.31 786.052 269.926C786.564 269.671 786.82 269.415 787.333 269.159C787.333 269.926 787.717 271.334 787.845 272.87L788.87 282.34C789.126 285.54 789.383 288.739 789.639 291.811C789.639 292.323 789.639 292.835 789.639 293.474C789.895 298.082 790.151 303.073 790.151 307.936L790.407 308.064Z"
      fill="#2A295E"/>
    <path
      d="M1016 59.7863C1016 63.2417 1014.98 66.953 1013.95 70.2805C1011 79.4949 1005.37 88.4534 999.731 96.516C997.425 99.7155 994.735 102.915 992.301 105.986C989.739 109.186 987.048 112.257 984.358 115.329C978.85 121.6 973.085 127.615 967.064 133.502C961.171 139.261 955.15 144.892 949.129 150.523C942.98 156.026 936.831 161.529 930.298 166.648C927.095 169.08 924.149 171.895 921.074 174.455C918 177.014 914.797 179.446 911.595 181.877C909.929 183.285 908.264 184.565 906.598 185.973C904.933 187.125 903.396 188.532 901.73 189.684C898.272 192.5 894.941 195.059 891.354 197.875C887.383 201.074 883.155 203.89 879.056 206.833C874.957 209.905 870.729 212.976 866.502 216.048C863.043 218.479 859.84 221.039 856.381 223.342C855.356 223.982 854.46 224.622 853.563 225.262C852.794 225.774 851.898 226.286 851.001 226.926C846.005 230.381 841.009 233.965 836.013 237.292C832.554 239.852 828.967 242.155 825.38 244.587C822.177 246.89 818.847 248.938 815.516 251.114C811.545 253.929 807.317 256.745 802.962 259.56C800.656 260.968 798.478 262.632 795.916 264.039C795.788 264.039 795.531 264.167 795.403 264.295C794.891 264.551 794.635 264.807 794.25 265.063L792.585 266.087C791.816 266.599 791.048 267.111 790.92 267.239C789.767 268.007 788.229 269.031 786.18 270.31C785.283 270.822 785.667 270.694 782.849 272.486C781.184 273.51 781.056 273.638 780.287 274.022C779.134 274.79 778.237 275.302 776.956 276.069C775.803 276.709 774.778 277.477 773.626 278.117C772.473 278.757 771.448 279.525 770.295 280.165L768.886 281.061C768.886 281.061 758.765 287.332 749.286 293.091C747.876 293.986 746.467 294.882 744.93 295.778C730.582 304.609 698.812 323.037 657.306 346.585C656.281 347.097 655.385 347.609 654.232 348.249C622.334 365.91 588.77 383.571 554.054 401.104C510.498 423.372 467.327 443.593 425.949 462.15C401.993 472.772 378.55 482.498 356.132 491.713C340.503 498.24 325.515 504.383 310.526 509.758C308.22 510.654 305.53 511.549 303.224 512.573C301.559 513.341 300.022 513.981 298.228 514.621C225.208 542.008 148.217 569.396 70.2015 576.69C54.0603 578.354 -2.17776 583.729 2.21177e-05 555.83C3.20264 514.621 95.3101 431.563 225.465 347.097L228.027 345.434C229.948 361.303 233.407 376.66 238.147 391.634C237.763 391.89 237.378 392.146 236.994 392.402C234.176 394.449 231.486 396.497 228.795 398.801C226.105 401.104 223.543 403.536 220.981 406.095C216.241 410.575 211.629 415.31 207.274 420.173C203.687 424.268 200.228 428.491 197.025 432.971C194.591 436.554 192.285 440.393 190.62 444.361C189.211 447.56 188.314 450.76 188.058 454.215C188.058 456.903 188.442 459.59 189.595 462.022C190.748 464.197 192.414 466.245 194.848 467.653C195.616 468.165 196.257 468.549 197.153 469.061C197.922 469.445 198.819 469.828 199.716 470.084C200.74 470.468 201.637 470.852 202.662 471.108C203.687 471.364 204.84 471.62 205.865 471.876C207.018 472.132 208.171 472.388 209.323 472.516C210.604 472.644 211.886 472.9 213.167 473.028C214.576 473.028 215.985 473.156 217.266 473.156C218.803 473.156 220.212 473.156 221.75 473.156C223.287 473.156 224.952 473.156 226.361 473.156C228.027 473.156 229.692 473.028 231.357 472.9C233.023 472.9 234.816 472.644 236.61 472.388C238.531 472.26 240.325 471.876 242.118 471.748C244.04 471.492 245.961 471.236 248.011 470.98C249.933 470.724 252.11 470.34 254.032 469.956C256.21 469.572 258.26 469.189 260.309 468.805L263.256 468.293C265.561 467.781 265.946 467.781 269.148 467.013C270.686 466.629 272.095 466.245 273.632 465.989C287.852 462.79 302.071 458.822 316.035 454.727C327.052 451.528 337.813 447.816 348.702 444.105C350.751 443.337 352.801 442.697 354.979 441.929C358.181 440.777 361.384 439.626 364.458 438.474C367.789 437.322 370.992 436.17 374.194 434.89C377.525 433.611 380.856 432.459 384.059 431.179C387.517 429.771 390.848 428.619 394.179 427.212C396.997 426.06 400.072 424.908 403.018 423.756C444.268 407.375 488.976 387.283 535.094 364.118C615.672 323.421 686.386 280.677 736.988 242.923C742.496 239.084 747.876 234.988 753.257 230.893C754.538 229.997 755.819 228.973 757.1 228.078C760.815 225.262 764.53 221.935 768.117 218.863C772.088 215.536 775.931 212.08 779.646 208.753C786.692 202.354 793.61 195.699 800.015 188.66C805.139 183.157 810.007 177.142 813.979 170.743C816.797 166.136 819.487 161.145 820.64 155.77C821.152 153.338 821.409 150.907 821.024 148.475C820.768 147.067 820.256 145.66 819.871 144.508C812.826 130.686 782.977 129.918 738.397 140.029C737.628 140.157 736.347 140.541 735.066 140.668C725.842 128.511 715.85 117.12 705.089 106.37L704.833 106.114C706.242 105.602 707.908 105.091 708.548 104.707C708.548 104.707 876.238 43.533 976.544 38.4139C985.511 37.902 991.532 39.8217 997.553 41.2294C1003.06 42.7652 1009.21 45.1967 1012.8 50.0599C1014.98 52.8754 1015.62 56.2029 1015.62 59.7863H1016Z"
      fill="url(#paint0_linear_491_625)"/>
    <path
      d="M1016 59.7863C1016 63.2417 1014.98 66.953 1013.95 70.2805C1011 79.4949 1005.37 88.4534 999.731 96.516C997.425 99.7155 994.735 102.915 992.301 105.986C989.739 109.186 987.048 112.257 984.358 115.329C978.85 121.6 973.085 127.615 967.064 133.502C961.171 139.261 955.15 144.892 949.129 150.523C942.98 156.026 936.831 161.529 930.298 166.648C927.095 169.08 924.149 171.895 921.074 174.455C918 177.014 914.797 179.446 911.595 181.877C909.929 183.285 908.264 184.565 906.598 185.973C904.933 187.125 903.396 188.532 901.73 189.684C898.272 192.5 894.941 195.059 891.354 197.875C887.383 201.074 883.155 203.89 879.056 206.833C874.957 209.905 870.729 212.976 866.502 216.048C863.043 218.479 859.84 221.039 856.381 223.342C855.356 223.982 854.46 224.622 853.563 225.262C852.794 225.774 851.898 226.286 851.001 226.926C846.005 230.381 841.009 233.965 836.013 237.292C832.554 239.852 828.967 242.155 825.38 244.587C822.177 246.89 818.847 248.938 815.516 251.114C811.545 253.929 807.317 256.745 802.962 259.56C800.656 260.968 798.478 262.632 795.916 264.039C795.788 264.039 795.531 264.167 795.403 264.295C794.891 264.551 794.635 264.807 794.25 265.063L792.585 266.087C791.816 266.599 791.048 267.111 790.92 267.239C789.767 268.007 788.229 269.031 786.18 270.31C785.283 270.822 785.667 270.694 782.849 272.486C781.184 273.51 781.056 273.638 780.287 274.022C779.134 274.79 778.237 275.302 776.956 276.069C775.803 276.709 774.778 277.477 773.626 278.117C772.473 278.757 771.448 279.525 770.295 280.165L768.886 281.061C768.886 281.061 758.765 287.332 749.286 293.091C747.876 293.986 746.467 294.882 744.93 295.778C730.582 304.609 698.812 323.037 657.306 346.585C656.281 347.097 655.385 347.609 654.232 348.249C622.334 365.91 588.77 383.571 554.054 401.104C510.498 423.372 467.327 443.593 425.949 462.15C401.993 472.772 378.55 482.498 356.132 491.713C340.503 498.24 325.515 504.383 310.526 509.758C308.22 510.654 305.53 511.549 303.224 512.573C301.559 513.341 300.022 513.981 298.228 514.621C225.208 542.008 148.217 569.396 70.2015 576.69C54.0603 578.354 -2.17776 583.729 2.21177e-05 555.83C3.20264 514.621 95.3101 431.563 225.465 347.097L228.027 345.434C229.948 361.303 233.407 376.66 238.147 391.634C237.763 391.89 237.378 392.146 236.994 392.402C234.176 394.449 231.486 396.497 228.795 398.801C226.105 401.104 223.543 403.536 220.981 406.095C216.241 410.575 211.629 415.31 207.274 420.173C203.687 424.268 200.228 428.491 197.025 432.971C194.591 436.554 192.285 440.393 190.62 444.361C189.211 447.56 188.314 450.76 188.058 454.215C188.058 456.903 188.442 459.59 189.595 462.022C190.748 464.197 192.414 466.245 194.848 467.653C195.616 468.165 196.257 468.549 197.153 469.061C197.922 469.445 198.819 469.828 199.716 470.084C200.74 470.468 201.637 470.852 202.662 471.108C203.687 471.364 204.84 471.62 205.865 471.876C207.018 472.132 208.171 472.388 209.323 472.516C210.604 472.644 211.886 472.9 213.167 473.028C214.576 473.028 215.985 473.156 217.266 473.156C218.803 473.156 220.212 473.156 221.75 473.156C223.287 473.156 224.952 473.156 226.361 473.156C228.027 473.156 229.692 473.028 231.357 472.9C233.023 472.9 234.816 472.644 236.61 472.388C238.531 472.26 240.325 471.876 242.118 471.748C244.04 471.492 245.961 471.236 248.011 470.98C249.933 470.724 252.11 470.34 254.032 469.956C256.21 469.572 258.26 469.189 260.309 468.805L263.256 468.293C265.561 467.781 265.946 467.781 269.148 467.013C270.686 466.629 272.095 466.245 273.632 465.989C287.852 462.79 302.071 458.822 316.035 454.727C327.052 451.528 337.813 447.816 348.702 444.105C350.751 443.337 352.801 442.697 354.979 441.929C358.181 440.777 361.384 439.626 364.458 438.474C367.789 437.322 370.992 436.17 374.194 434.89C377.525 433.611 380.856 432.459 384.059 431.179C387.517 429.771 390.848 428.619 394.179 427.212C396.997 426.06 400.072 424.908 403.018 423.756C444.268 407.375 488.976 387.283 535.094 364.118C615.672 323.421 686.386 280.677 736.988 242.923C742.496 239.084 747.876 234.988 753.257 230.893C754.538 229.997 755.819 228.973 757.1 228.078C760.815 225.262 764.53 221.935 768.117 218.863C772.088 215.536 775.931 212.08 779.646 208.753C786.692 202.354 793.61 195.699 800.015 188.66C805.139 183.157 810.007 177.142 813.979 170.743C816.797 166.136 819.487 161.145 820.64 155.77C821.152 153.338 821.409 150.907 821.024 148.475C820.768 147.067 820.256 145.66 819.871 144.508C812.826 130.686 782.977 129.918 738.397 140.029C737.628 140.157 736.347 140.541 735.066 140.668C725.842 128.511 715.85 117.12 705.089 106.37L704.833 106.114C706.242 105.602 707.908 105.091 708.548 104.707C708.548 104.707 876.238 43.533 976.544 38.4139C985.511 37.902 991.532 39.8217 997.553 41.2294C1003.06 42.7652 1009.21 45.1967 1012.8 50.0599C1014.98 52.8754 1015.62 56.2029 1015.62 59.7863H1016Z"
      fill="url(#paint1_radial_491_625)"/>
    <path
      d="M752.232 166.52L734.425 183.669C688.052 228.973 622.206 282.596 545.855 334.939C496.022 369.366 447.599 399.44 403.274 423.628C400.328 424.78 397.381 425.932 394.435 427.084C390.976 428.492 387.645 429.643 384.315 431.051C381.112 432.331 377.781 433.483 374.451 434.762C371.248 436.042 368.045 437.194 364.715 438.346C361.512 439.498 358.309 440.649 355.235 441.801C353.057 442.569 351.007 443.209 348.958 443.977C338.069 447.688 327.18 451.4 316.291 454.599C302.328 458.694 288.108 462.662 273.888 465.861C269.277 458.694 264.537 451.144 260.565 443.465C258.003 439.114 255.569 434.634 253.52 430.155C247.371 417.997 242.503 404.816 238.275 391.506C233.663 376.404 230.076 361.047 228.155 345.178C226.489 333.02 225.593 320.606 225.593 307.936C225.593 152.315 352.032 26 507.936 26C584.671 26 654.232 56.4588 705.089 105.986L705.346 106.242C716.106 116.993 726.227 128.383 735.322 140.541C741.471 149.115 746.98 157.69 752.232 166.52V166.52Z"
      fill="#2A295E"/>
    <path
      d="M752.232 166.52L734.425 183.669C688.052 228.973 622.206 282.596 545.855 334.939C496.022 369.366 447.599 399.44 403.274 423.628C400.328 424.78 397.381 425.932 394.435 427.084C390.976 428.492 387.645 429.643 384.315 431.051C381.112 432.331 377.781 433.483 374.451 434.762C371.248 436.042 368.045 437.194 364.715 438.346C361.512 439.498 358.309 440.649 355.235 441.801C353.057 442.569 351.007 443.209 348.958 443.977C338.069 447.688 327.18 451.4 316.291 454.599C302.328 458.694 288.108 462.662 273.888 465.861C269.277 458.694 264.537 451.144 260.565 443.465C258.003 439.114 255.569 434.634 253.52 430.155C247.371 417.997 242.503 404.816 238.275 391.506C233.663 376.404 230.076 361.047 228.155 345.178C226.489 333.02 225.593 320.606 225.593 307.936C225.593 152.315 352.032 26 507.936 26C584.671 26 654.232 56.4588 705.089 105.986L705.346 106.242C716.106 116.993 726.227 128.383 735.322 140.541C741.471 149.115 746.98 157.69 752.232 166.52V166.52Z"
      fill="url(#paint2_radial_491_625)"/>
    <path
      d="M752.232 166.52L734.425 183.669C688.052 228.973 622.206 282.596 545.855 334.939C496.022 369.366 447.599 399.44 403.274 423.628C400.328 424.78 397.381 425.932 394.435 427.084C390.976 428.492 387.645 429.643 384.315 431.051C381.112 432.331 377.781 433.483 374.451 434.762C371.248 436.042 368.045 437.194 364.715 438.346C361.512 439.498 358.309 440.649 355.235 441.801C353.057 442.569 351.007 443.209 348.958 443.977C338.069 447.688 327.18 451.4 316.291 454.599C302.328 458.694 288.108 462.662 273.888 465.861C269.277 458.694 264.537 451.144 260.565 443.465C258.003 439.114 255.569 434.634 253.52 430.155C247.371 417.997 242.503 404.816 238.275 391.506C233.663 376.404 230.076 361.047 228.155 345.178C226.489 333.02 225.593 320.606 225.593 307.936C225.593 152.315 352.032 26 507.936 26C584.671 26 654.232 56.4588 705.089 105.986L705.346 106.242C716.106 116.993 726.227 128.383 735.322 140.541C741.471 149.115 746.98 157.69 752.232 166.52V166.52Z"
      fill="url(#paint3_radial_491_625)"/>
    <path
      d="M790.407 308.064C790.407 313.055 790.151 317.662 789.895 322.654C789.767 327.645 789.383 332.252 788.998 336.987C788.486 341.338 788.101 345.818 787.333 350.297C786.564 354.904 785.667 359.639 785.027 364.246C758.765 492.737 644.752 590 507.936 590C455.285 590 405.836 575.538 363.69 550.455C368.046 547.639 382.393 538.937 386.877 536.121C395.46 530.746 404.427 525.115 413.138 519.74C430.433 508.478 447.727 497.344 465.021 485.826C482.059 474.436 499.225 462.918 516.263 451.016C533.173 439.37 549.954 427.468 566.864 415.182C583.518 403.024 600.044 390.61 616.569 378.196C629.251 368.47 641.934 358.103 654.232 347.993C655.257 347.481 656.282 346.969 657.306 346.329C698.812 322.781 730.582 304.353 744.93 295.522C746.467 294.626 747.877 293.73 749.286 292.835C758.766 287.076 768.886 280.805 768.886 280.805C774.266 277.477 779.647 274.278 785.027 270.694C785.027 270.694 785.539 270.31 786.052 269.926C786.564 269.671 786.82 269.415 787.333 269.159C787.333 269.926 787.717 271.334 787.845 272.87L788.87 282.34C789.126 285.54 789.383 288.739 789.639 291.811C789.639 292.323 789.639 292.835 789.639 293.474C789.895 298.082 790.151 303.073 790.151 307.936L790.407 308.064Z"
      fill="url(#paint4_radial_491_625)"/>
  </g>
  <path class="planet-mask" opacity="0.23"
        d="M797.208 237.586L796.98 236.725L796.878 236.294L758.415 143.936L758.567 144.062L758.01 142.795L758.061 142.694L757.934 142.567L757.655 141.832V141.908L744.581 118.742L744.429 118.54L744.378 118.489L739.285 112.203L736.903 109.289L736.853 109.213L733.989 105.892L728.542 99.7589L726.54 97.5792L725.07 96.0331L724.184 95.0953L719.75 90.5332L719.699 90.4825L719.623 90.4065L718.305 89.0885L716.785 87.5932L715.113 85.9711L711.616 82.6762L709.944 81.1301L707.157 78.5956L705.89 77.4551L705.636 77.227L700.797 73.0196L697.477 70.2317L697.325 70.1049L693.018 66.6326L690.104 64.3769L687.216 62.1465L687.165 62.0958L687.013 61.9945L683.314 59.2572L677.891 55.3794L676.498 54.3909L674.243 52.8448L671.734 51.172L670.949 50.6651L665.349 47.0408L659.521 43.4671L653.668 40.0455L649.589 37.7898L645.611 35.6354L645.383 35.5087L644.977 35.2806L644.876 35.2299L640.036 32.7461L639.175 32.3152L632.84 29.2484L631.193 28.4627L627.342 26.7139L622.705 24.7116L619.512 23.343L616.447 22.1011L616.016 21.9236L615.864 21.8476L614.825 21.4421L614.369 21.2647L614.039 21.1379L612.747 20.631L610.441 19.7439L605.298 17.8431L597.62 15.2325L589.943 12.8247L589.31 12.6219L588.727 12.4445L585.256 11.4814L581.049 10.3155L577.527 9.40308L575.07 8.76945L574.842 8.71876L574.081 8.54135L573.803 8.49066L571.193 7.88237L567.646 7.07132H567.468L567.418 7.02063L562.173 5.93079L560.754 5.65199L551.556 4.00455L549.529 3.64971L540.914 2.43314H540.813L540.559 2.38245L534.073 1.6221L529.993 1.24192L526.978 0.963119H527.004L525.889 0.861738H525.787L520.036 0.456214H519.909L514.106 0.177417H513.372L506.505 0H500.576L495.686 0.0506905H493.507L493.203 0.101381L489.63 0.228107L486.159 0.380179H486.007L478.912 1.29261H478.811L478.076 1.47002L477.848 1.52071L476.986 1.69813H476.885L474.731 2.23038L474.529 2.28107L473.794 2.45849L470.88 3.24419L470.703 3.16816L470.627 3.29488L429.275 9.90999L428.819 10.0114L428.515 10.0874L412.755 13.9399V13.7878L412.273 14.0666L412.045 14.1173V14.168L342.67 45.9002L340.795 45.8242L340.516 46.0016L336.259 48.6882L336.006 48.8656L331.293 51.9577L330.71 52.3633L325.212 56.1651L325.009 56.2918L322.07 58.4461L321.969 58.5222L321.766 58.6742L318.396 61.1581L314.671 63.9967H314.646L310.136 67.5704L309.553 68.052L304.511 72.2086L300.381 75.7569L299.595 76.4666L294.756 80.8006L294.148 81.3582L294.249 81.2062L292.298 83.0564L292.171 83.1577L288.801 86.4019L285.431 89.6968L281.479 93.7267L280.946 94.2843L276.588 98.8971H276.563L276.158 99.3787L273.117 102.724L272.306 103.662L268.151 108.452L268.1 108.528L264.553 112.786L264.122 113.319L260.195 118.236L260.144 118.312L257.661 121.581L257.382 121.961L257.205 122.215L255.279 124.775L252.695 128.298L252.162 129.058L252.01 129.286L248.564 134.254L247.602 135.648L247.146 136.307L247.07 136.408L245.6 138.613V138.664L245.524 138.715L243.421 142.009L243.117 142.516L242.99 142.719L241.292 145.431L238.987 149.182L236.073 154.175L235.845 154.581L232.804 160.005L230.093 165.099L229.865 165.53L227.053 171.08L224.772 175.795L224.341 176.707L221.732 182.384L220.693 184.716L219.73 186.921L219.147 188.315L216.715 194.271L216.081 195.893L215.321 197.82L214.409 200.253L212.23 206.285L210.431 211.607L210.177 212.393L208.277 218.476L207.948 219.566L206.731 223.798L206.503 224.635L204.856 230.794L203.514 236.294L203.362 237.003L201.968 243.213V243.264L200.954 248.333L200.878 248.688L200.372 251.399L199.586 255.759L198.699 261.284L198.598 262.07L197.737 268.381L197.635 269.166V269.243L197.128 273.678H196.824L196.698 274.894L196.115 281.104H196.09L195.938 282.98L195.76 285.514L195.633 287.542L195.279 293.954V293.954L195.101 299.555V299.555V300.392L195 306.829V307.565L195.051 312.532V313.293L195.228 319.274L195.684 327.841L195.912 331.262L195.963 331.947V332.048L196.09 333.543V333.645L196.14 334.101L196.495 337.877L196.596 338.993L197.103 343.859L197.356 346.013H197.407L198.091 351.108L198.167 351.615L199.105 357.697V357.926H199.155L200.169 363.679L200.296 364.414L201.461 370.395V370.446L202.424 374.805L204.324 382.865L204.958 385.349L205.693 388.061L205.971 389.024L207.72 395.158L210.507 404.003L211.039 405.6V405.676H211.064L211.191 406.056V406.132L211.622 407.323L213.649 413.001L213.775 413.33L216.056 419.337V419.388L217.804 423.696V423.747L217.982 424.102L219.274 427.194L220.997 431.224L221.656 432.719L221.96 433.378L222.036 433.556L224.088 437.966L226.242 442.503V442.553L228.826 447.673L229.738 449.422L231.917 453.553V453.604H231.943L234.705 458.597L234.933 459.002L238.024 464.35V464.426H238.075V464.477L241.191 469.597L241.394 469.901L244.637 474.995L248.97 481.408H248.945L249.375 481.99L249.426 482.066L250.718 483.917L251.326 484.804L251.706 485.336L252.416 486.325L254.899 489.746L255.406 490.43L259.181 495.398L262.627 499.757L263.108 500.366L267.112 505.207L268.759 507.158L270.634 509.313L271.267 510.022L275.499 514.737L276.766 516.131L279.578 519.096L279.882 519.4L284.291 523.937L284.367 524.013L288.345 527.916L288.928 528.474L293.615 532.884H293.641L293.717 532.985L298.176 537.04L298.43 537.268L303.32 541.501L303.447 541.602L306.512 544.162L310.136 547.102L313.43 549.713L318.041 553.261L318.675 553.718L323.996 557.595L329.494 561.422L333.7 564.21L335.6 565.452L335.803 565.579L341.048 568.874L341.276 569.026L344.519 570.978L350.398 574.45L353.312 576.072L354.249 576.579L356.276 577.669L357.036 578.074L357.34 578.226L359.317 579.24L360.356 579.772L362.687 580.913L363.371 581.242L366.386 582.687L367.146 583.042L369.452 584.106L370.516 584.588L372.569 585.475L373.683 585.957L375.862 586.869L376.724 587.224H376.775L380.525 588.745L381.386 589.074L384.883 590.392L385.339 590.569L389.19 591.938L390.102 592.242L394.055 593.535L397.298 594.549L398.363 594.853L400.567 595.486L401.834 595.841L403.861 596.399L405.204 596.754L407.155 597.261L408.523 597.615L410.5 598.097L411.842 598.401L413.844 598.857L414.224 599.212V599.085L416.707 600.479L415.263 599.187L417.594 599.668L418.506 599.846L421.927 600.505C458.616 607.044 500.956 613 529.537 613C530.069 613 530.627 613 531.159 613H531.362L537.012 612.366L541.066 611.885L544.031 611.505H544.132L552.772 610.161H552.95L561.362 608.59L570.965 606.537H571.117L574.284 605.751L574.538 605.675L577.35 604.966L581.987 603.749L583.609 603.293L586.37 602.532L587.257 602.279L588.499 601.924L596.759 599.339L603.828 596.956L604.386 596.754L604.867 596.576L607.68 595.562L607.806 595.512L613.837 593.18L618.043 591.507L624.175 588.922L624.732 588.669L631.396 585.678L633.043 584.917L637.173 582.915L641.582 580.685L644.04 579.418L644.977 578.936L649.437 576.528L650.095 576.148L656.101 572.752L656.987 572.245L660.763 569.989L661.903 569.279L667.629 565.68L672.52 562.462L674.521 561.093L678.626 558.254H678.651L679.842 557.393L683.263 554.909L683.972 554.376L689.243 550.397L690.155 549.688L693.677 546.9L694.386 546.317L699.428 542.16L702.393 539.626L704.04 538.181L704.977 537.395L705.13 537.268L706.27 536.255L709.209 533.593L713.364 529.716L713.922 529.183L718.533 524.672L718.787 524.393L722.157 520.997L723.018 520.11L726.261 516.688L727.554 515.319L727.782 515.091L731.658 510.783L735.839 505.992L735.89 505.916L739.437 501.658L741.033 499.656L743.795 496.209L743.846 496.133L746.582 492.534L748.331 490.202L751.321 486.122L754.615 481.433L754.919 480.977L758.415 475.806L761.507 470.965L761.76 470.534L765.028 465.237L767.79 460.523L768.17 459.839L771.236 454.389L772.757 451.551L774.252 448.712L777.368 441.742L778.255 439.613L780.383 434.291L781.625 430.97L782.056 429.83L782.106 429.703L783.601 425.572L783.728 424.051L798.829 378.075L799.108 376.782L799.159 376.58L806 302.876L796.828 237.612L797.208 237.586ZM704.623 298.846L700.366 305.486L703.052 280.546V280.166L703.229 278.265L704.445 246.964V246.837L681.616 114.003L682.275 114.814L731.076 190.241L744.125 218.4H744.099L744.15 218.501L705.434 297.604L704.673 298.82L704.623 298.846ZM734.395 455.251L663.474 530.881L651.109 502.621L650.323 501.608L650.273 501.532L636.286 486.806L636.362 486.679L636.438 486.527L636.844 485.868H636.742L676.548 403.04L734.167 452.742L734.37 455.251H734.395ZM321.437 545.404L341.175 532.351L341.91 533.898L411.513 596.475L322.526 546.089L321.411 545.404H321.437ZM278.489 410.238L277.729 408.743L276.462 406.158L275.98 405.194L274.384 401.849L274.232 401.519L251.377 340.26L251.048 339.094L254.215 328.424L276.563 276.441L276.892 275.807L347.129 300.62L346.8 302.926V303.18L303.193 452.691L280.87 414.927L280.49 414.217L279.249 411.809L278.463 410.263L278.489 410.238ZM239.722 179.039L255.279 157.369L239.215 243.568C239.012 243.618 238.733 243.669 238.328 243.745C235.794 244.277 229.384 245.595 222.897 246.787C219.654 247.395 216.385 247.952 213.598 248.358C210.811 248.764 208.454 249.042 207.112 249.042C206.681 249.042 206.351 249.017 206.174 248.966H206.149L238.733 180.636L239.747 179.115L239.798 179.039H239.722ZM257.053 154.099L258.801 150.095L259.688 148.118L260.144 147.104L277.044 115.701L279.097 112.482L279.705 111.57L281.276 109.213L290.651 96.2359L291.208 95.5262L292.881 93.4226L294.528 91.3949L295.212 90.5585L334.46 54.3655L328.785 63.0083L324.756 80.5725V82.9043L323.54 83.9434L320.879 86.1992L257.078 154.124L257.053 154.099ZM502.122 18.1725L589.411 64.6304L678.778 112.203L621.21 115.118L583.989 119.579L557.257 122.798L557.308 122.671L556.877 122.798L516.184 42.9348L502.122 18.1725V18.1725ZM680.704 112.964L680.754 113.42H680.78L684.58 135.597L680.526 112.888L680.678 112.964H680.704ZM703.736 247.04L702.52 278.24L702.368 280.141V280.496L699.58 306.373L665.248 218.552L665.07 218.197L664.361 216.803L653.465 196.451L653.592 196.35L653.44 196.248L675.256 139.424L677.993 125.383L680.096 114.51L703.736 247.065V247.04ZM563.693 568.544L596.759 538.308L596.987 538.054L598.862 536.001L599.546 535.266L601.092 533.568L602.08 532.453L603.347 531.034L604.538 529.665L605.577 528.448L606.92 526.877L607.806 525.838L609.225 524.114L610.011 523.176L611.48 521.377L612.164 520.515L613.659 518.64L614.268 517.854L615.813 515.902L616.32 515.243L617.942 513.14L618.271 512.709L620.045 510.352L635.855 487.44L649.715 502.013V502.064L650.501 503.027L662.992 531.591L563.693 568.544V568.544ZM635.425 486.857L619.487 509.921L617.713 512.278L617.384 512.709L615.762 514.813L615.256 515.446L613.71 517.398L613.102 518.158L611.607 520.034L610.923 520.895L609.453 522.695L608.668 523.633L607.249 525.331L606.362 526.37L605.019 527.941L603.98 529.158L602.789 530.527L601.523 531.946L600.534 533.036L598.989 534.734L598.305 535.469L596.43 537.497L596.202 537.75L562.603 568.468L565.897 558.888V539.676L565.796 539.22L565.72 538.865L557.434 517.398L535.162 478.442L536.48 478.113L545.678 475.806L616.295 489.67L617.663 489.442L618.17 489.366L635.349 486.806L635.425 486.857ZM408.751 472.08L387.214 387.047L458.895 355.315L458.692 355.822L459.528 355.138L482.789 384.563L484.106 386.946L409.359 472.182L408.777 472.08H408.751ZM239.975 244.734L276.487 274.996L276.284 275.351L275.879 276.086L253.505 328.145L250.794 337.269L249.502 326.219L239.95 244.734H239.975ZM239.899 243.745L247.703 201.824L256.141 156.532V156.482L271.723 167.887L295.237 180.762L295.693 180.99L297.948 182.106L298.455 182.359L300.71 183.449L300.837 183.525L331.622 197.769L325.034 205.322L276.842 274.388L239.874 243.745H239.899ZM324.654 83.8927L320.094 144.848L320.17 145.406L320.55 148.498L320.676 149.36L321.107 152.274L321.234 153.161L321.715 156.177L321.842 156.887L322.425 160.233L322.501 160.587L326.96 180.534L327.011 180.712L327.974 184.26L328.455 186.009L328.785 187.175L331.673 196.933L323.21 193.004L301.217 182.815L301.09 182.739L298.835 181.649L298.328 181.396L296.073 180.281L295.642 180.053L272.179 167.203L256.495 155.721L321.386 86.6554L324.021 84.425L324.705 83.8421L324.654 83.8927ZM413.413 164.11L506.201 137.878L556.066 123.786L489.985 281.256L459.503 353.921L332.839 197.794L397.146 170.928L413.439 164.11H413.413ZM663.702 217.107L664.411 218.501L664.563 218.831L699.226 307.539V307.615L600.408 320.491H600.357L594.859 321.479L553.228 329.742L550.112 330.426L548.313 330.831L467.535 351.868L466.167 352.274L461.226 353.744L652.908 196.882L663.727 217.107H663.702ZM347.509 303.002L347.763 301.178L386.2 386.844L317.991 442.097L303.953 453.452L347.459 303.154V303.002H347.509ZM347.915 300.366L348.295 297.908L348.345 297.604L332.408 198.377L417.189 302.85L459.047 354.453L386.885 386.388L347.94 300.366H347.915ZM460.517 353.389L556.877 123.786L652.452 196.324L460.517 353.389ZM460.238 354.783L466.42 352.932L467.789 352.527L548.541 331.516L550.34 331.11L553.456 330.426L595.087 322.163L600.56 321.2H600.61L698.972 308.376L591.742 394.752L485.069 385.907L484.664 386.363L483.448 384.158L460.263 354.808L460.238 354.783ZM485.348 386.642L591.21 395.411L534.782 477.555L485.044 387.022L485.373 386.642H485.348ZM534.757 477.555L591.185 395.411L534.757 477.555ZM674.572 139.196L652.857 195.767L557.637 123.507L621.311 115.853L679.69 112.888L674.572 139.196V139.196ZM325.643 205.753L331.369 199.188L347.611 297.452L347.56 297.807L347.357 299.125L277.348 274.945L325.643 205.753V205.753ZM386.58 387.453L304.511 453.933L386.58 387.453ZM386.58 387.453L407.966 471.928L304.485 453.959L386.555 387.478L386.58 387.453ZM410.17 472.309L484.461 387.605L533.87 477.53L410.17 472.309V472.309ZM618.144 488.682L617.637 488.758L616.269 488.986L545.627 475.122L535.618 477.631L592.046 395.513L675.94 402.837L635.957 486.046L618.17 488.707L618.144 488.682ZM592.528 394.828L699.099 309.313L676.194 402.128L592.553 394.828H592.528ZM501.083 17.7924L515.551 43.2643L549.605 110.1L555.863 122.418L554.115 121.556L551.531 120.289L429.25 69.598L501.083 17.7924ZM428.515 70.2063L428.565 70.2824L428.667 70.1049L551.252 120.922L553.811 122.189L555.686 123.127L413.185 163.401L333.168 196.831L363.041 148.979L404.469 96.2359L406.901 93.4479L407.18 93.1184L417.442 81.8144L417.898 81.3075L420.28 78.7477L428.489 70.1049L428.515 70.2063ZM419.773 78.3421L417.391 80.902L416.935 81.4089L406.673 92.7129L406.395 93.0424L403.937 95.8304L362.459 148.599L332.383 196.755L362.459 148.599L332.383 196.755L329.494 186.997L329.165 185.831L328.683 184.082L327.746 180.534L327.695 180.382L323.236 160.461L323.159 160.106L322.577 156.786L322.45 156.101L321.969 153.085L321.842 152.198L321.411 149.283L321.284 148.422L320.904 145.355L320.854 144.873L325.44 83.4112L395.575 72.4114L427.653 70.1049L419.799 78.3675L419.773 78.3421ZM206.149 249.752C206.402 249.777 206.706 249.803 207.036 249.803C208.683 249.803 211.52 249.448 214.865 248.941C223.936 247.522 236.782 244.835 239.164 244.328L250.262 338.967L210.329 387.554C210.177 381.699 209.341 350.221 208.454 318.767C207.948 301.33 207.441 283.892 206.985 270.789C206.757 264.249 206.554 258.8 206.402 254.973C206.326 253.072 206.25 251.577 206.174 250.538C206.174 250.234 206.123 249.98 206.123 249.752H206.149ZM304.333 454.744H304.435L304.384 454.694L378.371 467.544L408.194 472.714L408.32 473.221L341.454 531.236L304.359 454.744H304.333ZM414.021 597.742L342.492 533.441L341.758 531.921L408.498 474.007L426.234 544.036L423.625 555.466L414.021 597.742V597.742ZM409.106 473.474L409.41 473.196L409.613 472.968L533.591 478.214L426.842 543.529L409.081 473.449L409.106 473.474ZM534.504 478.696L534.63 478.924L556.852 517.778L565.086 539.093L565.163 539.423L565.239 539.803V558.812L561.641 569.305L428.059 543.909L534.504 478.67V478.696ZM562.021 570.141H562.046L562.147 569.964L562.274 569.862L659.901 533.543L535.188 607.804L562.021 570.116V570.141ZM676.878 402.381L699.403 311.138L734.141 451.804L676.852 402.381H676.878ZM744.682 217.893L731.734 189.937L682.883 114.434L682.427 113.851L725.881 136.56L726.185 136.763L757.199 142.922L744.682 217.893ZM705.104 77.7845L705.358 78.0127L706.624 79.1532L709.412 81.6877L711.084 83.2338L714.581 86.5287L716.253 88.1254L717.748 89.6208L719.065 90.9387L719.141 91.0148L719.192 91.0655L723.626 95.6276L724.513 96.5654L725.983 98.1114L727.984 100.266L733.432 106.399L736.295 109.694L736.346 109.745L738.728 112.685L743.821 118.971V119.021H743.846L743.998 119.224L756.692 141.604L726.591 136.205L726.236 136.003H726.211L681.692 112.71L697.705 99.8603L697.756 99.8096L698.314 99.252L705.839 88.9618L705.94 88.7083L706.042 88.4295V88.3789L706.27 80.826L706.168 80.5472L706.092 80.3698V80.2684L704.243 77.1256L705.053 77.8352L705.104 77.7845ZM630.737 29.071L632.384 29.8314L638.719 32.8981L639.58 33.329L644.394 35.8128L644.496 35.8635L644.901 36.0916L645.104 36.193L649.107 38.3727L653.187 40.6284L659.04 44.05L664.867 47.6237L670.467 51.2227L671.253 51.7296L673.761 53.4024L676.016 54.9485L677.41 55.9369L682.832 59.8148L686.506 62.5267L686.658 62.6534H686.709L689.597 64.9092L692.486 67.1649L696.768 70.6372L696.92 70.7639L700.214 73.5265L700.341 73.6786L703.128 76.644L705.434 80.5725L705.484 80.7246L705.535 80.8767L705.332 88.1761L705.256 88.4042L705.18 88.5816L697.731 98.7451L697.199 99.252L681.286 112.026L680.526 105.056V104.955L680.45 104.397L668.035 65.923L667.857 65.6188L667.173 64.4276L666.895 63.9714L666.261 62.9069L665.957 62.4253L665.273 61.3101L665.121 61.082V61.0313L664.943 60.9046L628.457 28.0318L630.712 29.071H630.737ZM588.955 13.3063L589.588 13.509L597.24 15.9168L604.918 18.5274L610.036 20.4283L612.342 21.29L613.634 21.7969L613.963 21.9236L614.394 22.1011L615.408 22.5066L625.872 27.3729L664.563 61.5382L664.69 61.7157L665.374 62.8309L665.678 63.3124L666.312 64.3769L666.59 64.8331L667.275 66.0244L667.427 66.2778L679.817 104.6L679.893 105.107V105.183L680.577 111.57L680.476 111.443V111.62L680.324 111.418L680.172 110.556L680.07 111.139L585.737 12.3685L588.955 13.3063V13.3063ZM549.25 4.38473L551.252 4.71422L560.45 6.36166L561.869 6.64045L567.114 7.7303H567.164L567.342 7.78099L570.889 8.59204L573.499 9.20032L573.777 9.27636L574.512 9.45378L574.74 9.50447L584.951 12.6473L676.472 109.213L541.877 3.32023L549.276 4.35938L549.25 4.38473ZM529.715 2.00227L533.794 2.38245L540.281 3.14281H540.433L645.281 85.6162L676.675 110.302L566.176 51.4762L501.894 17.2601L519.402 5.82941L525.787 1.64744L529.715 2.00227V2.00227ZM500.551 0.760357H506.454L513.118 0.937774H513.853L519.681 1.24192H519.757L524.546 1.57141L517.882 5.93079L501.336 16.7532L499.892 13.0275L499.639 12.3938L499.588 12.2671L496.37 3.67506V3.59902H496.345L496.243 3.32023L496.193 3.1935L496.091 2.86401L495.736 0.836393L500.525 0.785703L500.551 0.760357ZM473.92 3.1935L474.655 3.01608L474.858 2.96539L476.986 2.45849H477.088L477.949 2.25573L478.177 2.20504L478.912 2.05296H479.013L486.032 1.14054H486.159L489.63 0.988464L493.177 0.861738H495.027L495.407 3.01608V3.06677L495.534 3.39626L495.584 3.54833L495.686 3.82713V3.92851H495.711L498.929 12.5205L498.98 12.6473L499.233 13.2809L500.5 16.5251L500.272 16.3984L500.348 16.5251L471.919 3.7511L473.971 3.21885L473.92 3.1935ZM470.931 4.10593L500.449 17.3615L455.829 49.5499L429.832 68.3054L470.956 4.08058L470.931 4.10593ZM428.616 10.8224L428.92 10.7464L429.376 10.645L470.069 4.13127L428.489 69.0658L414.503 51.8817L413.439 29.5019L412.729 14.6749L428.616 10.7971V10.8224ZM413.768 52.1859L424.157 64.9345L427.78 69.3953L395.449 71.7017L326.048 82.5748L361.04 45.6975L361.344 45.444L363.776 43.4417L364.08 43.1883L387.873 29.1977L412.02 15.0044L413.793 52.1352L413.768 52.1859ZM363.65 42.6054L363.295 42.8841L360.862 44.8864L360.533 45.1652L325.415 82.1946V80.6739L329.393 63.3124L335.752 53.6559L342.847 46.5846L406.04 17.691L363.624 42.6054H363.65ZM295.11 81.3075L299.95 76.9735L300.735 76.2892L304.865 72.7408L309.908 68.5842L310.491 68.1027L315.001 64.5543L318.725 61.7157L322.095 59.2318L322.298 59.0798L322.399 59.0037L325.339 56.8747L325.541 56.748L331.04 52.9462L331.597 52.566L336.285 49.4739L336.538 49.3218L340.795 46.6352L340.896 46.5846H341.758L294.629 90.1023L293.919 90.9641L292.272 92.9917L290.6 95.1207L290.043 95.8304L280.642 108.832L279.071 111.215L278.463 112.153L276.411 115.346V115.397L259.46 146.85L259.004 147.889L258.117 149.892L256.749 153.06L259.004 139.221L259.181 138.461L259.333 137.853L292.653 83.6646L295.136 81.3582L295.11 81.3075ZM247.627 136.459L248.919 134.583L252.365 129.641L252.517 129.413L253.049 128.678L255.634 125.155L257.559 122.595L257.737 122.341L258.016 121.961L260.499 118.692L260.549 118.641L264.477 113.724L264.907 113.192L268.455 108.934L268.505 108.858L272.661 104.093L273.472 103.18L276.512 99.8349L276.918 99.404H276.943L281.301 94.7659L281.833 94.2083L285.786 90.2037L289.156 86.9088L290.524 85.5909L258.598 137.498V137.549L258.421 138.233L258.244 138.993L255.608 155.164L252.01 152.097H251.96L247.602 136.459H247.627ZM195.76 303.864L195.811 300.189V299.378L196.014 293.777L196.368 287.364L196.495 285.362L196.672 282.828V282.828L196.824 280.977L197.407 274.768L197.534 273.551L198.041 269.116V269.04L198.142 268.279L199.003 261.968L199.105 261.183L199.992 255.657L200.777 251.298L201.284 248.637L201.36 248.257L202.373 243.188L203.767 236.953L203.919 236.268L205.262 230.819L206.909 224.635L207.137 223.824L208.353 219.591L208.683 218.527L210.583 212.444L210.836 211.683L212.635 206.386L214.814 200.354L215.726 197.921L216.487 195.995L217.12 194.373L219.552 188.417L220.135 187.048L221.073 184.843L222.112 182.511L224.721 176.834L225.127 175.947L227.407 171.258L230.22 165.707L230.448 165.276L233.159 160.233L236.2 154.783L236.402 154.403L239.316 149.436L241.622 145.659L243.32 142.973L243.446 142.77L243.75 142.288L245.904 138.943V138.892L247.07 137.194L251.326 152.401L251.428 152.502L251.529 152.604L255.33 155.848L255.38 155.899L239.088 178.583L239.012 178.684L237.973 180.255L205.313 248.738V248.789H205.287V248.84L205.237 249.042L204.628 251.095L195.988 299.049L195.76 303.864V303.864ZM208.404 394.727L206.655 388.593L206.377 387.63L205.642 384.918L205.009 382.434L203.108 374.375L202.171 370.066V369.99L201.005 364.008L200.878 363.299L199.865 357.571V357.343L198.902 351.285L198.826 350.804L198.142 345.734L197.889 343.605L197.382 338.739L197.28 337.624L196.926 333.898V333.417L196.875 333.315L196.748 331.845H196.698L196.495 323.279L196.216 310.809V310.707L196.723 299.201H196.698L205.313 251.374L205.465 250.867C205.541 252.261 205.642 254.416 205.769 257.204C206.377 272.132 207.34 304.979 208.15 334.076C208.556 348.624 208.936 362.26 209.189 372.246C209.443 381.395 209.595 387.478 209.62 388.441V388.543V388.619L210.152 400.328L208.404 394.777V394.727ZM221.681 430.742L219.958 426.712L218.666 423.62L218.514 423.266V423.215L216.74 418.906V418.855L214.46 412.849L214.333 412.519L212.306 406.842L211.9 405.625V405.549L211.774 405.22L211.014 401.519L210.38 388.568L250.414 339.88L250.516 340.792L250.668 340.285V340.361H250.693L273.573 401.697L273.75 402.052L275.347 405.397L275.828 406.36L277.095 408.945L277.855 410.441L278.641 411.987L279.882 414.42L280.262 415.155L302.94 453.528L222.593 432.694L221.681 430.666V430.742ZM245.347 474.412L242.103 469.318L241.901 469.014L238.784 463.919V463.869L238.733 463.818L235.617 458.47L235.389 458.065L232.627 453.097V453.046L230.448 448.89L229.536 447.141L226.977 442.021L224.823 437.434L223.024 433.581L252.492 441.21L302.965 454.288L302.914 454.339L303.421 454.44V454.846L303.624 454.694L340.947 531.616L320.879 544.897L251.428 483.207L250.186 481.433L245.423 474.362L245.347 474.412ZM410.93 597.235L408.954 596.754L407.586 596.399L405.609 595.892L404.266 595.537L402.239 594.98L400.972 594.625L398.768 593.991L397.704 593.687L394.461 592.673L390.533 591.381L389.621 591.076L385.77 589.708L385.339 589.556L381.842 588.238L381.006 587.908L377.256 586.413H377.205L376.344 586.033L374.165 585.12L373.05 584.639L370.998 583.752L369.933 583.27L367.628 582.231L366.868 581.876L363.852 580.431L363.168 580.102L360.862 578.961L359.824 578.429L357.847 577.415L357.543 577.263L356.783 576.858L354.756 575.768L353.818 575.261L350.905 573.639L345.026 570.192L341.783 568.24L341.555 568.088L336.335 564.793L336.133 564.641L334.232 563.399L330.051 560.611L324.578 556.81L319.257 552.932L318.624 552.476L314.012 548.953L310.719 546.317L307.121 543.377L304.055 540.842L303.928 540.741L299.038 536.508L298.81 536.305L294.35 532.25L294.274 532.174H294.249L289.561 527.739L288.979 527.181L285.026 523.278L284.95 523.202L280.516 518.665L280.212 518.361L277.399 515.396L276.132 514.027L271.901 509.313L271.267 508.603L269.392 506.449L267.745 504.522L263.742 499.681L263.261 499.073L259.84 494.739L256.065 489.771L255.558 489.087L253.176 485.818L320.55 545.658H320.575L320.828 545.835L322.171 546.646L411.893 597.463L410.905 597.235H410.93ZM531.21 612.138C530.728 612.138 530.272 612.138 529.791 612.138C501.311 612.138 458.971 606.182 422.307 599.643L418.912 598.984L418.025 598.807L415.592 598.3L414.706 598.097L423.473 559.496L426.893 544.39L561.108 569.913L560.475 570.496L560.956 570.319L533.642 608.717L531.387 610.06L428.844 545.1L428.464 545.708L531.387 610.922L532.629 610.187L531.21 612.189V612.138ZM586.396 601.696L583.634 602.456L582.012 602.913L577.375 604.129L574.563 604.839L574.31 604.89L571.142 605.65H570.99L561.412 607.728L553 609.274H552.848L544.183 610.618H544.107L541.167 611.023L537.797 611.429V611.378L536.733 611.505L533.465 611.885L532.122 612.037L534.123 609.198L662.536 532.732L636.388 580.305L587.232 601.417L586.37 601.671L586.396 601.696ZM702.19 538.992L699.226 541.526L694.183 545.683L693.474 546.241L689.952 549.029L689.065 549.713L683.795 553.692L683.085 554.224L679.665 556.708L678.474 557.545H678.449L674.344 560.383L672.342 561.752L667.452 564.971L661.7 568.57L660.56 569.279L656.81 571.51L655.923 572.017L649.918 575.413L649.259 575.768L644.8 578.176L643.888 578.657L641.43 579.899L637.021 582.13L632.916 584.132L631.295 584.892L624.631 587.883L624.073 588.136L617.942 590.722L613.735 592.394L607.73 594.701L607.604 594.751L604.791 595.765L604.31 595.943L603.752 596.145L596.683 598.528L593.541 599.491L636.818 580.888L663.373 532.58V532.656L663.626 532.123L695.349 533.669L696.388 533.796L696.641 533.847L697.401 533.948L697.731 533.999L698.44 534.1L698.77 534.151L699.479 534.278L699.682 534.328L700.341 534.455L700.543 534.506L701.937 534.835H702.064L702.621 535.038H702.697L703.204 535.215L703.457 535.317L703.559 535.368L705.104 536.204V536.305L705.003 536.483L704.673 536.787L704.521 536.914L702.114 539.017L702.19 538.992ZM777.951 439.284L777.064 441.413L773.973 448.332L772.478 451.171L770.958 454.009L767.917 459.433L767.537 460.092L764.775 464.781L761.507 470.078L761.253 470.509L758.162 475.325L754.665 480.495L754.361 480.926L751.067 485.589L748.077 489.645L746.329 491.951L743.593 495.525L743.542 495.576L740.78 499.022L739.184 501.025L735.662 505.257L735.611 505.333L731.456 510.124L727.579 514.432L727.351 514.66L726.059 516.029L722.815 519.451L721.954 520.338L718.609 523.734L718.356 523.988L713.744 528.499L713.187 529.031L709.032 532.909L706.092 535.57L705.94 535.697L704.015 534.633L703.863 534.582L703.584 534.48L703.077 534.303H702.976L702.418 534.126L702.266 534.075L700.847 533.745L700.645 533.695L699.986 533.568L699.783 533.517L699.074 533.391L698.744 533.34L698.035 533.239L697.705 533.188L696.945 533.086L696.667 533.036L695.628 532.909L664.817 531.414L709.766 504.244L748.432 473.855L748.838 473.474L749.648 472.714L777.9 439.056L778.534 437.991L778.027 439.233L777.951 439.284ZM777.216 438.675L749.04 472.258L748.28 472.993L747.9 473.348L709.285 503.686L664.335 530.856L735.18 455.378L735.028 453.477L748.964 469.926L749.496 469.419L735.054 452.438L734.952 452.362L699.986 308.832V308.756L768.88 368.773L781.65 429.222L780.105 433.961L777.216 438.726V438.675ZM783.399 423.848L782.106 427.828L769.539 368.368L700.163 307.945L700.518 307.463H700.138L700.189 307.083L705.231 299.201L705.991 297.984L744.555 219.186L750.155 227.499L791.811 328.956L783.348 423.848H783.399ZM798.829 376.377L798.779 376.58L798.5 377.847L784.387 420.832L792.596 328.88L750.865 227.169L745.037 218.527L757.604 143.758L796.194 236.471L796.296 236.902L796.498 237.738L805.645 302.876L798.804 376.428L798.829 376.377Z"
        fill="white"/>
  <defs class="planet-body" >
    <linearGradient id="paint0_linear_491_625" x1="772.216" y1="-203.337" x2="348.34" y2="619.265"
                    gradientUnits="userSpaceOnUse">
      <stop offset="0.32" stop-color="#E2057D"/>
      <stop offset="0.36" stop-color="#C60A78"/>
      <stop offset="0.43" stop-color="#9D1271"/>
      <stop offset="0.5" stop-color="#79196B"/>
      <stop offset="0.58" stop-color="#5C1F66"/>
      <stop offset="0.67" stop-color="#462362"/>
      <stop offset="0.76" stop-color="#362660"/>
      <stop offset="0.86" stop-color="#2C285E"/>
      <stop offset="1" stop-color="#2A295E"/>
    </linearGradient>
    <radialGradient id="paint1_radial_491_625" cx="0" cy="0" r="1" gradientUnits="userSpaceOnUse"
                    gradientTransform="translate(379.319 -178.125) scale(877.775 876.907)">
      <stop offset="0.62" stop-color="#2A295E" stop-opacity="0"/>
      <stop offset="0.75" stop-color="#28275A" stop-opacity="0.06"/>
      <stop offset="0.82" stop-color="#242250" stop-opacity="0.25"/>
      <stop offset="0.88" stop-color="#1E1A3E" stop-opacity="0.58"/>
      <stop offset="0.92" stop-color="#161028"/>
    </radialGradient>
    <radialGradient id="paint2_radial_491_625" cx="0" cy="0" r="1" gradientUnits="userSpaceOnUse"
                    gradientTransform="translate(676.778 -19.3043) scale(439.272 438.837)">
      <stop offset="0.35" stop-color="#E2057D"/>
      <stop offset="0.42" stop-color="#DD057C" stop-opacity="0.97"/>
      <stop offset="0.5" stop-color="#D00879" stop-opacity="0.9"/>
      <stop offset="0.6" stop-color="#BA0C76" stop-opacity="0.78"/>
      <stop offset="0.71" stop-color="#9B1271" stop-opacity="0.62"/>
      <stop offset="0.82" stop-color="#741A6A" stop-opacity="0.4"/>
      <stop offset="0.94" stop-color="#452362" stop-opacity="0.15"/>
      <stop offset="1" stop-color="#2A295E" stop-opacity="0"/>
    </radialGradient>
    <radialGradient id="paint3_radial_491_625" cx="0" cy="0" r="1" gradientUnits="userSpaceOnUse"
                    gradientTransform="translate(610.164 159.097) scale(439.272 438.837)">
      <stop offset="0.64" stop-color="#2A295E" stop-opacity="0"/>
      <stop offset="0.76" stop-color="#23204B" stop-opacity="0.34"/>
      <stop offset="1" stop-color="#161028"/>
    </radialGradient>
    <radialGradient id="paint4_radial_491_625" cx="0" cy="0" r="1" gradientUnits="userSpaceOnUse"
                    gradientTransform="translate(642.446 183.925) scale(402.89 402.491)">
      <stop offset="0.64" stop-color="#2A295E" stop-opacity="0"/>
      <stop offset="0.76" stop-color="#23204B" stop-opacity="0.34"/>
      <stop offset="1" stop-color="#161028"/>
    </radialGradient>
    <clipPath id="clip0_491_625">
      <rect width="1016" height="564" fill="white" transform="translate(0 26)"/>
    </clipPath>
  </defs>
</svg>
