<svg width="33" height="28" viewBox="0 0 33 28" fill="none" xmlns="http://www.w3.org/2000/svg">
<path d="M32.3205 4.09613C31.1072 4.61995 29.8236 4.96763 28.5095 5.12839C29.8955 4.30558 30.9321 3.01374 31.4269 1.49278C30.1178 2.24489 28.6928 2.78002 27.2086 3.07687C26.211 2.02025 24.8882 1.31878 23.4456 1.08151C22.0031 0.844233 20.5216 1.08443 19.2314 1.76476C17.9412 2.4451 16.9146 3.52748 16.3111 4.84368C15.7076 6.15988 15.561 7.63618 15.8941 9.04318C13.2559 8.92009 10.6737 8.24813 8.31632 7.07121C5.95899 5.89429 3.87963 4.23892 2.21427 2.2134C1.61719 3.21416 1.30608 4.35623 1.31411 5.51792C1.31222 6.59688 1.58064 7.65951 2.0954 8.61106C2.61016 9.56261 3.35528 10.3735 4.26428 10.9714C3.21148 10.9404 2.18163 10.6599 1.26154 10.1534V10.2378C1.26127 11.7522 1.79102 13.2201 2.76102 14.3927C3.73101 15.5653 5.08155 16.3704 6.58368 16.6715C6.01348 16.8216 5.42599 16.8979 4.83591 16.8987C4.42166 16.8983 4.00826 16.8614 3.60065 16.7884C4.02924 18.0895 4.85754 19.2264 5.97036 20.0409C7.08317 20.8554 8.42519 21.307 9.8098 21.3329C7.46062 23.152 4.56158 24.1396 1.57692 24.1375C1.04988 24.1396 0.523223 24.1092 0 24.0466C3.04095 25.9805 6.58114 27.0082 10.1975 27.0071C22.4121 27.0071 29.0812 17.0156 29.0812 8.3615C29.0812 8.08234 29.0812 7.80317 29.0812 7.52401C30.3872 6.59864 31.5116 5.44584 32.3993 4.12211L32.3205 4.09613Z" fill="white"/>
</svg>
