<svg width="41" height="24" viewBox="0 0 41 24" fill="none" xmlns="http://www.w3.org/2000/svg">
<path d="M23.1359 12.0384C23.1359 18.2978 18.1349 23.372 11.9663 23.372C5.79769 23.372 0.796387 18.2978 0.796387 12.0384C0.796387 5.77905 5.79731 0.704468 11.9663 0.704468C18.1353 0.704468 23.1359 5.77905 23.1359 12.0384Z" fill="white"/>
<path d="M35.3892 12.0385C35.3892 17.9303 32.8887 22.7085 29.8042 22.7085C26.7197 22.7085 24.2192 17.9303 24.2192 12.0385C24.2192 6.1466 26.7193 1.36841 29.8038 1.36841C32.8883 1.36841 35.3888 6.14507 35.3888 12.0385" fill="white"/>
<path d="M40.4012 12.0384C40.4012 17.3161 39.522 21.5971 38.437 21.5971C37.352 21.5971 36.4731 17.3172 36.4731 12.0384C36.4731 6.75961 37.3524 2.47974 38.437 2.47974C39.5216 2.47974 40.4012 6.75923 40.4012 12.0384Z" fill="white"/>
</svg>
