<svg width="33" height="26" viewBox="0 0 33 26" fill="none" xmlns="http://www.w3.org/2000/svg">
<path d="M21.9452 17.4375C21.1467 17.3437 20.4108 16.9637 19.8768 16.3697C19.3428 15.7756 19.0479 15.0087 19.0479 14.2141C19.0479 13.4196 19.3428 12.6527 19.8768 12.0586C20.4108 11.4646 21.1467 11.0846 21.9452 10.9908C22.7437 11.0846 23.4796 11.4646 24.0135 12.0586C24.5475 12.6527 24.8424 13.4196 24.8424 14.2141C24.8424 15.0087 24.5475 15.7756 24.0135 16.3697C23.4796 16.9637 22.7437 17.3437 21.9452 17.4375ZM11.1892 17.4375C10.5287 17.5124 9.86074 17.3875 9.27359 17.0793C8.68645 16.7712 8.20775 16.2942 7.90074 15.7116C7.59373 15.1289 7.47286 14.4679 7.5541 13.8159C7.63535 13.1639 7.9149 12.5516 8.35579 12.0599C8.79668 11.5682 9.37818 11.2203 10.0234 11.0621C10.6687 10.9038 11.3474 10.9428 11.9698 11.1737C12.5922 11.4047 13.129 11.8168 13.5093 12.3556C13.8897 12.8944 14.0956 13.5345 14.1 14.1914C14.1485 15.003 13.8693 15.8005 13.3237 16.409C12.778 17.0175 12.0104 17.3874 11.1892 17.4375ZM27.7798 2.83009C25.6871 1.87793 23.4786 1.1971 21.2093 0.804529C21.1884 0.800883 21.1669 0.803972 21.148 0.813326C21.1291 0.82268 21.1137 0.837814 21.1041 0.856478C20.7988 1.39691 20.5246 1.95395 20.2828 2.52496C17.8287 2.15488 15.3319 2.15488 12.8778 2.52496C12.6302 1.95441 12.3516 1.39745 12.0434 0.856478C12.0338 0.837814 12.0184 0.82268 11.9995 0.813326C11.9806 0.803972 11.9591 0.800883 11.9382 0.804529C9.66864 1.19618 7.46004 1.87704 5.36771 2.83009C5.34995 2.83708 5.33416 2.84823 5.32171 2.86256C1.57696 8.16107 -0.120249 14.611 0.538363 21.0407C0.539242 21.0556 0.543195 21.0703 0.549973 21.0836C0.55675 21.097 0.566208 21.1089 0.577784 21.1186C3.02324 22.9071 5.75818 24.2726 8.66611 25.1567C8.6858 25.1637 8.70724 25.1644 8.72733 25.1585C8.74741 25.1527 8.7651 25.1407 8.77782 25.1243C9.4027 24.2834 9.95649 23.3931 10.4336 22.4625C10.4413 22.45 10.446 22.436 10.4475 22.4215C10.4489 22.407 10.4471 22.3923 10.442 22.3786C10.437 22.3649 10.4289 22.3525 10.4183 22.3423C10.4078 22.3321 10.395 22.3243 10.381 22.3197C9.50759 21.9898 8.66176 21.5925 7.85137 21.1316C7.83741 21.1222 7.82593 21.1096 7.81792 21.0949C7.80992 21.0802 7.80561 21.0639 7.80537 21.0472C7.80189 21.0308 7.80384 21.0137 7.81095 20.9985C7.81805 20.9833 7.82992 20.9708 7.84479 20.9628L8.34416 20.5733C8.35958 20.5626 8.37792 20.5569 8.39672 20.5569C8.41551 20.5569 8.43387 20.5626 8.44929 20.5733C10.9959 21.7532 13.7742 22.3649 16.5869 22.3649C19.3996 22.3649 22.1779 21.7532 24.7245 20.5733C24.7399 20.5626 24.7583 20.5569 24.7771 20.5569C24.7959 20.5569 24.8142 20.5626 24.8296 20.5733C24.9939 20.7031 25.1581 20.8394 25.3355 20.9628C25.3483 20.9729 25.3585 20.9857 25.3654 21.0004C25.3722 21.015 25.3755 21.031 25.375 21.0472C25.374 21.0645 25.3687 21.0812 25.3596 21.096C25.3504 21.1107 25.3376 21.1229 25.3224 21.1316C24.5171 21.5977 23.673 21.9952 22.7993 22.3197C22.786 22.3249 22.7738 22.3327 22.7636 22.3428C22.7535 22.3528 22.7455 22.3649 22.7402 22.3781C22.7338 22.3912 22.7305 22.4057 22.7305 22.4203C22.7305 22.4349 22.7338 22.4493 22.7402 22.4625C23.2256 23.3864 23.779 24.2739 24.396 25.1178C24.4078 25.1354 24.4251 25.1487 24.4452 25.1557C24.4654 25.1627 24.4873 25.1631 24.5077 25.1567C27.4202 24.274 30.1598 22.9085 32.6091 21.1186C32.631 21.1006 32.6451 21.0751 32.6486 21.0472C33.3325 14.6044 31.6308 8.13503 27.8587 2.83659C27.8516 2.81719 27.8375 2.80102 27.8192 2.79114L27.7798 2.83009Z" fill="white"/>
</svg>
