<svg width="149" height="46" viewBox="0 0 149 46" fill="none" xmlns="http://www.w3.org/2000/svg">
<path d="M56.9885 37.0943H45.007V34.8485H48.3096V23.8518C48.3096 22.6128 48.2328 21.4512 48.156 20.4444C48.0024 19.4377 47.772 18.5858 47.4647 17.9663C47.0807 17.2693 46.6199 16.8047 45.9287 16.4175C45.2374 16.1077 44.3926 15.8754 43.3173 15.8754C42.5493 15.8754 41.7812 16.0303 41.09 16.2626C40.3988 16.4949 39.8611 16.8821 39.3235 17.3468C38.7859 17.8114 38.3251 18.3535 37.941 18.8956C37.557 19.5151 37.2498 20.1347 37.0194 20.7542V34.8485H40.322V37.0943H28.1101V34.8485H31.7967V15.6431H28.1101V13.3973H37.0194V18.1986H37.0962C37.6338 16.7273 38.6323 15.4882 40.0916 14.4815C41.5508 13.4747 43.3173 12.9326 45.391 12.9326C46.2359 12.9326 47.0807 13.0101 47.9256 13.165C48.7704 13.3199 49.5385 13.6296 50.2297 14.0168C50.9209 14.404 51.5354 15.0236 52.073 15.7205C52.6106 16.4949 52.9178 17.4242 53.1483 18.6633C53.4555 17.8889 53.9163 17.1919 54.4539 16.4949C54.9916 15.798 55.6828 15.1784 56.374 14.6364C57.1421 14.0943 57.9869 13.7071 58.9086 13.3973C59.8302 13.0875 60.8287 12.9326 61.9807 12.9326C63.3632 12.9326 64.5153 13.0875 65.5137 13.3973C66.5122 13.7071 67.357 14.2491 68.0483 14.9461C68.7395 15.7205 69.2003 16.7273 69.5843 17.9663C69.8916 19.2828 70.0452 20.9091 70.0452 22.8451V34.8485H73.7318V37.0943H61.5967V34.8485H64.8993V23C64.8993 21.9158 64.8225 20.9091 64.6689 19.9798C64.5153 19.1279 64.2849 18.3535 63.9008 17.734C63.5168 17.1145 63.056 16.7273 62.3647 16.3401C61.6735 16.0303 60.8287 15.8754 59.7534 15.8754C57.9869 15.8754 56.6044 16.3401 55.606 17.3468C54.6075 18.3535 53.9163 19.5926 53.4555 21.2188V34.8485H56.9117V37.0943H56.9885Z" fill="white"/>
<path d="M104.684 37.0943H92.6258V34.8485H95.9283V23.8518C95.9283 22.6128 95.8515 21.4512 95.7747 20.4444C95.6211 19.4377 95.3907 18.5858 95.0835 17.9663C94.6995 17.2693 94.2387 16.8047 93.5474 16.4175C92.8562 16.1077 92.0113 15.8754 90.9361 15.8754C90.168 15.8754 89.4 16.0303 88.7088 16.2626C88.0175 16.4949 87.4799 16.8821 86.9423 17.3468C86.4046 17.8114 85.9438 18.3535 85.5598 18.8956C85.1758 19.5151 84.8686 20.1347 84.6381 20.7542V34.8485H87.9407V37.0943H75.8057V34.8485H79.4923V15.6431H75.8057V13.3973H84.7149V18.1986H84.7917C85.3294 16.7273 86.3278 15.4882 87.7871 14.4815C89.2464 13.4747 91.0129 12.9326 93.0866 12.9326C93.9314 12.9326 94.7763 13.0101 95.6211 13.165C96.466 13.3199 97.234 13.6296 97.9253 14.0168C98.6165 14.404 99.2309 15.0236 99.7685 15.7205C100.306 16.4949 100.613 17.4242 100.844 18.6633C101.151 17.8889 101.612 17.1919 102.149 16.4949C102.687 15.798 103.378 15.1784 104.07 14.6364C104.838 14.0943 105.682 13.7071 106.604 13.3973C107.526 13.0875 108.524 12.9326 109.676 12.9326C111.059 12.9326 112.211 13.0875 113.209 13.3973C114.208 13.7071 115.053 14.2491 115.744 14.9461C116.435 15.7205 116.896 16.7273 117.28 17.9663C117.587 19.2828 117.741 20.9091 117.741 22.8451V34.8485H121.427V37.0943H109.215V34.8485H112.518V23C112.518 21.9158 112.441 20.9091 112.288 19.9798C112.134 19.1279 111.904 18.3535 111.52 17.734C111.136 17.1145 110.675 16.7273 109.984 16.3401C109.292 16.0303 108.447 15.8754 107.372 15.8754C105.606 15.8754 104.223 16.3401 103.225 17.3468C102.226 18.3535 101.535 19.5926 101.074 21.2188V34.8485H104.53V37.0943H104.684Z" fill="white"/>
<path d="M122.886 16.0303H119.968V13.7845H132.564V16.0303H128.416L135.098 30.7441L136.097 34.1515H136.327L137.249 30.7441L142.472 16.0303H139.476V13.7845H149V16.0303H145.851L137.786 37.0942C137.326 38.3333 136.865 39.4175 136.327 40.4242C135.79 41.4309 135.252 42.3602 134.791 43.1347C134.253 43.9091 133.793 44.5286 133.332 45.0707C132.871 45.5353 132.487 45.8451 132.103 46H127.187V41.973H132.103C132.333 41.7407 132.564 41.5084 132.717 41.2761C132.948 41.0437 133.101 40.734 133.332 40.4242C133.562 40.037 133.716 39.6498 133.946 39.1077C134.177 38.5656 134.407 37.9461 134.714 37.0942H133.025L122.886 16.0303Z" fill="white"/>
<path d="M23.9628 34.074C23.1179 35.1582 21.8891 36.0875 20.2762 36.707C18.6633 37.3266 16.82 37.7138 14.7463 37.7138C12.519 37.7138 10.5989 37.404 8.90917 36.8619C7.21948 36.2424 5.7602 35.468 4.68495 34.3838C3.53288 33.2996 2.68804 31.9831 2.07361 30.5118C1.45917 28.9629 1.22876 27.2592 1.22876 25.4006C1.22876 21.3737 2.38082 18.2761 4.60814 16.1852C6.83546 14.0942 9.98443 13.0101 14.055 13.0101C15.3607 13.0101 16.7432 13.165 17.9721 13.4747C19.2009 13.7845 20.4298 14.2491 21.4282 14.9461C22.4267 15.6431 23.2715 16.5724 23.886 17.734C24.5004 18.8956 24.8076 20.2895 24.8076 21.9932C24.8076 22.5353 24.8076 23.0774 24.7308 23.6195C24.654 24.1616 24.5772 24.7811 24.4236 25.4006H6.68185C6.68185 26.7171 6.91227 27.9562 7.29629 29.0404C7.68031 30.1245 8.29474 31.0538 9.06278 31.8283C9.83082 32.6027 10.8293 33.2222 11.9813 33.6868C13.1334 34.1515 14.5927 34.3838 16.2056 34.3838C17.5112 34.3838 18.7401 34.1515 19.8922 33.7643C21.0442 33.3771 21.8891 32.9124 22.5803 32.3703L23.9628 34.074ZM13.671 15.0235C12.5958 15.0235 11.7509 15.1784 10.9061 15.4107C10.138 15.7205 9.4468 16.1077 8.83237 16.8047C8.29474 17.4242 7.83391 18.2761 7.44989 19.3602C7.14268 20.367 6.91227 21.6835 6.75866 23.2323H18.8937C18.8937 22.9225 18.9705 22.6902 18.9705 22.3804C18.9705 22.0707 18.9705 21.8384 18.9705 21.606C18.9705 19.5926 18.5097 18.0437 17.6648 16.8047C16.82 15.6431 15.5143 15.0235 13.671 15.0235Z" fill="white"/>
<path d="M13.4407 0C8.06443 0 3.30258 1.78114 0 4.49158L4.30103 11.3838C7.06598 9.91246 9.90773 8.98316 13.4407 8.90572C17.0505 8.90572 20.1227 9.60269 22.6572 11.229L26.8046 4.3367C23.5021 1.62626 18.817 0 13.4407 0Z" fill="#00E7D7"/>
<path d="M16.5129 3.48484H14.2856V1.23904H12.5191V3.48484H10.2917V5.26598H12.5191V7.51177H14.2856V5.26598H16.5129V3.48484Z" fill="#2A35A8"/>
</svg>
