<svg width="167" height="45" viewBox="0 0 167 45" fill="none" xmlns="http://www.w3.org/2000/svg">
<path fill-rule="evenodd" clip-rule="evenodd" d="M50.7251 23.7202C50.6416 23.791 50.5593 23.8616 50.4788 23.9309C49.8799 24.4456 49.3711 24.8828 49.1565 24.668C48.9397 24.4514 49.6702 22.9622 50.0759 22.231C50.3569 21.7009 50.7961 20.8784 51.3003 19.9355L51.7817 19.0361L52.4531 17.7825C53.0149 16.7341 53.5752 15.6895 54.0352 14.832L55.1069 12.835L50.8064 12.8621C50.8064 12.8621 50.6243 13.2114 50.3123 13.8015C50.1177 14.1697 49.8726 14.6313 49.5896 15.1606L49.3955 15.5234L49.2104 15.8677C48.8857 14.27 47.7498 12.835 46.208 12.835C43.8276 12.835 40.3655 14.7844 36.5244 20.6333C32.6836 26.4822 33.7925 30.8145 37.4712 30.8145C39.3374 30.8145 41.2578 29.4878 42.8538 27.8901C42.1235 29.894 42.9351 30.8145 44.4497 30.8145C45.5859 30.8145 47.0735 30.1646 49.3999 27.9446C49.6567 27.7002 50.009 27.3579 50.4319 26.9436C50.7136 26.6672 51.0266 26.3586 51.3635 26.0254L51.6091 25.7825L52.032 25.363C52.3433 25.054 52.6685 24.7305 53.0032 24.397H54.0916C52.3337 27.782 51.5549 28.999 51.5549 28.999C49.8542 30.0139 48.3347 30.7485 47.0474 31.3711C44.1782 32.7583 42.4622 33.5881 42.4622 35.719C42.4622 38.1018 44.9504 39.2935 46.6277 39.2935C50.0627 39.2935 51.4963 37.127 53.7144 33.3093C53.7896 33.1736 53.9675 32.8152 54.2434 32.2595C54.9585 30.8188 56.3323 28.0513 58.2844 24.397H62.4771C62.7327 23.9062 62.9507 23.4912 63.1208 23.1685C63.3828 22.6719 63.532 22.3933 63.532 22.3933H59.3394C61.1245 19.0359 66.9939 7.41943 66.9939 7.41943C68.4009 4.79272 70.4294 1.81421 72.918 1.81421C75.3794 1.81421 75.3794 3.41187 74.2974 5.44263C71.4844 10.75 64.0728 24.668 62.9639 26.6987C61.4221 29.5149 62.2336 30.8145 64.0186 30.8145C65.1548 30.8145 66.6155 30.1646 68.9688 27.9446C70.0723 26.8948 72.9348 24.0422 75.5754 21.3948C74.6936 23.0391 73.937 24.4463 73.594 25.0742C72.0522 27.9172 72.6204 30.8145 75.3254 30.8145C77.0835 30.8145 80.4375 27.9446 83.3318 24.7493C83.1934 25.0032 83.0637 25.2397 82.9446 25.4568L82.9329 25.478L82.7051 25.8938L82.5818 26.1206L82.4851 26.2998L82.4336 26.3958C82.3723 26.5115 82.3198 26.6128 82.2769 26.6987C80.7351 29.5149 81.5464 30.8145 83.3318 30.8145C84.468 30.8145 85.9285 30.1646 88.2817 27.9446C88.7168 27.5308 89.4255 26.8364 90.2864 25.9849C90.8416 25.4358 91.46 24.821 92.1091 24.1741C91.3364 28.0227 93.3538 30.8145 98.2483 30.8145C101.181 30.8145 104.14 29.2073 106.874 26.8564L104.75 30.8145H109.024C112.541 24.3162 119.763 17.5464 121.332 17.5464C122.251 17.5464 121.9 18.7378 120.791 20.823C120.126 22.0381 119.592 23.0522 119.071 24.0432C118.615 24.907 118.169 25.7529 117.653 26.6987C116.111 29.5149 116.923 30.8145 118.708 30.8145C119.817 30.8145 121.304 30.1646 123.658 27.9446L123.805 27.8035L123.895 27.7173L124.08 27.5386L124.431 27.196C124.607 27.0242 124.798 26.8367 125.001 26.6357C125.77 25.8777 126.722 24.9297 127.738 23.9143C126.948 27.8965 129.158 30.8145 133.774 30.8145C136.978 30.8145 140.219 28.8816 143.162 26.1548C143.361 28.9441 145.439 30.8145 149.446 30.8145C156.127 30.8145 162.943 22.4746 166.92 16.0032C167.136 15.6509 166.892 13.4036 166.46 13.9993C161.266 21.2832 155.451 27.5923 150.798 27.5923C148.472 27.5923 147.525 26.2112 147.985 24.0452C148.364 24.397 148.824 24.6951 149.419 24.8577C151.772 25.5884 154.45 24.3162 156.776 21.4185C160.644 16.5718 158.21 12.835 154.288 12.835C153.33 12.835 152.158 13.177 150.902 13.8994C150.865 13.9001 150.828 13.9209 150.788 13.9656C148.952 15.0508 146.946 16.9446 145.172 19.7668C144.978 20.0781 144.797 20.3872 144.63 20.6936C144.297 21.3059 144.02 21.9065 143.799 22.4907C140.742 25.5688 137.734 27.5923 135.1 27.5923C131.908 27.5923 131.286 24.9658 133.504 21.2292C135.235 18.2776 137.777 15.9219 139.184 15.9219C140.59 15.9219 139.103 19.0901 137.372 20.552C137.372 20.552 139.698 23.2327 141.077 21.4185C144.81 16.4365 142.511 12.835 138.616 12.835C136.315 12.835 132.829 14.7639 129.88 19.1416C127.65 21.2581 125.467 23.301 124.956 23.7202L124.857 23.8074C124.218 24.3723 123.62 24.8997 123.414 24.668C123.198 24.4514 123.928 22.9622 124.307 22.231C125.497 20.0376 125.93 19.2253 126.579 17.9526C128.635 14.0264 126.985 12.835 124.875 12.835C123.604 12.835 119.682 13.9993 114.245 21.0935L118.654 12.8621H114.38L110.478 20.136C106.691 24.4954 102.86 27.5923 99.6008 27.5923C97.2744 27.5923 96.3276 26.2112 96.7878 24.0452C97.1663 24.397 97.6262 24.6951 98.2212 24.8577C100.574 25.5884 103.252 24.3162 105.579 21.4185C109.447 16.5718 107.012 12.835 103.09 12.835C100.76 12.835 97.1599 14.8589 94.1672 19.4653C92.063 21.4626 90.0793 23.3223 89.6072 23.7202C88.9038 24.3162 88.2546 24.9116 88.0383 24.668C87.822 24.4514 88.5522 22.9622 88.958 22.231C90.1211 20.0376 93.989 12.835 93.989 12.835L89.6885 12.8621C89.6885 12.8621 89.3811 13.4346 88.8914 14.3538L88.47 15.1455C88.1711 15.7078 87.8323 16.3469 87.4705 17.032C85.8474 19.8481 81.2761 24.668 79.7612 24.668C78.1926 24.668 79.0039 22.9622 79.4097 22.231C80.5728 20.0376 84.4407 12.835 84.4407 12.835L80.1399 12.8621L79.4702 14.1162L78.4458 16.0325C75.6458 18.7317 71.0469 23.0857 70.2939 23.7202L70.1089 23.8777C69.4795 24.415 68.9226 24.8901 68.7253 24.668C68.509 24.4514 69.239 22.9622 69.6448 22.231C69.9875 21.5847 70.6567 20.3367 71.4807 18.7998C73.4534 15.1208 76.313 9.7876 77.7056 7.09448C79.7886 3.08691 77.354 0 72.918 0C67.7517 0 65.2629 3.14111 63.126 7.01318C62.2888 8.56445 60.0093 12.9453 57.9395 16.9397C55.158 19.6123 51.416 23.1528 50.7251 23.7202ZM40.4736 26.5361C39.0942 26.5361 39.3645 24.1536 41.0959 21.2292C42.8538 18.3047 45.3965 15.9219 46.803 15.9219C48.1826 15.9219 47.9121 18.3047 46.1538 21.2292C44.4229 24.1536 41.8801 26.5361 40.4736 26.5361ZM49.1965 34.2791L49.3521 33.9756C49.4189 33.8457 49.4873 33.7134 49.5571 33.5791C49.6292 33.4404 49.7029 33.2993 49.7786 33.156C49.8274 33.0635 49.877 32.97 49.9275 32.8757L50.8469 31.0889C47.6553 33.3904 45.5996 35.0691 45.5996 36.3149C45.5996 37.2083 46.1135 37.4792 46.6545 37.4792C47.5549 37.4792 48.2236 36.1758 49.1965 34.2791ZM55.1196 22.3933L55.0085 22.3945L55.2371 22.1658L55.1196 22.3933ZM101.873 20.552C103.604 19.0901 105.064 15.9219 103.685 15.9219C102.279 15.9219 99.7358 18.2776 97.9778 21.2292C97.9236 21.3645 97.8428 21.4729 97.7615 21.6082C99.0867 22.6372 100.602 21.6082 101.873 20.552ZM154.883 15.9219C156.262 15.9219 154.802 19.0901 153.07 20.552C151.799 21.6082 150.284 22.6372 148.959 21.6082C149.04 21.4729 149.121 21.3645 149.175 21.2292C150.933 18.2776 153.476 15.9219 154.883 15.9219ZM21.8176 26.8828C21.6538 27.1619 21.4951 27.4375 21.3486 27.689C24.2151 28.7915 27.1694 30.999 30.0037 33.1167C34.439 36.4307 38.5803 39.5247 41.6296 37.8215C41.6296 37.8215 40.543 45 33.9517 45C31.0952 45 28.6826 42.085 26.0574 38.9131C23.823 36.2136 21.4346 33.3281 18.4875 31.8945C13.8157 37.9128 9.50586 39.218 5.26855 39.218C-3.4231 39.218 -2.2644 22.9761 15.5901 26.1663C15.8438 25.7676 16.0972 25.3328 16.3506 24.8613C17.075 23.6284 19.2842 19.4956 21.3486 15.6165C14.1179 14.678 11.5198 8.88818 10.9707 7.29663C9.96265 4.14453 11.9844 2.54736 11.9844 2.54736C12.0884 2.68774 12.2053 2.85352 12.3345 3.04077C12.47 3.2373 12.6189 3.45728 12.7805 3.69604L12.7827 3.69897C14.7783 6.646 18.7104 12.4519 23.123 12.2083C24.4268 9.74316 25.3684 7.93042 25.3684 7.93042L25.3872 7.89453C26.698 5.37939 29.3743 0.244385 33.9517 0.244385C41.2312 0.244385 39.5291 9.74316 34.2415 13.6223C32.3582 15 30.0042 15.7615 27.6501 16.0151C25.4771 20.1846 23.2319 24.4263 22.1814 26.2751C22.0591 26.4739 21.937 26.6792 21.8176 26.8828ZM31.8152 7.93042L31.9563 7.65332C32.6084 6.37036 33.3447 4.92139 34.459 4.92139C35.835 4.92139 35.8713 7.89429 32.9014 10.6133C32.1047 11.3384 30.946 11.9546 29.5696 12.281C30.439 10.6133 31.2356 9.09058 31.8152 7.93042ZM5.88428 35.23C2.58862 35.23 3.92871 28.4141 12.7654 30.1182C9.61475 33.9612 7.6228 35.23 5.88428 35.23Z" fill="#485BBD"/>
</svg>
