<svg width="55" height="25" viewBox="0 0 55 25" fill="none" xmlns="http://www.w3.org/2000/svg">
<path d="M12.64 0.959999C14.7733 0.959999 16.7253 1.46133 18.496 2.464C20.2667 3.44533 21.664 4.82133 22.688 6.592C23.7333 8.36267 24.256 10.3573 24.256 12.576C24.256 14.7947 23.7333 16.7893 22.688 18.56C21.664 20.3307 20.256 21.7173 18.464 22.72C16.6933 23.7227 14.752 24.224 12.64 24.224C10.5067 24.224 8.544 23.7227 6.752 22.72C4.98133 21.7173 3.57333 20.3307 2.528 18.56C1.48267 16.7893 0.96 14.7947 0.96 12.576C0.96 10.3573 1.48267 8.36267 2.528 6.592C3.57333 4.82133 4.98133 3.44533 6.752 2.464C8.544 1.46133 10.5067 0.959999 12.64 0.959999ZM12.64 7.52C11.2107 7.52 10.112 7.97867 9.344 8.896C8.576 9.792 8.192 11.0187 8.192 12.576C8.192 14.112 8.576 15.3387 9.344 16.256C10.112 17.152 11.2107 17.6 12.64 17.6C14.048 17.6 15.136 17.152 15.904 16.256C16.672 15.3387 17.056 14.112 17.056 12.576C17.056 11.0187 16.672 9.792 15.904 8.896C15.136 7.97867 14.048 7.52 12.64 7.52ZM54.0508 1.344V24H46.9788V12.704L43.4908 24H37.4108L33.9228 12.704V24H26.8188V1.344H35.5228L40.5148 14.944L45.3788 1.344H54.0508Z" fill="#5E5E5E"/>
</svg>
