<svg width="3732" height="736" viewBox="0 0 3732 736" fill="#000" xmlns="http://www.w3.org/2000/svg">
  <path
    d="M1.90735e-06 17.6C22.4 13.3333 46.9333 10.1333 73.6 7.99997C100.8 5.3333 127.733 3.99997 154.4 3.99997C182.133 3.99997 209.867 6.39997 237.6 11.2C265.867 15.4666 291.2 24.5333 313.6 38.4C336 51.7333 354.133 70.6667 368 95.2C382.4 119.2 389.6 150.667 389.6 189.6C389.6 224.8 383.467 254.667 371.2 279.2C358.933 303.2 342.667 322.933 322.4 338.4C302.133 353.867 278.933 365.067 252.8 372C227.2 378.933 200.533 382.4 172.8 382.4C170.133 382.4 165.867 382.4 160 382.4C154.133 382.4 148 382.4 141.6 382.4C135.2 381.867 128.8 381.333 122.4 380.8C116.533 380.267 112.267 379.733 109.6 379.2V572H1.90735e-06V17.6ZM163.2 98.4C152.533 98.4 142.4 98.9333 132.8 100C123.2 100.533 115.467 101.333 109.6 102.4V284C111.733 284.533 114.933 285.067 119.2 285.6C123.467 286.133 128 286.667 132.8 287.2C137.6 287.2 142.133 287.2 146.4 287.2C151.2 287.2 154.667 287.2 156.8 287.2C171.2 287.2 185.333 285.867 199.2 283.2C213.6 280.533 226.4 275.733 237.6 268.8C248.8 261.333 257.6 251.2 264 238.4C270.933 225.6 274.4 208.8 274.4 188C274.4 170.4 271.2 156 264.8 144.8C258.4 133.067 249.867 123.733 239.2 116.8C229.067 109.867 217.333 105.067 204 102.4C190.667 99.7333 177.067 98.4 163.2 98.4ZM429.575 195.2C450.908 185.6 476.242 178.133 505.575 172.8C534.908 166.933 565.575 164 597.575 164C625.308 164 648.508 167.467 667.175 174.4C685.842 180.8 700.508 190.133 711.175 202.4C722.375 214.667 730.108 229.333 734.375 246.4C739.175 263.467 741.575 282.667 741.575 304C741.575 327.467 740.775 351.2 739.175 375.2C737.575 398.667 736.508 421.867 735.975 444.8C735.975 467.733 736.775 490.133 738.375 512C739.975 533.333 743.975 553.6 750.375 572.8H665.575L648.775 517.6H644.775C634.108 534.133 619.175 548.533 599.975 560.8C581.308 572.533 557.042 578.4 527.175 578.4C508.508 578.4 491.708 575.733 476.775 570.4C461.842 564.533 449.042 556.533 438.375 546.4C427.708 535.733 419.442 523.467 413.575 509.6C407.708 495.2 404.775 479.2 404.775 461.6C404.775 437.067 410.108 416.533 420.775 400C431.975 382.933 447.708 369.333 467.975 359.2C488.775 348.533 513.308 341.333 541.575 337.6C570.375 333.333 602.375 332 637.575 333.6C641.308 303.733 639.175 282.4 631.175 269.6C623.175 256.267 605.308 249.6 577.575 249.6C556.775 249.6 534.642 251.733 511.175 256C488.242 260.267 469.308 265.867 454.375 272.8L429.575 195.2ZM561.575 492.8C582.375 492.8 598.908 488.267 611.175 479.2C623.442 469.6 632.508 459.467 638.375 448.8V396.8C621.842 395.2 605.842 394.933 590.375 396C575.442 397.067 562.108 399.467 550.375 403.2C538.642 406.933 529.308 412.267 522.375 419.2C515.442 426.133 511.975 434.933 511.975 445.6C511.975 460.533 516.242 472.267 524.775 480.8C533.842 488.8 546.108 492.8 561.575 492.8ZM974.45 396.8L988.85 459.2H993.65L1004.05 396L1064.85 172H1172.05L1050.45 532.8C1040.32 562.667 1030.45 589.867 1020.85 614.4C1011.78 639.467 1001.65 661.067 990.45 679.2C979.25 697.333 966.717 711.2 952.85 720.8C939.517 730.933 923.517 736 904.85 736C877.117 736 854.983 731.467 838.45 722.4L857.65 639.2C865.65 642.4 873.65 644 881.65 644C893.917 644 905.65 638.667 916.85 628C928.583 617.867 937.383 599.2 943.25 572L776.05 172H900.85L974.45 396.8ZM1610.88 109.6H1447.68V572H1338.08V109.6H1174.08V12H1610.88V109.6ZM1544.02 372C1544.02 304.267 1560.56 252.267 1593.63 216C1626.69 179.2 1673.09 160.8 1732.83 160.8C1764.83 160.8 1792.56 165.867 1816.03 176C1839.49 186.133 1858.96 200.533 1874.43 219.2C1889.89 237.333 1901.36 259.467 1908.83 285.6C1916.83 311.733 1920.83 340.533 1920.83 372C1920.83 439.733 1904.29 492 1871.23 528.8C1838.69 565.067 1792.56 583.2 1732.83 583.2C1700.83 583.2 1673.09 578.133 1649.63 568C1626.16 557.867 1606.43 543.733 1590.43 525.6C1574.96 506.933 1563.23 484.533 1555.23 458.4C1547.76 432.267 1544.02 403.467 1544.02 372ZM1651.23 372C1651.23 389.6 1652.83 405.867 1656.03 420.8C1659.23 435.733 1664.03 448.8 1670.43 460C1676.83 471.2 1685.09 480 1695.23 486.4C1705.89 492.267 1718.43 495.2 1732.83 495.2C1760.03 495.2 1780.29 485.333 1793.63 465.6C1806.96 445.867 1813.63 414.667 1813.63 372C1813.63 335.2 1807.49 305.6 1795.23 283.2C1782.96 260.267 1762.16 248.8 1732.83 248.8C1707.23 248.8 1687.23 258.4 1672.83 277.6C1658.43 296.8 1651.23 328.267 1651.23 372ZM2192.91 280H2401.71V529.6C2379.31 548.267 2352.38 561.867 2320.91 570.4C2289.98 578.933 2259.31 583.2 2228.91 583.2C2193.18 583.2 2159.85 577.6 2128.91 566.4C2098.51 555.2 2072.11 537.867 2049.71 514.4C2027.31 490.4 2009.71 460 1996.91 423.2C1984.11 386.4 1977.71 342.667 1977.71 292C1977.71 239.2 1985.18 194.4 2000.11 157.6C2015.58 120.267 2035.58 90.1333 2060.11 67.2C2085.18 43.7333 2113.18 26.9333 2144.11 16.8C2175.05 6.13331 2206.51 0.799963 2238.51 0.799963C2270.51 0.799963 2298.51 3.19996 2322.51 7.99997C2347.05 12.8 2366.51 17.8666 2380.91 23.2L2358.51 115.2C2345.18 109.867 2330.25 105.867 2313.71 103.2C2297.18 100 2276.11 98.4 2250.51 98.4C2227.58 98.4 2206.51 101.867 2187.31 108.8C2168.11 115.733 2151.31 127.2 2136.91 143.2C2123.05 158.667 2112.11 178.667 2104.11 203.2C2096.65 227.733 2092.91 257.6 2092.91 292.8C2092.91 326.4 2096.65 355.467 2104.11 380C2111.58 404 2121.98 424 2135.31 440C2148.65 455.467 2164.11 466.933 2181.71 474.4C2199.85 481.867 2219.05 485.6 2239.31 485.6C2253.18 485.6 2266.78 484 2280.11 480.8C2293.45 477.067 2304.65 471.733 2313.71 464.8V359.2L2192.91 346.4V280ZM2461.21 372C2461.21 304.267 2477.75 252.267 2510.81 216C2543.88 179.2 2590.28 160.8 2650.01 160.8C2682.01 160.8 2709.75 165.867 2733.21 176C2756.68 186.133 2776.15 200.533 2791.61 219.2C2807.08 237.333 2818.55 259.467 2826.01 285.6C2834.01 311.733 2838.01 340.533 2838.01 372C2838.01 439.733 2821.48 492 2788.41 528.8C2755.88 565.067 2709.75 583.2 2650.01 583.2C2618.01 583.2 2590.28 578.133 2566.81 568C2543.35 557.867 2523.61 543.733 2507.61 525.6C2492.15 506.933 2480.41 484.533 2472.41 458.4C2464.95 432.267 2461.21 403.467 2461.21 372ZM2568.41 372C2568.41 389.6 2570.01 405.867 2573.21 420.8C2576.41 435.733 2581.21 448.8 2587.61 460C2594.01 471.2 2602.28 480 2612.41 486.4C2623.08 492.267 2635.61 495.2 2650.01 495.2C2677.21 495.2 2697.48 485.333 2710.81 465.6C2724.15 445.867 2730.81 414.667 2730.81 372C2730.81 335.2 2724.68 305.6 2712.41 283.2C2700.15 260.267 2679.35 248.8 2650.01 248.8C2624.41 248.8 2604.41 258.4 2590.01 277.6C2575.61 296.8 2568.41 328.267 2568.41 372ZM2890.29 519.2C2890.29 500.533 2896.15 485.867 2907.89 475.2C2919.62 464 2935.09 458.4 2954.29 458.4C2974.55 458.4 2990.55 464 3002.29 475.2C3014.02 485.867 3019.89 500.533 3019.89 519.2C3019.89 537.867 3014.02 552.8 3002.29 564C2990.55 575.2 2974.55 580.8 2954.29 580.8C2935.09 580.8 2919.62 575.2 2907.89 564C2896.15 552.8 2890.29 537.867 2890.29 519.2ZM3382.36 547.2C3366.36 558.933 3346.9 567.733 3323.96 573.6C3301.56 580 3278.36 583.2 3254.36 583.2C3222.36 583.2 3195.16 578.133 3172.76 568C3150.9 557.867 3133.03 543.733 3119.16 525.6C3105.3 506.933 3095.16 484.533 3088.76 458.4C3082.9 432.267 3079.96 403.467 3079.96 372C3079.96 304.267 3095.16 252.267 3125.56 216C3155.96 179.2 3200.23 160.8 3258.36 160.8C3287.7 160.8 3311.16 163.2 3328.76 168C3346.9 172.8 3363.16 178.933 3377.56 186.4L3352.76 271.2C3340.5 265.333 3328.23 260.8 3315.96 257.6C3304.23 254.4 3290.63 252.8 3275.16 252.8C3246.36 252.8 3224.5 262.4 3209.56 281.6C3194.63 300.267 3187.16 330.4 3187.16 372C3187.16 389.067 3189.03 404.8 3192.76 419.2C3196.5 433.6 3202.1 446.133 3209.56 456.8C3217.03 467.467 3226.63 476 3238.36 482.4C3250.63 488.267 3264.76 491.2 3280.76 491.2C3298.36 491.2 3313.3 489.067 3325.56 484.8C3337.83 480 3348.76 474.4 3358.36 468L3382.36 547.2ZM3418.21 484L3575.81 294.4L3616.61 260H3418.21V172H3731.81V260L3575.81 452.8L3535.81 484H3731.81V572H3418.21V484Z"
    fill="#585858"/>
</svg>
