<svg width="109" height="108" viewBox="0 0 135 25" fill="none" xmlns="http://www.w3.org/2000/svg">
<g clip-path="url(#clip0)">
<path fill-rule="evenodd" clip-rule="evenodd" d="M0.322998 23.871V0.974007H9.74347C14.6178 0.974007 17.4631 3.98304 17.4631 8.20289C17.4631 12.39 14.6178 15.4318 9.74347 15.4318H5.26242V23.871H0.322998ZM5.26242 11.3432H9.44894C11.739 11.3432 12.7201 9.87123 12.7201 8.20289C12.7201 6.53449 11.739 5.06263 9.44894 5.06263H5.26242V11.3432Z" fill="#5E5E5E"/>
<path fill-rule="evenodd" clip-rule="evenodd" d="M16.708 15.628C16.708 10.7213 20.3391 7.12301 25.4094 7.12301C30.4795 7.12301 34.1101 10.7213 34.1101 15.628C34.1101 20.5348 30.4795 24.1329 25.4094 24.1329C20.3391 24.1329 16.708 20.5348 16.708 15.628ZM29.5308 15.628C29.5308 12.8801 27.8624 11.0152 25.4094 11.0152C22.9558 11.0152 21.2874 12.8801 21.2874 15.628C21.2874 18.3426 22.9558 20.2074 25.4094 20.2074C27.8624 20.2074 29.5308 18.3426 29.5308 15.628Z" fill="#5E5E5E"/>
<path d="M34.321 18.3104H38.2465C38.4097 19.7822 39.5549 20.6978 41.2555 20.6978C42.6623 20.6978 43.6435 20.0109 43.6435 19.0955C43.6435 15.7259 34.779 19.0299 34.779 12.0947C34.779 9.18371 37.2977 7.12301 40.6667 7.12301C44.6251 7.12301 47.3074 9.24947 47.471 12.4876H43.5127C43.3168 11.0808 42.0408 10.3285 40.7974 10.3285C39.522 10.3285 38.6389 10.8849 38.6389 11.9317C38.6389 15.3008 47.6669 11.4737 47.6669 18.9319C47.6669 22.0722 45.1154 24.1329 41.2555 24.1329C37.2321 24.1329 34.4847 21.8758 34.321 18.3104H34.321Z" fill="#5E5E5E"/>
<path d="M50.9312 2.51101H55.4777V7.3847H59.8936V11.1789H55.4777V17.3945C55.4777 18.9972 56.3282 19.7497 57.8 19.7497H59.8936V23.871H57.179C53.3843 23.871 50.9312 21.7125 50.9312 17.8853V11.1789H47.758V7.3847H50.9312L50.9312 2.51101Z" fill="#5E5E5E"/>
<path d="M60.495 12.4225C60.495 4.70267 65.8596 0.712006 71.9767 0.712006C77.7341 0.712006 81.9536 3.98316 82.5752 8.92258H77.4392C77.1125 6.5347 74.8554 4.93198 71.9767 4.93198C68.2805 4.93198 65.4345 7.51584 65.4345 12.4225C65.4345 17.3291 68.2805 19.8806 71.9767 19.8806C74.9205 19.8806 77.1776 18.2779 77.5699 15.9228H82.4766C82.0515 20.8293 77.8321 24.1333 71.9767 24.1333C65.7616 24.1333 60.495 20.1427 60.495 12.4225Z" fill="#5E5E5E"/>
<path d="M99.2124 7.385V23.8714H94.6331V21.5819C93.7172 23.1518 91.8851 24.1334 89.628 24.1334C85.9318 24.1334 83.511 21.4184 83.511 17.6565V7.385H88.0582V16.6425C88.0582 18.6376 89.3663 20.0771 91.2307 20.0771C93.2262 20.0771 94.6332 18.5067 94.6332 16.4132V7.385L99.2124 7.385Z" fill="#5E5E5E"/>
<path fill-rule="evenodd" clip-rule="evenodd" d="M134.53 18.2775C133.875 21.843 130.735 24.1329 126.679 24.1329C121.085 24.1329 118.207 19.7494 118.207 15.5952C118.207 11.4081 120.758 7.12301 126.352 7.12301C132.174 7.12301 134.497 11.4081 134.497 15.1701C134.497 15.7916 134.464 16.2819 134.432 16.6418H122.59C122.917 18.9642 124.389 20.4039 126.679 20.4039C128.511 20.4039 129.721 19.6837 130.081 18.2775H134.53ZM122.656 13.7632H129.95C129.82 11.9317 128.544 10.4597 126.352 10.4597C124.291 10.4597 123.048 11.4737 122.656 13.7632Z" fill="#5E5E5E"/>
<path fill-rule="evenodd" clip-rule="evenodd" d="M109.906 7.12349C107.845 7.12349 106.243 7.90877 105.327 9.11861V1.441H100.78V23.8712H105.327V22.0728C106.243 23.3482 107.943 24.1329 109.841 24.1329C114.715 24.1329 117.626 20.7639 117.626 15.6284C117.626 10.4926 114.715 7.1235 109.906 7.1235L109.906 7.12349ZM109.121 20.2078C106.668 20.2078 105.065 18.3759 105.065 15.6284C105.065 12.8475 106.668 11.0162 109.121 11.0162C111.509 11.0162 113.144 12.8475 113.144 15.6284C113.144 18.3759 111.509 20.2078 109.121 20.2078Z" fill="#5E5E5E"/>
</g>
<defs>
<clipPath id="clip0">
<rect width="134.207" height="23.4214" fill="white" transform="translate(0.322998 0.712006)"/>
</clipPath>
</defs>
</svg>
