<svg width="139" height="40" viewBox="0 0 151 40" fill="none" xmlns="http://www.w3.org/2000/svg">
<path d="M15.4089 40C14.5555 40 13.7019 39.6606 13.0516 38.9832L10.0328 35.8352C9.80799 35.6008 9.68158 35.2822 9.68158 34.9514C9.68158 34.6194 9.80799 34.302 10.0328 34.0676C10.6129 33.4634 10.9325 32.659 10.9325 31.8046C10.9325 30.949 10.6129 30.1446 10.0328 29.5402C8.8715 28.3294 6.8506 28.3294 5.68929 29.5402C5.46447 29.7746 5.15946 29.9064 4.8416 29.9064C4.52375 29.9064 4.21874 29.7746 3.99392 29.5402L0.97515 26.3922C-0.32505 25.0372 -0.32505 22.8316 0.97515 21.4766L20.5996 1.01625C21.8998 -0.33875 24.0141 -0.33875 25.3143 1.01625L28.3336 4.16424C28.5585 4.39864 28.6849 4.71724 28.6849 5.04804C28.6849 5.38004 28.5585 5.69744 28.3336 5.93184C27.753 6.53724 27.4334 7.34044 27.4334 8.19484C27.4334 9.04924 27.7536 9.85364 28.3336 10.4592C29.4944 11.6714 31.5153 11.6688 32.6766 10.4592C32.9014 10.2248 33.2064 10.093 33.5243 10.093C33.8421 10.093 34.1471 10.2248 34.372 10.4592L37.3907 13.6072C38.0188 14.2614 38.3648 15.1342 38.3648 16.0644C38.3648 16.9958 38.0188 17.8686 37.3907 18.5228L17.7663 38.9832C17.1164 39.6606 16.263 40 15.4089 40Z" fill="#F2F2F2"/>
<path d="M14.7557 16.0238V13.6014H24.4067V16.0238H20.9323V27.1035H18.2687V16.0238H14.7557Z" fill="#5E5E5E"/>
<path d="M26.0931 27.1035V13.6014H28.7567V27.1035H26.0931Z" fill="#5E5E5E"/>
<path d="M39.9352 26.8851C38.5711 27.1895 37.3423 27.3418 36.2485 27.3418C35.1547 27.3418 34.2797 27.2028 33.6234 26.9248C32.9671 26.6468 32.4524 26.2034 32.0792 25.5944C31.7061 24.9855 31.4487 24.2707 31.3072 23.45C31.1656 22.6293 31.0948 21.5968 31.0948 20.3524C31.0948 17.7447 31.4487 15.9312 32.1565 14.9119C32.8771 13.8794 34.196 13.3631 36.1134 13.3631C37.22 13.3631 38.5004 13.5418 39.9545 13.8992L39.8773 16.0834C38.6033 15.8848 37.5417 15.7855 36.6924 15.7855C35.856 15.7855 35.2576 15.9047 34.8973 16.143C34.537 16.368 34.2668 16.8048 34.0867 17.4535C33.9194 18.1021 33.8357 19.2074 33.8357 20.7694C33.8357 22.3314 34.0094 23.4169 34.3569 24.0258C34.7172 24.6215 35.4249 24.9193 36.4801 24.9193C37.5481 24.9193 38.6805 24.8267 39.8773 24.6413L39.9352 26.8851Z" fill="#5E5E5E"/>
<path d="M44.7601 27.1035H42.0964V13.6014H44.7601V19.5383L46.5358 19.3398L48.6977 13.6014H51.7281L48.8714 20.3723L51.8053 27.1035H48.7363L46.5358 21.7225L44.7601 21.9211V27.1035Z" fill="#5E5E5E"/>
<path d="M53.5381 27.1035V13.6014H62.031V15.9841H56.2018V19.1412H60.8728V21.4842H56.2018V24.7208H62.031V27.1035H53.5381Z" fill="#5E5E5E"/>
<path d="M63.0484 16.0238V13.6014H72.6994V16.0238H69.225V27.1035H66.5613V16.0238H63.0484Z" fill="#5E5E5E"/>
<path d="M78.8392 27.1035V13.3631H81.5222L85.3054 24.9789L89.0886 13.3631H91.7716V27.1035H90.2853V14.9913H90.0151L86.1354 26.6071H84.4754L80.5957 14.9913H80.3255V27.1035H78.8392Z" fill="#5E5E5E"/>
<path d="M96.0343 20.2929C96.0343 22.305 96.2916 23.7544 96.8064 24.6413C97.3211 25.515 98.3119 25.9518 99.7789 25.9518C101.259 25.9518 102.25 25.5216 102.751 24.6612C103.266 23.8008 103.523 22.3579 103.523 20.3326C103.523 18.3073 103.26 16.8313 102.732 15.9047C102.204 14.9781 101.214 14.5148 99.7596 14.5148C98.3184 14.5148 97.334 14.9781 96.8064 15.9047C96.2916 16.8181 96.0343 18.2808 96.0343 20.2929ZM105.068 20.3326C105.068 22.7815 104.688 24.5553 103.929 25.654C103.17 26.7527 101.786 27.3021 99.7789 27.3021C97.7843 27.3021 96.4075 26.7395 95.6482 25.6143C94.889 24.4891 94.5094 22.7219 94.5094 20.3127C94.5094 17.8903 94.8955 16.0966 95.6675 14.9317C96.4396 13.7536 97.8101 13.1646 99.7789 13.1646C101.748 13.1646 103.118 13.747 103.89 14.9119C104.675 16.0768 105.068 17.8837 105.068 20.3326Z" fill="#5E5E5E"/>
<path d="M107.792 27.1035V13.3631H110.572L115.687 25.7533H116.092V13.3631H117.559V27.1035H114.837L109.645 14.7133H109.278V27.1035H107.792Z" fill="#5E5E5E"/>
<path d="M122.322 27.1035H120.836V13.3631H122.322V19.7568L124.523 19.6773L127.939 13.3631H129.638L125.816 20.273L129.85 27.1035H128.094L124.542 21.0275L122.322 21.107V27.1035Z" fill="#5E5E5E"/>
</svg>
