<svg width="64" height="64" viewBox="0 0 64 64" fill="none" xmlns="http://www.w3.org/2000/svg">
<path d="M33.2027 46.232L26.6667 53.3333H21.3333V58.6667H16V64H0V50.6667L18.3067 32.136C21.1867 38.6 26.56 43.6987 33.2027 46.232ZM64 21.3333C64 33.1147 54.448 42.6667 42.6667 42.6667C30.8853 42.6667 21.3333 33.1147 21.3333 21.3333C21.3333 9.552 30.8853 0 42.6667 0C54.448 0 64 9.552 64 21.3333ZM56 13.3333C56 10.3893 53.6107 8 50.6667 8C47.7227 8 45.3333 10.3893 45.3333 13.3333C45.3333 16.2773 47.7227 18.6667 50.6667 18.6667C53.6107 18.6667 56 16.2773 56 13.3333Z" fill="#1538E5"/>
</svg>
