<svg width="64" height="64" viewBox="0 0 64 64" fill="none" xmlns="http://www.w3.org/2000/svg">
<g clip-path="url(#clip0)">
<path d="M41.2103 0C31.9917 0 23.7543 6.15733 23.7543 14.5787C23.7543 17.5653 24.829 20.5013 26.733 22.7733C26.8103 25.4427 25.245 29.2667 23.8317 32.0507C27.6157 31.3627 32.9997 29.8533 35.437 28.3573C37.4957 28.8587 39.4743 29.088 41.3383 29.088C51.645 29.088 58.6663 22.04 58.6663 14.576C58.6663 6.11467 50.373 0 41.2103 0V0ZM35.0557 18.016C34.5037 18.456 33.7277 18.6773 32.7383 18.6773C31.8903 18.6773 31.133 18.5147 30.4823 18.1867L30.8477 16.7413C31.509 17.0747 32.173 17.2427 32.853 17.2427C33.2423 17.2427 33.5463 17.1707 33.765 17.0213C34.1863 16.736 34.213 16.16 33.797 15.832C33.5997 15.6773 33.261 15.5173 32.7703 15.3547C31.3063 14.8667 30.5783 14.1067 30.5783 13.0667C30.5783 12.3947 30.8503 11.8427 31.3863 11.408C31.9223 10.9733 32.6423 10.7573 33.5383 10.7573C34.3197 10.7573 34.997 10.888 35.5863 11.1547L35.1863 12.552C34.6557 12.3013 34.093 12.1787 33.5143 12.1787C33.1597 12.1787 32.8823 12.248 32.6823 12.384C32.2823 12.656 32.293 13.144 32.6343 13.4347C32.7997 13.576 33.2023 13.7627 33.8477 13.9893C34.557 14.24 35.0717 14.5493 35.405 14.92C35.733 15.2907 35.8957 15.7493 35.8957 16.2987C35.8903 17.0027 35.613 17.576 35.0557 18.016ZM43.909 18.552C43.7863 15.5093 43.7303 13.4453 43.7303 12.3627H43.693C43.509 13.1787 42.885 15.2 41.829 18.4267H40.453C39.8183 16.2027 38.8797 12.3653 38.8797 12.3653H38.8583L38.5863 18.5547H36.9463L37.437 10.888H39.8237L41.1783 16.176L42.813 10.888H45.229L45.6397 18.5547H43.909V18.552ZM51.3277 18.0507C50.7703 18.496 49.981 18.72 48.9837 18.72C48.173 18.72 47.4103 18.576 46.6823 18.2133L47.069 16.6827C47.709 17.0107 48.365 17.2027 49.0983 17.2027C49.4797 17.2027 49.7783 17.1307 49.9863 16.9867C50.389 16.7147 50.405 16.1733 50.0183 15.8667C49.8237 15.7147 49.485 15.5573 49.0077 15.3947C47.5277 14.904 46.7783 14.1227 46.7783 13.0693C46.7783 12.3893 47.0583 11.8187 47.6077 11.3787C48.149 10.9387 48.8823 10.7173 49.781 10.7173C50.565 10.7173 51.2583 10.8507 51.845 11.1173L51.877 11.1333L51.4557 12.616C50.917 12.3627 50.3783 12.224 49.757 12.224C49.413 12.224 49.1383 12.2907 48.9437 12.4213C48.5677 12.6773 48.573 13.1333 48.901 13.4053C49.0637 13.5413 49.4663 13.728 50.0983 13.952C50.813 14.2027 51.341 14.52 51.6717 14.8933C52.005 15.272 52.1757 15.7413 52.1757 16.2987C52.1757 17.0133 51.8903 17.6027 51.3277 18.0507ZM31.9997 35.512V42.6667H10.6663V21.3333H19.7703C18.629 18.5067 18.2983 15.928 18.4957 13.3333H10.6663C7.72234 13.3333 5.33301 15.7227 5.33301 18.6667V58.6667C5.33301 61.6107 7.72234 64 10.6663 64H31.9997C34.9437 64 37.333 61.6107 37.333 58.6667V33.376C35.9757 34.1893 33.5143 35.04 31.9997 35.512ZM15.9997 56H10.6663V53.3333H15.9997V56ZM15.9997 50.6667H10.6663V48H15.9997V50.6667ZM23.9997 56H18.6663V53.3333H23.9997V56ZM23.9997 50.6667H18.6663V48H23.9997V50.6667ZM31.9997 56H26.6663V53.3333H31.9997V56ZM31.9997 50.6667H26.6663V48H31.9997V50.6667Z" fill="#1538E5"/>
</g>
<defs>
<clipPath id="clip0">
<rect width="64" height="64" fill="white"/>
</clipPath>
</defs>
</svg>
