<svg width="64" height="64" viewBox="0 0 64 64" fill="none" xmlns="http://www.w3.org/2000/svg">
<path d="M40 13.072L37.496 0H42.6773L50.6613 13.3387V16.2667C50.6613 19.112 48.176 21.3333 45.3333 21.3333C42.4907 21.3333 40 18.8453 40 16V13.072ZM32 21.3333C34.8427 21.3333 37.3333 18.8373 37.3333 15.9947V13.0667L34.5413 0H29.4587L26.6667 13.072V16C26.6667 18.8453 29.1573 21.3333 32 21.3333ZM53.3333 16C53.3333 18.8453 55.824 21.3333 58.6667 21.3333C61.5093 21.3333 64 19.0267 64 16.1813V13.256L51.0053 0H45.6347L53.3333 13.072V16ZM34.6667 52L34.7333 50.6667H8V32H56V35.1493C57.9227 35.6053 59.72 36.3733 61.3333 37.4107V26.6667H2.66667V64H39.5093C36.5147 60.8853 34.6667 56.6613 34.6667 52ZM10.6667 16.1813V13.256L18.3653 0H12.9947L0 13.256V16.184C0 19.0267 2.49067 21.3333 5.33333 21.3333C8.176 21.3333 10.6667 19.0267 10.6667 16.1813ZM13.3333 16.1813C13.3333 19.0267 15.824 21.3333 18.6667 21.3333C21.5093 21.3333 24 19.0267 24 16.1813V13.256L26.504 0H21.3227L13.3333 13.256V16.1813Z" fill="#1538E5"/>
<path fill-rule="evenodd" clip-rule="evenodd" d="M64 52C64 58.6265 58.624 64 52 64C45.3706 64 40 58.6265 40 52C40 45.3735 45.3706 40 52 40C58.624 40 64 45.3735 64 52ZM54.228 55.1621H51.762C50.106 55.1621 48.972 54.3521 48.972 52.8398C48.972 50.8877 50.5454 50.5205 51.8571 50.2148C52.7944 49.9961 53.598 49.8091 53.598 49.0962C53.598 48.4121 53.004 47.998 52.0861 47.998C51.042 47.998 50.358 48.646 50.322 49.708H48C48.054 47.458 49.692 46 52.0861 46C54.408 46 56.046 47.2598 56.046 49.2041C56.046 51.4014 54.1613 51.7725 52.7886 52.0425C52.0023 52.1973 51.384 52.3188 51.384 52.7319C51.384 53.0918 51.6541 53.2358 52.05 53.2358H54.228V55.1621ZM50.61 58.7441V56.1519H53.3101V58.7441H50.61Z" fill="#A5A5A5"/>
</svg>
