<svg width="64" height="64" viewBox="0 0 64 64" fill="none" xmlns="http://www.w3.org/2000/svg">
<g clip-path="url(#clip0)">
<path d="M10.944 0L0 11.072L50.368 61.2027L64 64L61.4373 50.1253L10.944 0ZM53.4667 57.3387C53.0213 57.7813 52.304 57.7813 51.8613 57.3387L5.82933 11.6747C5.384 11.2293 5.384 10.5147 5.82667 10.0667C6.26933 9.624 6.992 9.624 7.43467 10.0667L53.4667 55.736C53.912 56.176 53.9093 56.896 53.4667 57.3387ZM57.584 51.6533C58.0267 52.096 58.0267 52.8187 57.584 53.2613C57.1413 53.7013 56.4213 53.704 55.9787 53.2613L9.944 7.592C9.504 7.152 9.504 6.432 9.944 5.98933C10.3893 5.54667 11.1067 5.54667 11.5467 5.98667L57.584 51.6533ZM49.9707 14.1413C49.4507 13.6213 49.4507 12.776 49.9707 12.256C50.4907 11.736 51.336 11.736 51.856 12.256C52.376 12.776 52.376 13.6213 51.856 14.1413C51.336 14.6613 50.4933 14.664 49.9707 14.1413ZM29.3467 47.8507L13.2 64L0 50.912L16.1573 34.7547L19.9413 38.5147L18.856 39.6L20.7413 41.4853L18.856 43.3707L16.9707 41.4853L15.0853 43.3707L16.9707 45.256L15.0853 47.1413L13.2 45.256L11.3147 47.1413L13.2 49.0267L11.3147 50.912L9.42933 49.0267L7.544 50.9147L13.2 56.5707L25.6187 44.152L29.3467 47.8507ZM34.7733 16.1387L50.912 0L64 13.2L47.9653 29.2373L44.2373 25.536L56.5707 13.2027L50.9147 7.54667L45.2587 13.2L47.144 15.0853L45.256 16.9733L43.3707 15.088L41.4853 16.9733L43.3707 18.8587L41.4853 20.744L39.6 18.856L38.56 19.896L34.7733 16.1387Z" fill="#1538E5"/>
</g>
<defs>
<clipPath id="clip0">
<rect width="64" height="64" fill="white"/>
</clipPath>
</defs>
</svg>
