<svg width="64" height="64" viewBox="0 0 64 64" fill="none" xmlns="http://www.w3.org/2000/svg">
<g clip-path="url(#clip0)">
<path d="M16.0533 19.704C17.1173 18.944 18.32 18.592 19.4987 18.592C22.016 18.592 24.4373 20.192 25.232 22.856C24.2133 22.072 23.0187 21.6907 21.816 21.6907C20.5947 21.6907 19.3653 22.0827 18.2933 22.848C16.1627 24.368 15.2187 26.9573 16.04 29.4107C12.728 27.0373 12.7147 22.0853 16.0533 19.704ZM26.0293 53.7573C28.68 54.648 36.8853 56.92 46.3893 64L64 51.44C59.432 45.0347 60.6907 40.5547 56.152 34.192C53.0533 29.8507 51.28 29.7813 48.0533 30.3733L49.6507 32.6133C50.6133 33.9653 48.5707 35.4133 47.6133 34.064L46.1893 32.064C45.0293 30.44 42.7787 31.4533 40.7147 31.928L42.6533 34.6453C43.6133 35.992 41.5787 37.448 40.616 36.096L38.9387 33.744C37.7493 32.0747 35.424 33.1893 33.352 33.7173L35.4027 36.592C36.3707 37.9467 34.3227 39.3893 33.3653 38.0427L25.0507 26.4C22.4693 22.7787 16.816 26.6213 19.488 30.3707L31.768 47.592C30.4507 47.104 28.1333 46.6613 26.6213 46.6613C21.944 46.6613 20.144 51.7813 26.0293 53.7573ZM17.2667 48H5.33333V10.6667H32V28.5013L37.3333 27.2453V5.33333C37.3333 2.38933 34.9467 0 32 0H5.33333C2.38667 0 5.70641e-07 2.38933 5.70641e-07 5.33333V55.1413C-0.0026661 61.0427 9.34133 64 18.68 64C23.512 64 28.3307 63.2027 31.864 61.616C26.208 59.0933 14.856 57.4133 17.2667 48Z" fill="#1538E5"/>
</g>
<defs>
<clipPath id="clip0">
<rect width="64" height="64" fill="white"/>
</clipPath>
</defs>
</svg>
