<svg width="64" height="64" viewBox="0 0 64 64" fill="none" xmlns="http://www.w3.org/2000/svg">
<g clip-path="url(#clip0)">
<path d="M12 0.685333L22.056 10.7413C23.1467 15.7787 15.8427 23.168 10.744 22.0533L0.688 12C0.229333 13.5573 0 15.168 0 16.7787C0 21.0507 1.61867 25.3173 4.88 28.5813C8.48267 32.184 13.3173 33.8027 18.0293 33.4373C20.5173 33.2453 22.968 34.1547 24.7333 35.92L50.4987 61.6853C52.04 63.2267 54.064 64 56.0907 64C60.52 64 64.0933 60.3627 64 55.92C63.9573 53.9547 63.184 52 61.6853 50.4987L35.92 24.7307C34.1547 22.968 33.248 20.5147 33.4373 18.0267C33.8027 13.3147 32.1813 8.48 28.584 4.88C25.3173 1.616 21.0507 0 16.776 0C15.168 0 13.5573 0.229333 12 0.685333ZM58.6667 56C58.6667 57.4747 57.4747 58.6667 56 58.6667C54.5253 58.6667 53.3333 57.472 53.3333 56C53.3333 54.528 54.5253 53.3333 56 53.3333C57.4747 53.3333 58.6667 54.5253 58.6667 56Z" fill="#1538E5"/>
</g>
<defs>
<clipPath id="clip0">
<rect width="64" height="64" fill="white"/>
</clipPath>
</defs>
</svg>
