<svg width="307" height="57" viewBox="0 0 307 57" fill="none" xmlns="http://www.w3.org/2000/svg">
<title>[image logo] Debnk</title>
<g clip-path="url(#clip0_471:6)">
<path d="M238.977 47.5352C238.813 47.6174 238.635 47.7132 238.47 47.7954C238.073 47.453 237.621 47.1381 237.279 46.7409C235.814 45.0153 234.417 43.235 232.951 41.5094C229.856 37.894 226.679 34.347 223.625 30.6904C219.339 25.5685 215.148 20.3644 210.889 15.2151C207.027 10.5451 203.165 5.87513 199.193 1.30101C198.604 0.629959 197.481 0.19172 196.564 0.0958553C194.879 -0.0958742 193.14 0.13694 191.442 -9.43639e-06C189.757 -0.136959 189.347 0.493009 189.347 2.12271C189.401 18.8443 189.36 35.5521 189.388 52.2737C189.388 56.5876 188.785 55.985 193.058 56.0124C195.55 56.0261 195.564 56.0124 195.55 53.5747C195.55 38.9759 195.55 24.3633 195.55 9.7645C195.55 9.2304 195.633 8.69629 195.701 7.95676C196.126 8.21697 196.345 8.28544 196.468 8.43609C199.714 12.1337 203 15.804 206.178 19.5564C209.821 23.8703 213.326 28.2938 216.942 32.6351C223.118 40.0304 229.308 47.4257 235.581 54.7388C236.156 55.4098 237.265 55.8344 238.183 55.9439C239.758 56.1356 241.374 55.9987 242.962 55.9987C245.414 55.9987 245.414 55.9987 245.414 53.5747C245.414 37.1407 245.414 20.7205 245.414 4.28651C245.414 -0.0684843 245.427 -9.43671e-06 241.072 -0.0137044C239.402 -0.0137044 238.95 0.575179 238.963 2.20488C239.018 16.5298 238.991 30.841 238.991 45.166C238.977 45.974 238.977 46.7546 238.977 47.5352Z" fill="black"/>
<path d="M65.0922 27.9514C65.0922 36.5107 65.0922 45.0701 65.0922 53.6295C65.0922 55.9987 65.1333 56.0398 67.4614 56.0398C82.5806 56.0398 97.6999 56.0398 112.819 56.0398C116.27 56.0398 116.27 56.0398 116.257 52.616C116.243 49.8086 116.243 49.7949 113.408 49.7949C100.179 49.7949 86.9356 49.7949 73.7063 49.7949C71.5425 49.7949 71.3371 49.6168 71.3371 47.4941C71.3234 42.7557 71.4192 38.0172 71.3097 33.2924C71.2686 31.4984 71.9397 31.1012 73.6104 31.1149C83.6488 31.1834 93.6873 31.156 103.739 31.156C107.478 31.156 107.478 31.156 107.478 27.4584C107.478 24.87 107.41 24.8016 104.78 24.8016C94.4542 24.8016 84.1282 24.8152 73.8022 24.8152C71.474 24.8152 71.3508 24.7057 71.3508 22.4323C71.3508 17.8719 71.3508 13.2978 71.3508 8.73736C71.3508 6.28596 71.474 6.16271 73.9802 6.16271C86.8124 6.16271 99.6583 6.1764 112.49 6.1764C116.27 6.1764 116.27 6.1764 116.27 2.41029C116.27 0.150622 116.215 0.0684517 114.024 0.0684517C98.3572 0.0410618 82.7313 0.0684517 67.0916 0.0136719C65.4893 0.0136719 65.0511 0.547775 65.0511 2.09531C65.1196 10.7231 65.0922 19.3373 65.0922 27.9514Z" fill="black"/>
<path d="M306.836 0.671083C306.754 0.506743 306.685 0.356099 306.603 0.191759C304.247 0.191759 301.892 0.150674 299.536 0.232844C299.125 0.246539 298.646 0.725863 298.331 1.09563C295.565 4.38242 292.826 7.71029 290.059 11.0108C286.622 15.0782 283.089 19.0634 279.761 23.2267C278.857 24.3634 277.967 24.8016 276.638 24.8016C272.078 24.7742 267.517 24.7879 262.943 24.7879C260.437 24.7879 260.437 24.7742 260.437 22.1859C260.437 16.0231 260.451 9.8604 260.437 3.69767C260.437 0.0548096 260.423 0.0548096 256.671 0.0548096C254.096 0.0548096 254.096 0.0548096 254.096 2.58838C254.096 19.0223 254.096 35.4426 254.11 51.8766C254.11 56.752 253.617 55.8755 258.314 56.0809C260.136 56.1631 260.506 55.4646 260.478 53.8075C260.396 47.0833 260.437 40.3454 260.451 33.6075C260.451 31.1424 260.478 31.1424 262.861 31.1424C267.312 31.1424 271.763 31.1698 276.214 31.1287C277.706 31.115 278.706 31.4574 279.788 32.7721C285.554 39.825 291.593 46.6725 297.427 53.6843C298.632 55.136 299.687 56.2726 301.755 56.0672C303.453 55.9029 305.192 56.0261 306.918 56.0261C306.945 55.8481 306.986 55.6701 307.014 55.492C305.603 53.7391 304.234 51.945 302.796 50.2195C297.359 43.7691 291.894 37.3462 286.458 30.8959C285.732 30.0468 284.65 29.1155 284.609 28.1843C284.568 27.3078 285.691 26.3765 286.293 25.4727C286.485 25.1851 286.608 24.8564 286.814 24.5962C292.168 18.228 297.537 11.8599 302.905 5.47802C304.22 3.8894 305.521 2.27339 306.836 0.671083Z" fill="black"/>
<path d="M124.706 28.0335C124.706 19.4194 124.747 10.8053 124.679 2.20484C124.665 0.534057 125.24 0.0273438 126.843 0.0273438C140.757 0.0684286 154.671 0.0821236 168.585 0.0410387C172.255 0.0273438 175.172 1.45162 177.007 4.51929C177.87 5.95726 178.254 7.86086 178.336 9.57273C178.528 13.4347 178.404 17.3241 178.391 21.1998C178.391 21.7065 178.418 22.2817 178.213 22.7199C177.103 25.007 177.706 26.801 179.185 28.8142C180.185 30.17 180.678 32.1694 180.719 33.9087C180.828 38.7978 180.801 43.7143 180.431 48.5897C180.198 51.6847 178.089 53.8759 175.282 55.04C173.693 55.6974 171.858 55.985 170.119 55.985C155.753 56.0534 141.373 56.0261 127.007 56.0261C124.83 56.0261 124.706 55.8891 124.706 53.6842C124.706 45.1386 124.706 36.5929 124.706 28.0335ZM152.836 49.7811C158.82 49.7675 164.805 49.7948 170.79 49.7538C173.091 49.7401 174.364 48.439 174.378 46.1794C174.405 42.2489 174.405 38.3048 174.392 34.3743C174.378 31.5258 173.734 30.7862 170.872 30.7725C158.848 30.7178 146.81 30.7041 134.786 30.7315C131.965 30.7451 131.321 31.4847 131.294 34.388C131.253 38.2089 131.253 42.0298 131.294 45.8507C131.321 48.8088 132.362 49.7675 135.402 49.7675C141.195 49.7948 147.015 49.7811 152.836 49.7811ZM151.576 24.1716C157.163 24.1716 162.751 24.199 168.338 24.1716C170.708 24.1579 172.118 22.8158 172.159 20.4054C172.228 16.9269 172.228 13.4484 172.159 9.96989C172.105 7.69652 170.639 6.19008 168.407 6.19008C157.177 6.14899 145.947 6.14899 134.717 6.17638C132.636 6.17638 131.389 7.35415 131.335 9.3947C131.253 13.2704 131.239 17.146 131.321 21.0217C131.376 23.3636 132.307 24.1579 134.649 24.1579C140.291 24.1853 145.934 24.1716 151.576 24.1716Z" fill="black"/>
<path d="M0 27.9925C0 19.5016 0 10.9971 0 2.49249C0 0.164344 0.10956 0.0547843 2.39662 0.0547843C16.6531 0.0547843 30.9232 0.0684793 45.1797 0.0273944C47.9872 0.0136995 50.6851 0.328684 52.7941 2.27337C53.876 3.2731 54.9031 4.61521 55.3003 5.9984C55.8891 7.98417 56.0946 10.148 56.1083 12.2296C56.1767 23.0623 56.1904 33.9087 56.0809 44.7414C56.0535 47.1928 55.8207 49.6853 54.2868 51.8765C52.3148 54.7251 49.5484 55.8618 46.289 55.9987C43.4952 56.1083 40.7014 56.0261 37.9077 56.0261C26.1574 56.0261 14.4071 56.0261 2.65682 56.0261C0.05478 56.0261 0 55.9576 0 53.3145C0 44.8784 0 36.4423 0 27.9925ZM6.34077 27.9377C6.34077 33.9224 6.32707 39.9208 6.35446 45.9055C6.36816 48.4254 7.69657 49.7675 10.2438 49.7675C22.1174 49.7949 33.9772 49.7949 45.8507 49.7812C48.3158 49.7812 49.6716 48.4528 49.6853 46.0151C49.7127 34.032 49.7127 22.0489 49.6853 10.0658C49.6853 7.42267 48.4528 6.19013 45.796 6.17643C33.9909 6.14904 22.1721 6.14904 10.3671 6.17643C7.62809 6.17643 6.36816 7.51854 6.36816 10.3123C6.32707 16.1738 6.34077 22.0626 6.34077 27.9377Z" fill="black"/>
<path d="M238.977 47.5352C238.977 46.7545 238.977 45.9739 238.977 45.1933C238.977 30.8684 239.004 16.5572 238.95 2.23222C238.95 0.602523 239.402 0.0136393 241.059 0.0136393C245.414 0.0136393 245.4 -0.0411405 245.4 4.31386C245.4 20.7478 245.4 37.1681 245.4 53.602C245.4 56.0397 245.4 56.026 242.949 56.026C241.346 56.026 239.73 56.163 238.169 55.9713C237.252 55.8617 236.142 55.4372 235.567 54.7661C229.308 47.4393 223.105 40.0577 216.928 32.6624C213.313 28.3348 209.807 23.8977 206.164 19.5837C202.987 15.8176 199.7 12.1611 196.454 8.46343C196.317 8.31279 196.112 8.24431 195.687 7.98411C195.619 8.72364 195.537 9.25774 195.537 9.79184C195.537 24.3907 195.537 39.0032 195.537 53.602C195.537 56.026 195.523 56.0534 193.044 56.0397C188.771 56.0123 189.374 56.6149 189.374 52.301C189.347 35.5795 189.388 18.8716 189.333 2.15005C189.333 0.520353 189.744 -0.109615 191.428 0.0273343C193.126 0.164284 194.866 -0.0685304 196.55 0.123199C197.468 0.232759 198.591 0.657303 199.18 1.32836C203.151 5.90247 207.013 10.5725 210.875 15.2424C215.134 20.3917 219.325 25.5958 223.611 30.7177C226.665 34.3743 229.843 37.9213 232.938 41.5368C234.403 43.2486 235.814 45.029 237.265 46.7682C237.608 47.1654 238.06 47.4667 238.457 47.8228C238.635 47.7132 238.799 47.631 238.977 47.5352Z" fill="black"/>
<path d="M65.0921 27.9514C65.0921 19.3372 65.1195 10.7231 65.0648 2.10898C65.0511 0.561453 65.503 0.0136544 67.1053 0.0273493C82.7313 0.0821292 98.3709 0.0547393 113.997 0.0684342C116.188 0.0684342 116.243 0.150604 116.243 2.41027C116.243 6.17639 116.243 6.17639 112.463 6.17639C99.6308 6.17639 86.785 6.16269 73.9528 6.16269C71.4466 6.16269 71.3234 6.28595 71.3234 8.73735C71.3234 13.2978 71.3097 17.8719 71.3234 22.4323C71.3234 24.7057 71.4603 24.8152 73.7748 24.8152C84.1008 24.8015 94.4268 24.8015 104.753 24.8015C107.382 24.8015 107.451 24.87 107.451 27.4584C107.451 31.156 107.451 31.156 103.712 31.156C93.6735 31.156 83.6351 31.1834 73.583 31.1149C71.9122 31.1012 71.2412 31.5121 71.2823 33.2924C71.3781 38.0309 71.296 42.7556 71.3097 47.4941C71.3097 49.6168 71.5151 49.7948 73.6789 49.7948C86.9082 49.7948 100.151 49.7948 113.381 49.7948C116.215 49.7948 116.215 49.8085 116.229 52.616C116.243 56.0397 116.243 56.0397 112.792 56.0397C97.6725 56.0397 82.5532 56.0397 67.434 56.0397C65.1058 56.0397 65.0648 55.9987 65.0648 53.6294C65.0921 45.0701 65.0921 36.5107 65.0921 27.9514Z" fill="black"/>
<path d="M306.836 0.671007C305.521 2.27332 304.22 3.90302 302.892 5.49163C297.537 11.8735 292.168 18.228 286.8 24.6098C286.581 24.87 286.458 25.1987 286.28 25.4863C285.677 26.3902 284.554 27.3214 284.595 28.1979C284.636 29.1291 285.718 30.0604 286.444 30.9095C291.881 37.3598 297.345 43.7828 302.782 50.2331C304.234 51.9586 305.603 53.7527 307 55.5056C306.973 55.6837 306.932 55.8617 306.904 56.0397C305.179 56.0397 303.453 55.9028 301.741 56.0808C299.66 56.2863 298.619 55.1633 297.414 53.6979C291.593 46.6861 285.554 39.8386 279.774 32.7857C278.693 31.4573 277.693 31.1286 276.2 31.1423C271.749 31.1834 267.298 31.156 262.847 31.156C260.465 31.156 260.437 31.156 260.437 33.6211C260.423 40.359 260.382 47.0832 260.465 53.8212C260.478 55.4783 260.122 56.163 258.301 56.0945C253.617 55.9028 254.096 56.7656 254.096 51.8902C254.083 35.4562 254.096 19.036 254.083 2.602C254.083 0.0821234 254.083 0.0821235 256.657 0.0684286C260.41 0.0547336 260.41 0.0547335 260.423 3.71129C260.437 9.87402 260.423 16.0368 260.423 22.1995C260.423 24.7878 260.423 24.8015 262.93 24.8015C267.49 24.8015 272.064 24.7878 276.625 24.8152C277.967 24.8152 278.843 24.377 279.747 23.2403C283.075 19.077 286.608 15.0918 290.046 11.0244C292.812 7.73761 295.551 4.40973 298.317 1.10925C298.632 0.739482 299.112 0.260158 299.523 0.246463C301.878 0.164293 304.234 0.205378 306.589 0.205378C306.685 0.342328 306.753 0.506667 306.836 0.671007Z" fill="black"/>
</g>
<defs>
<clipPath id="clip0_471:6">
<rect width="307" height="56.0946" fill="white"/>
</clipPath>
</defs>
</svg>
