<svg width="236" height="60" viewBox="0 0 236 60" fill="none" xmlns="http://www.w3.org/2000/svg">
<path d="M73.8711 24H76.4961V9.36328H81.6992V7.08984H68.668V9.36328H73.8711V24ZM86.1641 24.2461C87.3516 24.2461 88.3828 23.9883 89.2578 23.4727C90.1406 22.9492 90.8242 22.207 91.3086 21.2461C91.8008 20.2852 92.0469 19.1367 92.0469 17.8008V17.7773C92.0469 16.4492 91.8008 15.3086 91.3086 14.3555C90.8242 13.3945 90.1406 12.6562 89.2578 12.1406C88.375 11.6172 87.3398 11.3555 86.1523 11.3555C84.9727 11.3555 83.9414 11.6172 83.0586 12.1406C82.1758 12.6562 81.4883 13.3945 80.9961 14.3555C80.5117 15.3164 80.2695 16.457 80.2695 17.7773V17.8008C80.2695 19.1289 80.5117 20.2773 80.9961 21.2461C81.4883 22.207 82.1758 22.9492 83.0586 23.4727C83.9414 23.9883 84.9766 24.2461 86.1641 24.2461ZM86.1758 22.1133C85.4961 22.1133 84.9102 21.9453 84.418 21.6094C83.9258 21.2656 83.543 20.7734 83.2695 20.1328C83.0039 19.4922 82.8711 18.7148 82.8711 17.8008V17.7773C82.8711 16.8711 83.0039 16.1016 83.2695 15.4688C83.543 14.8281 83.9258 14.3398 84.418 14.0039C84.918 13.6602 85.4961 13.4883 86.1523 13.4883C86.8242 13.4883 87.4062 13.6562 87.8984 13.9922C88.3906 14.3281 88.7695 14.8164 89.0352 15.457C89.3086 16.0977 89.4453 16.8711 89.4453 17.7773V17.8008C89.4453 18.7148 89.3125 19.4922 89.0469 20.1328C88.7812 20.7734 88.4023 21.2656 87.9102 21.6094C87.4258 21.9453 86.8477 22.1133 86.1758 22.1133ZM94.1914 28.125H96.7461V21.9375H96.8281C97.0703 22.4141 97.3828 22.8242 97.7656 23.168C98.1484 23.5117 98.5898 23.7773 99.0898 23.9648C99.5977 24.1445 100.141 24.2344 100.719 24.2344C101.766 24.2344 102.672 23.9727 103.438 23.4492C104.211 22.9258 104.809 22.1836 105.23 21.2227C105.66 20.2617 105.875 19.125 105.875 17.8125V17.8008C105.875 16.4805 105.66 15.3398 105.23 14.3789C104.809 13.418 104.207 12.6758 103.426 12.1523C102.652 11.6289 101.742 11.3672 100.695 11.3672C100.109 11.3672 99.5664 11.4609 99.0664 11.6484C98.5742 11.8359 98.1367 12.1016 97.7539 12.4453C97.3789 12.7891 97.0703 13.207 96.8281 13.6992H96.7461V11.6016H94.1914V28.125ZM100.016 22.0547C99.3672 22.0547 98.7969 21.8828 98.3047 21.5391C97.8125 21.1875 97.4258 20.6953 97.1445 20.0625C96.8633 19.4219 96.7227 18.6719 96.7227 17.8125V17.8008C96.7227 16.9336 96.8594 16.1836 97.1328 15.5508C97.4141 14.9102 97.8008 14.418 98.293 14.0742C98.793 13.7227 99.3672 13.5469 100.016 13.5469C100.688 13.5469 101.266 13.7188 101.75 14.0625C102.242 14.3984 102.617 14.8867 102.875 15.5273C103.141 16.1602 103.273 16.918 103.273 17.8008V17.8125C103.273 18.6797 103.141 19.4336 102.875 20.0742C102.617 20.707 102.242 21.1953 101.75 21.5391C101.266 21.8828 100.688 22.0547 100.016 22.0547ZM108.324 24H110.727V11.543H111.957L109.215 7.55859L115.906 24H117.84L124.531 7.55859L121.789 11.543H123.008V24H125.41V7.08984H122.375L116.926 20.5664H116.82L111.371 7.08984H108.324V24ZM133.766 24.2461C134.953 24.2461 135.984 23.9883 136.859 23.4727C137.742 22.9492 138.426 22.207 138.91 21.2461C139.402 20.2852 139.648 19.1367 139.648 17.8008V17.7773C139.648 16.4492 139.402 15.3086 138.91 14.3555C138.426 13.3945 137.742 12.6562 136.859 12.1406C135.977 11.6172 134.941 11.3555 133.754 11.3555C132.574 11.3555 131.543 11.6172 130.66 12.1406C129.777 12.6562 129.09 13.3945 128.598 14.3555C128.113 15.3164 127.871 16.457 127.871 17.7773V17.8008C127.871 19.1289 128.113 20.2773 128.598 21.2461C129.09 22.207 129.777 22.9492 130.66 23.4727C131.543 23.9883 132.578 24.2461 133.766 24.2461ZM133.777 22.1133C133.098 22.1133 132.512 21.9453 132.02 21.6094C131.527 21.2656 131.145 20.7734 130.871 20.1328C130.605 19.4922 130.473 18.7148 130.473 17.8008V17.7773C130.473 16.8711 130.605 16.1016 130.871 15.4688C131.145 14.8281 131.527 14.3398 132.02 14.0039C132.52 13.6602 133.098 13.4883 133.754 13.4883C134.426 13.4883 135.008 13.6562 135.5 13.9922C135.992 14.3281 136.371 14.8164 136.637 15.457C136.91 16.0977 137.047 16.8711 137.047 17.7773V17.8008C137.047 18.7148 136.914 19.4922 136.648 20.1328C136.383 20.7734 136.004 21.2656 135.512 21.6094C135.027 21.9453 134.449 22.1133 133.777 22.1133ZM141.793 24H144.348V16.7578C144.348 16.1094 144.469 15.5469 144.711 15.0703C144.953 14.5859 145.293 14.2109 145.73 13.9453C146.176 13.6797 146.695 13.5469 147.289 13.5469C148.172 13.5469 148.832 13.7969 149.27 14.2969C149.707 14.7969 149.926 15.5234 149.926 16.4766V24H152.48V15.9727C152.48 14.5352 152.105 13.4062 151.355 12.5859C150.613 11.7656 149.559 11.3555 148.191 11.3555C147.262 11.3555 146.48 11.5508 145.848 11.9414C145.223 12.3242 144.75 12.8359 144.43 13.4766H144.348V11.6016H141.793V24ZM155.246 24H157.801V6.9375H155.246V24ZM163.074 24H166.039L160.367 16.4531L158.668 18.2344L163.074 24ZM157.391 19.9453L159.559 17.7656L160.051 17.625L165.828 11.6016H162.84L157.883 16.875H157.367L157.391 19.9453ZM171.723 24.2461C172.699 24.2461 173.566 24.0859 174.324 23.7656C175.09 23.4375 175.691 22.9883 176.129 22.418C176.566 21.8398 176.785 21.1719 176.785 20.4141V20.4023C176.785 19.5117 176.512 18.8008 175.965 18.2695C175.426 17.7305 174.531 17.3164 173.281 17.0273L171.266 16.5703C170.602 16.4141 170.125 16.207 169.836 15.9492C169.547 15.6836 169.402 15.3594 169.402 14.9766V14.9648C169.402 14.6289 169.492 14.3398 169.672 14.0977C169.859 13.8555 170.121 13.668 170.457 13.5352C170.801 13.3945 171.199 13.3242 171.652 13.3242C172.371 13.3242 172.938 13.4883 173.352 13.8164C173.773 14.1445 174.023 14.5703 174.102 15.0938L174.113 15.1758H176.504L176.492 15.0586C176.453 14.3555 176.234 13.7266 175.836 13.1719C175.438 12.6172 174.883 12.1758 174.172 11.8477C173.469 11.5195 172.633 11.3555 171.664 11.3555C170.711 11.3555 169.871 11.5156 169.145 11.8359C168.426 12.1484 167.863 12.5859 167.457 13.1484C167.059 13.7031 166.859 14.3516 166.859 15.0938V15.1055C166.859 16.0039 167.148 16.7383 167.727 17.3086C168.312 17.8789 169.191 18.3008 170.363 18.5742L172.379 19.0312C173.059 19.1953 173.531 19.4023 173.797 19.6523C174.07 19.9023 174.207 20.2266 174.207 20.625V20.6367C174.207 20.9727 174.105 21.2656 173.902 21.5156C173.699 21.7578 173.414 21.9453 173.047 22.0781C172.688 22.2109 172.25 22.2773 171.734 22.2773C170.961 22.2773 170.355 22.1211 169.918 21.8086C169.48 21.4961 169.199 21.0664 169.074 20.5195L169.062 20.4258H166.531L166.543 20.5078C166.629 21.25 166.883 21.9023 167.305 22.4648C167.734 23.0273 168.32 23.4648 169.062 23.7773C169.805 24.0898 170.691 24.2461 171.723 24.2461Z" fill="url(#paint0_linear_102_158)"/>
<path d="M145.956 45.2734C146.863 45.2734 147.638 45.1344 148.28 44.8564C148.923 44.5785 149.413 44.1865 149.75 43.6807C150.092 43.1702 150.263 42.571 150.263 41.8828V41.876C150.263 41.0511 150.007 40.4131 149.497 39.9619C148.991 39.5062 148.207 39.1803 147.146 38.9844L146.154 38.7998C145.662 38.7087 145.304 38.597 145.081 38.4648C144.858 38.3281 144.746 38.1367 144.746 37.8906V37.8838C144.746 37.7334 144.792 37.599 144.883 37.4805C144.974 37.3574 145.108 37.2617 145.286 37.1934C145.468 37.1204 145.692 37.084 145.956 37.084C146.22 37.084 146.455 37.1204 146.66 37.1934C146.865 37.2663 147.029 37.3688 147.152 37.501C147.28 37.6286 147.36 37.7835 147.392 37.9658L147.405 38.041H150.064L150.058 37.9658C150.003 37.3551 149.816 36.8174 149.497 36.3525C149.178 35.8831 148.722 35.5186 148.13 35.2588C147.537 34.9945 146.801 34.8623 145.922 34.8623C145.143 34.8623 144.448 34.9967 143.837 35.2656C143.231 35.5345 142.752 35.915 142.401 36.4072C142.05 36.8994 141.875 37.4827 141.875 38.1572V38.1641C141.875 38.9479 142.117 39.5905 142.6 40.0918C143.083 40.5885 143.853 40.9372 144.91 41.1377L145.901 41.3223C146.448 41.4225 146.833 41.5296 147.057 41.6436C147.28 41.7529 147.392 41.9261 147.392 42.1631V42.1699C147.392 42.3385 147.335 42.4912 147.221 42.6279C147.107 42.7601 146.945 42.8649 146.735 42.9424C146.53 43.0153 146.282 43.0518 145.99 43.0518C145.699 43.0518 145.441 43.013 145.218 42.9355C144.999 42.8581 144.826 42.7533 144.698 42.6211C144.571 42.4889 144.495 42.3408 144.473 42.1768L144.466 42.1221H141.711L141.718 42.2588C141.75 42.8923 141.939 43.4346 142.285 43.8857C142.636 44.3324 143.121 44.6764 143.741 44.918C144.366 45.1549 145.104 45.2734 145.956 45.2734ZM155.479 45.1914C156.144 45.1914 156.704 45.1071 157.16 44.9385C157.62 44.7699 157.994 44.5579 158.281 44.3027C158.568 44.043 158.787 43.7741 158.938 43.4961C159.088 43.2135 159.188 42.9629 159.238 42.7441L159.259 42.6553L156.729 42.6621L156.716 42.6826C156.688 42.7236 156.629 42.792 156.538 42.8877C156.447 42.9788 156.319 43.0654 156.155 43.1475C155.991 43.2249 155.784 43.2637 155.533 43.2637C155.26 43.2637 155.025 43.2044 154.829 43.0859C154.638 42.9629 154.49 42.7874 154.385 42.5596C154.285 42.3271 154.234 42.0492 154.234 41.7256V40.5908C154.234 40.2673 154.285 39.9915 154.385 39.7637C154.49 39.5312 154.633 39.3558 154.815 39.2373C155.002 39.1143 155.219 39.0527 155.465 39.0527C155.715 39.0527 155.932 39.1143 156.114 39.2373C156.297 39.3558 156.438 39.5312 156.538 39.7637C156.643 39.9915 156.695 40.2673 156.695 40.5908V41.7119L157.98 40.2148H152.874V41.7666H159.293V40.9941C159.293 40.2057 159.133 39.5221 158.814 38.9434C158.495 38.3646 158.042 37.918 157.454 37.6035C156.871 37.2845 156.183 37.125 155.39 37.125C154.592 37.125 153.902 37.2868 153.318 37.6104C152.74 37.9294 152.291 38.3896 151.972 38.9912C151.653 39.5928 151.493 40.3128 151.493 41.1514V41.1582C151.493 41.9967 151.653 42.7168 151.972 43.3184C152.295 43.9199 152.753 44.3825 153.346 44.7061C153.943 45.0296 154.654 45.1914 155.479 45.1914ZM164.317 45.1914C165.037 45.1914 165.66 45.0684 166.184 44.8223C166.712 44.5716 167.127 44.2139 167.428 43.749C167.733 43.2842 167.906 42.7282 167.947 42.0811L167.94 42.0674L165.418 42.0742H165.404C165.368 42.4251 165.261 42.6872 165.083 42.8604C164.91 43.029 164.661 43.1133 164.338 43.1133C164.064 43.1133 163.841 43.0449 163.668 42.9082C163.499 42.7715 163.374 42.5596 163.292 42.2725C163.21 41.9808 163.169 41.6094 163.169 41.1582V41.1445C163.169 40.6934 163.21 40.3265 163.292 40.0439C163.374 39.7568 163.499 39.5449 163.668 39.4082C163.841 39.2715 164.064 39.2031 164.338 39.2031C164.661 39.2031 164.91 39.2965 165.083 39.4834C165.261 39.6657 165.37 39.9391 165.411 40.3037L165.418 40.3105H167.94H167.954C167.909 39.627 167.738 39.0482 167.441 38.5742C167.145 38.1003 166.733 37.7402 166.204 37.4941C165.68 37.248 165.051 37.125 164.317 37.125C163.438 37.125 162.702 37.2754 162.109 37.5762C161.517 37.877 161.07 38.3258 160.77 38.9229C160.473 39.5153 160.325 40.2559 160.325 41.1445V41.1582C160.325 42.0469 160.473 42.792 160.77 43.3936C161.07 43.9906 161.517 44.4395 162.109 44.7402C162.702 45.041 163.438 45.1914 164.317 45.1914ZM171.816 45.1914C172.35 45.1914 172.805 45.0638 173.184 44.8086C173.566 44.5488 173.835 44.207 173.99 43.7832H174.127V45H176.93V37.3164H174.127V41.6572C174.127 41.9033 174.086 42.1243 174.004 42.3203C173.922 42.5117 173.803 42.6621 173.648 42.7715C173.493 42.8809 173.304 42.9355 173.081 42.9355C172.726 42.9355 172.464 42.8239 172.295 42.6006C172.131 42.3727 172.049 42.0583 172.049 41.6572V37.3164H169.246V42.2793C169.246 42.8945 169.342 43.4209 169.533 43.8584C169.729 44.2913 170.016 44.6217 170.395 44.8496C170.777 45.0775 171.251 45.1914 171.816 45.1914ZM178.707 45H181.51V41.1445C181.51 40.7936 181.576 40.4974 181.708 40.2559C181.845 40.0143 182.043 39.832 182.303 39.709C182.567 39.5814 182.888 39.5176 183.267 39.5176C183.449 39.5176 183.633 39.5312 183.82 39.5586C184.012 39.5859 184.194 39.6247 184.367 39.6748V37.3506C184.23 37.3005 184.087 37.264 183.937 37.2412C183.786 37.2184 183.631 37.207 183.472 37.207C182.993 37.207 182.594 37.3255 182.275 37.5625C181.956 37.7995 181.747 38.1344 181.646 38.5674H181.51V37.3164H178.707V45ZM185.557 45H188.359V37.3164H185.557V45ZM186.958 36.4277C187.35 36.4277 187.685 36.2933 187.963 36.0244C188.245 35.751 188.387 35.4206 188.387 35.0332C188.387 34.6413 188.245 34.3109 187.963 34.042C187.685 33.7686 187.35 33.6318 186.958 33.6318C186.571 33.6318 186.236 33.7686 185.953 34.042C185.671 34.3109 185.529 34.6413 185.529 35.0332C185.529 35.4206 185.671 35.751 185.953 36.0244C186.236 36.2933 186.571 36.4277 186.958 36.4277ZM193.767 45C194.035 45 194.286 44.9909 194.519 44.9727C194.756 44.9499 194.94 44.9248 195.072 44.8975V42.9424C194.99 42.9515 194.901 42.9606 194.806 42.9697C194.715 42.9743 194.594 42.9766 194.443 42.9766C194.152 42.9766 193.933 42.915 193.787 42.792C193.646 42.6644 193.575 42.4798 193.575 42.2383V39.3398H195.072V37.3164H193.575V35.6279H190.772V37.3164H189.617V39.3398H190.772V42.8604C190.772 43.6169 191.003 44.1637 191.463 44.501C191.928 44.8337 192.696 45 193.767 45ZM197.766 47.7207C198.568 47.7207 199.26 47.6159 199.844 47.4062C200.432 47.2012 200.924 46.8639 201.32 46.3945C201.721 45.9297 202.043 45.3099 202.284 44.5352L204.533 37.3164H201.573L200.24 43.5029L200.644 42.6621H200.015L200.459 43.5029L199.126 37.3164H196.016L198.572 45V45.1367C198.568 45.2962 198.463 45.4284 198.258 45.5332C198.057 45.6426 197.77 45.6973 197.396 45.6973C197.296 45.6973 197.196 45.6973 197.096 45.6973C197 45.6973 196.918 45.6973 196.85 45.6973V47.7207C197.005 47.7207 197.157 47.7207 197.308 47.7207C197.458 47.7207 197.611 47.7207 197.766 47.7207ZM209.25 45H216.168V42.7031H212.148V35.1357H209.25V45ZM219.791 45.1094C220.115 45.1094 220.415 45.0684 220.693 44.9863C220.976 44.8997 221.22 44.7812 221.425 44.6309C221.63 44.4759 221.78 44.2982 221.876 44.0977H222.013V45H224.761V39.7705C224.761 39.21 224.626 38.7337 224.357 38.3418C224.089 37.9453 223.697 37.6445 223.182 37.4395C222.671 37.2298 222.049 37.125 221.315 37.125C220.582 37.125 219.944 37.2275 219.401 37.4326C218.864 37.6331 218.442 37.9157 218.137 38.2803C217.831 38.6449 217.658 39.0755 217.617 39.5723L217.61 39.6611H220.112L220.126 39.627C220.19 39.4674 220.306 39.3444 220.475 39.2578C220.643 39.1712 220.867 39.1279 221.145 39.1279C221.413 39.1279 221.625 39.1849 221.78 39.2988C221.935 39.4128 222.013 39.57 222.013 39.7705V42.2725C222.013 42.4502 221.963 42.612 221.862 42.7578C221.762 42.8991 221.625 43.013 221.452 43.0996C221.284 43.1816 221.094 43.2227 220.885 43.2227C220.62 43.2227 220.409 43.1634 220.249 43.0449C220.094 42.9219 220.017 42.7624 220.017 42.5664V42.5527C220.017 42.3659 220.099 42.2155 220.263 42.1016C220.427 41.9831 220.655 41.9147 220.946 41.8965L223.387 41.7393V40.2559L220.495 40.4268C219.479 40.486 218.7 40.7161 218.157 41.1172C217.615 41.5182 217.344 42.0674 217.344 42.7646V42.7783C217.344 43.2432 217.444 43.651 217.645 44.002C217.85 44.3529 218.137 44.6263 218.506 44.8223C218.875 45.0137 219.303 45.1094 219.791 45.1094ZM231.72 45.1094C232.353 45.1094 232.893 44.9544 233.34 44.6445C233.791 44.3346 234.137 43.8857 234.379 43.2979C234.62 42.71 234.741 41.999 234.741 41.165V41.1514C234.741 40.3083 234.623 39.5928 234.386 39.0049C234.153 38.417 233.812 37.9704 233.36 37.665C232.914 37.3597 232.367 37.207 231.72 37.207C231.196 37.207 230.74 37.3255 230.353 37.5625C229.97 37.7995 229.689 38.1322 229.512 38.5605H229.375V34.4863H226.572V45H229.375V43.8447H229.512C229.676 44.2458 229.947 44.5579 230.325 44.7812C230.703 45 231.168 45.1094 231.72 45.1094ZM230.633 42.8535C230.378 42.8535 230.154 42.7874 229.963 42.6553C229.771 42.5231 229.623 42.3317 229.519 42.0811C229.414 41.8258 229.361 41.5228 229.361 41.1719V41.1582C229.361 40.8027 229.414 40.4997 229.519 40.249C229.628 39.9938 229.778 39.8001 229.97 39.668C230.161 39.5312 230.382 39.4629 230.633 39.4629C230.888 39.4629 231.109 39.5312 231.296 39.668C231.487 39.8047 231.635 40.0007 231.74 40.2559C231.845 40.5065 231.897 40.805 231.897 41.1514V41.165C231.897 41.516 231.845 41.819 231.74 42.0742C231.635 42.3249 231.487 42.5186 231.296 42.6553C231.109 42.7874 230.888 42.8535 230.633 42.8535Z" fill="url(#paint1_linear_102_158)"/>
<rect width="60" height="60" rx="30" transform="matrix(-1 0 0 1 60 0)" fill="url(#paint2_linear_102_158)"/>
<path d="M19.7886 36.8789C18.8477 37.1305 17.6766 38.035 17.0622 38.5516L17.015 38.5912L16.9559 38.5739C16.7911 38.526 16.6346 38.4881 16.4771 38.4585L16.3739 38.439L16.384 38.3343C16.6657 35.4108 17.4086 33.0026 18.4759 31.5535L18.4904 31.5374C18.9457 31.1147 19.4602 30.7334 20.0194 30.404L20.1491 30.3276L20.1888 30.4728C20.4748 31.5162 21.4157 34.2523 23.9682 37.1175C27.1356 40.6726 31.6187 43.2021 37.293 44.6351L37.4434 44.6732L37.3635 44.8061C36.8646 45.6362 36.3473 46.2703 35.6861 46.8619L35.6401 46.9031L35.5804 46.8875C34.5301 46.6139 29.0506 45.0603 24.3155 41.3386L24.2574 41.2929L24.2748 41.2209C24.4406 40.5389 24.4301 39.9363 24.2435 39.4302C23.6634 37.8555 21.4206 36.6615 20.0601 36.8253L19.7886 36.8789Z" fill="white"/>
<path d="M29.9863 51.9972C28.5721 51.9972 27.5765 52.3904 26.5277 52.7733C25.2062 53.2557 23.6761 53.8077 21.1498 53.8077C19.059 53.7961 17.1073 53.2059 15.5368 52.0959C14.1425 51.1107 13.0369 49.7139 12.4385 48.1606C11.4393 45.5672 11.8938 42.9657 13.6436 41.3648C16.3875 38.9112 17.8998 39.497 20.182 42.4968C22.0954 45.0119 23.5942 46.8094 27.0015 47.2348C24.7009 46.1334 23.6759 45.5088 22.8107 44.2571L22.7615 44.186L22.8124 44.1163C23.1877 43.6016 23.7059 42.8037 24.0452 41.9241L24.1071 41.7636L24.238 41.8754C26.9405 44.1838 30.3777 46.1015 34.4538 47.5756L34.6823 47.6581L34.4794 47.7918C33.7549 48.269 32.9046 48.7222 31.8925 49.1694C36.2148 49.0863 37.9562 46.093 39.3834 43.5658L40.0269 42.6692C40.9364 41.257 42.2039 40.1682 43.5042 39.9558C44.5119 39.7911 45.4913 40.2185 46.3423 40.8995C48.0912 42.4998 48.5557 45.5797 47.5546 48.1782C46.9489 49.7505 45.8833 51.108 44.4732 52.1042C42.9072 53.2106 40.9763 53.8014 38.8885 53.8131C36.3627 53.8131 34.9338 53.2559 33.621 52.7733C32.5795 52.3904 31.7148 51.9972 30.3006 51.9972H29.9863Z" fill="white"/>
<path d="M20.5291 19.6701C21.2898 19.0425 21.4914 20.1312 21.5279 20.392C21.0698 17.2458 21.8552 14.1086 23.6735 11.9116C25.2572 9.99829 27.4401 8.98571 29.9868 8.98383C32.5331 8.98587 34.7162 9.99829 36.2997 11.9116C38.0937 14.0793 38.8805 17.1622 38.4612 20.2661C38.5236 19.8845 38.7428 19.0779 39.4441 19.67C40.342 20.4281 40.7513 21.3813 40.5851 22.3534C40.4381 23.2121 39.8503 23.9082 39.066 24.2324C38.2819 24.5566 38.234 23.7747 38.1773 23.456C38.0046 24.5762 37.4815 26.8451 35.9444 28.8687C34.4155 30.8814 32.3553 31.9466 29.9865 31.9488C27.618 31.9466 25.5578 30.8814 24.0288 28.8687C22.4917 26.8451 21.9686 24.5762 21.7959 23.456C21.7384 23.9142 21.6718 24.5341 20.9072 24.2324C20.1426 23.9307 19.5351 23.2121 19.3882 22.3534C19.2221 21.3815 19.6688 20.3799 20.5291 19.6701ZM32.5361 11.4936C32.4038 11.3343 32.2175 11.236 32.0113 11.217C31.805 11.1979 31.6038 11.2602 31.4447 11.3926C31.2853 11.5249 31.1871 11.7112 31.1681 11.9174C31.1287 12.3429 31.4428 12.7213 31.8685 12.7607C32.2949 12.8002 32.6724 12.4859 32.7116 12.0604C32.7308 11.8541 32.6684 11.6528 32.5361 11.4936ZM30.9285 14.5038C30.889 14.9295 31.2033 15.3077 31.6288 15.3472C32.0553 15.3863 32.4327 15.0723 32.4722 14.6468C32.5115 14.2213 32.1973 13.8429 31.7718 13.8035C31.7476 13.8013 31.7236 13.8002 31.6999 13.8002C31.3043 13.8002 30.9657 14.1025 30.9285 14.5038ZM32.055 23.6983C32.4728 23.9774 33.0421 24.131 33.6581 24.131C34.7654 24.131 35.8856 23.6133 36.0149 22.6205C34.4437 23.2173 32.8815 23.2181 31.3656 22.623C31.4191 23.062 31.6546 23.431 32.055 23.6983ZM31.3815 18.0172C31.5877 18.0362 31.7889 17.974 31.9481 17.8417C32.1075 17.7094 32.2057 17.523 32.2247 17.3169C32.2439 17.1107 32.1815 16.9094 32.0492 16.7502C31.9169 16.5909 31.7305 16.4927 31.5243 16.4737C31.5 16.4715 31.4756 16.4702 31.4516 16.4702C31.2713 16.4702 31.0982 16.5324 30.9577 16.6492C30.7984 16.7815 30.7002 16.9679 30.6811 17.174C30.6419 17.5996 30.956 17.9778 31.3815 18.0172ZM28.5279 11.3924C28.3874 11.2758 28.2144 11.2136 28.0342 11.2136C28.01 11.2136 27.9856 11.2147 27.9613 11.217C27.7551 11.236 27.5686 11.3344 27.4365 11.4936C27.3043 11.6528 27.2419 11.8541 27.2609 12.0602C27.3004 12.4857 27.6796 12.8002 28.1041 12.7606C28.3103 12.7416 28.4968 12.6432 28.629 12.484C28.7613 12.3247 28.8235 12.1235 28.8045 11.9174C28.7855 11.7111 28.6873 11.5247 28.5279 11.3924ZM29.0443 14.5038C29.0048 14.0783 28.6261 13.7633 28.2009 13.8035C27.7754 13.8429 27.4611 14.2211 27.5006 14.6468C27.5197 14.853 27.618 15.0393 27.7773 15.1717C27.9365 15.304 28.1381 15.366 28.3439 15.3472C28.7693 15.3077 29.0836 14.9294 29.0443 14.5038ZM29.2914 17.1739C29.2723 16.9677 29.1741 16.7814 29.0149 16.649C28.8744 16.5324 28.7012 16.4701 28.521 16.4701C28.4968 16.4701 28.4725 16.4712 28.4483 16.4735C28.2421 16.4925 28.0556 16.5909 27.9234 16.7501C27.7911 16.9094 27.7287 17.1105 27.7479 17.3167C27.7873 17.7422 28.1668 18.0562 28.5912 18.0171C28.7974 17.998 28.9839 17.8997 29.1161 17.7405C29.2481 17.5813 29.3105 17.38 29.2914 17.1739ZM26.3461 24.1474C26.9569 24.1474 27.5188 23.9924 27.9283 23.7112C28.3244 23.439 28.5568 23.06 28.6082 22.6065C27.0919 23.2019 25.5295 23.2013 23.9576 22.6042C24.0863 23.6183 25.2227 24.1474 26.3461 24.1474Z" fill="white"/>
<path d="M22.6227 29.3533L22.6977 29.3374L22.7412 29.4004C24.6636 32.1833 27.0445 33.5383 30.0195 33.543C32.9317 33.5383 35.3695 32.1445 37.2652 29.4004L37.3087 29.3374L37.3837 29.3533C37.7636 29.4337 39.7478 29.9169 41.4932 31.5375L41.5075 31.5535C42.571 32.9974 43.3121 35.4055 43.5944 38.3344L43.6045 38.439L43.5013 38.4585C43.341 38.4888 43.1791 38.5276 43.0199 38.574L42.9609 38.5913L42.9137 38.5517C42.3436 38.0723 40.9101 36.9443 39.9126 36.8248C39.5843 36.7853 39.1826 36.8287 38.7509 36.9501L38.6442 36.9802L38.6101 36.8746C38.5084 36.5594 38.2086 35.7938 37.4718 34.8661C37.7221 35.7936 37.7309 36.8394 37.7195 37.3043L37.7179 37.3705L37.6601 37.4024C36.7171 37.922 36.0138 38.661 35.7306 39.4297C35.3885 40.3583 35.7473 41.4801 36.1973 42.528C26.4174 39.621 22.8935 34.5868 21.2424 29.7749C21.8901 29.4755 22.4389 29.3922 22.6227 29.3533Z" fill="white"/>
<path d="M39.6331 37.8676C40.4343 37.8983 41.1779 38.5031 41.6608 39.0051L41.7615 39.1098L41.6366 39.1838C40.8009 39.6794 40.0193 40.3857 39.4923 41.1217C38.9395 41.8937 38.5431 42.6219 38.2148 43.2438L38.1336 43.3978L38.0237 43.2629C36.6501 41.5741 36.6744 40.4827 36.8111 39.9823C37.1293 38.8183 38.6541 37.8299 39.6331 37.8676Z" fill="white"/>
<path d="M18.3126 39.0051C18.7953 38.5031 19.5391 37.8983 20.3401 37.8676C21.3211 37.8304 22.8441 38.8183 23.1623 39.9822C23.4027 40.8613 23.059 41.8548 22.112 43.0191L22.0144 43.139L21.9275 43.0111C21.6762 42.6418 21.4396 42.3489 21.189 42.0388C20.9668 41.7638 20.7372 41.4795 20.4809 41.1217C19.9539 40.3857 19.1723 39.6794 18.3367 39.1838L18.2117 39.1098L18.3126 39.0051Z" fill="white"/>
<path d="M22.0668 19.9481C22.0668 19.9481 21.4813 19.9286 21.4276 20.062C21.3739 20.1953 21.2658 20.4607 21.2658 20.4607L21.7433 20.8092L22.0668 19.9481Z" fill="url(#paint3_linear_102_158)"/>
<path d="M37.9185 19.9481C37.9185 19.9481 38.504 19.9286 38.5578 20.062C38.6115 20.1953 38.7195 20.4607 38.7195 20.4607L38.2421 20.8092L37.9185 19.9481Z" fill="url(#paint4_linear_102_158)"/>
<path d="M28.9131 20.7472C29.2794 20.2014 29.6415 19.9243 29.9878 19.9243C30.3352 19.9243 30.6973 20.2003 31.0636 20.7461L31.2725 20.6055C30.8558 19.9862 30.4234 19.6724 29.9878 19.6724C29.5523 19.6724 29.1199 19.9873 28.7043 20.6065L28.9131 20.7472Z" fill="url(#paint5_radial_102_158)"/>
<path d="M22.9612 19.2117L27.66 19.0175H32.2978L36.9619 19.2033C36.1422 18.8895 34.8681 18.7184 33.784 18.7142C33.7546 18.7142 33.7262 18.7142 33.6979 18.7142L26.2305 18.7184C26.2106 18.7184 26.1906 18.7184 26.1717 18.7184C25.0792 18.7205 23.7883 18.8948 22.9612 19.2117Z" fill="url(#paint6_linear_102_158)"/>
<path d="M32.6789 24.6409C34.6331 26.1868 37.109 26.3401 38.1134 24.0962C39.1178 21.8523 38.4985 20.3053 37.5697 19.5318C36.6409 18.7583 33.252 18.4896 32.1153 18.9157C29.331 19.9621 30.7247 23.0949 32.6789 24.6409Z" fill="url(#paint7_linear_102_158)"/>
<path d="M27.2508 24.644C25.2987 26.1921 22.8229 26.3484 21.8154 24.1056C20.8089 21.8628 21.426 20.3147 22.3538 19.5412C23.2815 18.7667 26.6705 18.4938 27.8071 18.9188C30.5946 19.9621 29.204 23.0959 27.2508 24.644Z" fill="url(#paint8_linear_102_158)"/>
<path d="M21.5979 15.7813C22.0422 12.6016 22.7951 9.46484 23.8441 6.42893C24.1654 5.49926 24.6086 4.47907 25.5277 4.12107C27.0267 3.5368 28.4803 4.90639 30 4.73913C31.5203 4.90697 32.9734 3.5368 34.4724 4.12107C35.3915 4.47907 35.8346 5.49926 36.1559 6.42893C37.2049 9.46427 37.9579 12.6016 38.4022 15.7813C38.4114 15.8488 38.4206 15.9199 38.3982 15.9846C38.3683 16.0711 38.2884 16.1301 38.2125 16.1811C36.0663 17.6292 33.3274 17.8445 30.7358 17.7895C30.4915 17.7844 30.2455 17.7764 29.9995 17.7643C29.7535 17.7769 29.5074 17.7844 29.2632 17.7895C26.672 17.8451 23.9326 17.6292 21.7864 16.1811C21.71 16.1295 21.6306 16.0711 21.6007 15.9846C21.5795 15.9193 21.5881 15.8488 21.5979 15.7813Z" fill="url(#paint9_linear_102_158)"/>
<path d="M30.2914 4.75117C31.5277 4.79642 32.7221 3.90685 33.936 3.97902C32.9543 4.96884 31.5467 5.18651 30.2914 4.75117Z" fill="#282828"/>
<path d="M34.0338 14.4592C35.4914 14.3292 36.7255 13.9792 37.9681 13.3886C38.1354 14.2507 38.2808 15.1168 38.4027 15.9863C38.4119 16.0539 38.4211 16.1249 38.3987 16.1891C38.3688 16.2756 38.2889 16.3346 38.213 16.3856C36.0668 17.8336 33.3279 18.049 30.7363 17.994C30.492 17.9889 30.246 17.9808 30 17.9688C29.754 17.9814 29.508 17.9889 29.2637 17.994C26.6726 18.0496 23.9332 17.8336 21.7869 16.3856C21.7105 16.334 21.6312 16.2756 21.6013 16.1891C21.5789 16.1244 21.5881 16.0539 21.5973 15.9863C21.7105 15.1764 21.8438 14.3687 21.9967 13.565C24.7557 14.4036 27.7394 14.5067 30.6477 14.544C31.7772 14.5583 32.9084 14.5594 34.0338 14.4592Z" fill="url(#paint10_linear_102_158)"/>
<path d="M17.9659 15.4456C18.132 14.8934 18.7958 14.5698 19.4195 14.5578C20.0431 14.5457 20.6633 14.7279 21.2145 14.9954C25.4771 17.0661 32.4273 17.0661 38.785 14.9954C39.3736 14.8041 39.9564 14.5457 40.5806 14.5578C41.2043 14.5698 41.8681 14.8934 42.0342 15.4456C42.2429 16.1387 41.6181 16.8015 40.9824 17.2208C39.0764 18.4787 36.6888 18.9289 34.3649 19.2336C33.1188 19.3969 31.8658 19.5275 30.6076 19.5647C30.4053 19.5704 30.2029 19.5739 30.0006 19.575C29.7983 19.5739 29.596 19.5704 29.3931 19.5647C28.1349 19.5281 26.8819 19.3969 25.6357 19.2336C23.3119 18.9289 20.9242 18.4787 19.0183 17.2208C18.382 16.8015 17.7572 16.1387 17.9659 15.4456Z" fill="url(#paint11_linear_102_158)"/>
<path opacity="0.09" d="M34.4085 5.13665C34.6028 5.29189 34.7212 5.52044 34.8287 5.74441C35.3897 6.91811 35.7949 8.1657 36.03 9.44422C36.061 9.61205 36.0777 9.81311 35.9495 9.92538C35.8621 10.0021 35.7305 10.0096 35.6184 9.97808C35.2828 9.88299 35.1115 9.51525 35.0241 9.17843C34.858 8.54089 34.8356 7.86955 34.6327 7.24289C34.4298 6.61623 33.9803 6.0039 33.3319 5.87845C33.1871 5.85038 33.0244 5.84122 32.9233 5.7341C32.3801 5.15899 34.0188 4.82504 34.4085 5.13665Z" fill="white"/>
<path opacity="0.09" d="M29.0102 5.2707C29.116 5.3509 29.1918 5.4815 29.1729 5.6121C29.1528 5.749 29.032 5.8544 28.8999 5.89622C28.7677 5.93803 28.6245 5.92658 28.4872 5.90882C27.9819 5.84237 27.4928 5.68657 27.0071 5.53191C26.2611 5.29419 27.114 4.83995 27.5296 4.89322C27.9434 4.94649 28.6803 5.02096 29.0102 5.2707Z" fill="white"/>
<path d="M18.3606 14.9633C18.6526 14.709 19.0802 14.5658 19.4912 14.5578C20.1148 14.5457 20.735 14.7279 21.2863 14.9954C25.5488 17.0661 32.4991 17.0661 38.8567 14.9954C39.4447 14.8041 40.0281 14.5457 40.6518 14.5578C40.9995 14.5646 41.3593 14.6677 41.6387 14.8539C41.6243 15.055 41.5571 15.2526 41.4249 15.429C41.1076 15.8535 40.5845 16.0643 40.0845 16.2418C34.1654 18.3412 27.6088 18.5176 21.5277 16.9447C20.8707 16.7745 20.2114 16.5821 19.6234 16.2441C19.0963 15.9405 18.6256 15.5069 18.3606 14.9633Z" fill="#2B2B2B"/>
<defs>
<linearGradient id="paint0_linear_102_158" x1="65.0482" y1="3.34356" x2="104.258" y2="71.2593" gradientUnits="userSpaceOnUse">
<stop offset="0.0202" stop-color="#45108A"/>
<stop offset="0.2929" stop-color="#3D065F"/>
<stop offset="1" stop-color="#10054D"/>
</linearGradient>
<linearGradient id="paint1_linear_102_158" x1="138.251" y1="33.0193" x2="186.628" y2="92.9077" gradientUnits="userSpaceOnUse">
<stop stop-color="#1504B2"/>
<stop offset="0.489583" stop-color="#CC00B6"/>
<stop offset="1" stop-color="#A01FD1"/>
</linearGradient>
<linearGradient id="paint2_linear_102_158" x1="-1.61009" y1="4.84874" x2="69.1813" y2="37.1758" gradientUnits="userSpaceOnUse">
<stop offset="0.0202" stop-color="#45108A"/>
<stop offset="0.2929" stop-color="#3D065F"/>
<stop offset="1" stop-color="#10054D"/>
</linearGradient>
<linearGradient id="paint3_linear_102_158" x1="21.3842" y1="20.168" x2="21.916" y2="20.3833" gradientUnits="userSpaceOnUse">
<stop stop-color="#3D3D3D"/>
<stop offset="0.0563" stop-color="#585858"/>
<stop offset="0.1775" stop-color="#9D9D9D"/>
<stop offset="0.3359" stop-color="white"/>
<stop offset="0.3434" stop-color="#EFEFEF"/>
<stop offset="0.3639" stop-color="#C8C8C8"/>
<stop offset="0.3859" stop-color="#A6A6A6"/>
<stop offset="0.4092" stop-color="#8B8B8B"/>
<stop offset="0.4345" stop-color="#767676"/>
<stop offset="0.4627" stop-color="#676767"/>
<stop offset="0.4961" stop-color="#5F5F5F"/>
<stop offset="0.5477" stop-color="#5C5C5C"/>
<stop offset="0.6927" stop-color="#919191"/>
<stop offset="0.9943" stop-color="#262626"/>
</linearGradient>
<linearGradient id="paint4_linear_102_158" x1="38.6012" y1="20.168" x2="38.0694" y2="20.3833" gradientUnits="userSpaceOnUse">
<stop stop-color="#3D3D3D"/>
<stop offset="0.0563" stop-color="#585858"/>
<stop offset="0.1775" stop-color="#9D9D9D"/>
<stop offset="0.3359" stop-color="white"/>
<stop offset="0.3434" stop-color="#EFEFEF"/>
<stop offset="0.3639" stop-color="#C8C8C8"/>
<stop offset="0.3859" stop-color="#A6A6A6"/>
<stop offset="0.4092" stop-color="#8B8B8B"/>
<stop offset="0.4345" stop-color="#767676"/>
<stop offset="0.4627" stop-color="#676767"/>
<stop offset="0.4961" stop-color="#5F5F5F"/>
<stop offset="0.5477" stop-color="#5C5C5C"/>
<stop offset="0.6927" stop-color="#919191"/>
<stop offset="0.9943" stop-color="#262626"/>
</linearGradient>
<radialGradient id="paint5_radial_102_158" cx="0" cy="0" r="1" gradientUnits="userSpaceOnUse" gradientTransform="translate(29.9703 22.0458) rotate(179.673) scale(2.15249 3.31439)">
<stop stop-color="#3D3D3D"/>
<stop offset="0.0563" stop-color="#585858"/>
<stop offset="0.1775" stop-color="#9D9D9D"/>
<stop offset="0.3359" stop-color="white"/>
<stop offset="0.3434" stop-color="#EFEFEF"/>
<stop offset="0.3639" stop-color="#C8C8C8"/>
<stop offset="0.3859" stop-color="#A6A6A6"/>
<stop offset="0.4092" stop-color="#8B8B8B"/>
<stop offset="0.4345" stop-color="#767676"/>
<stop offset="0.4627" stop-color="#676767"/>
<stop offset="0.4961" stop-color="#5F5F5F"/>
<stop offset="0.5477" stop-color="#5C5C5C"/>
<stop offset="0.5836" stop-color="#5F5F5F"/>
<stop offset="0.6146" stop-color="#6A6A6A"/>
<stop offset="0.6437" stop-color="#7C7C7C"/>
<stop offset="0.6715" stop-color="#949494"/>
<stop offset="0.6927" stop-color="#ADADAD"/>
<stop offset="0.7137" stop-color="#959595"/>
<stop offset="0.7484" stop-color="#737373"/>
<stop offset="0.7855" stop-color="#575757"/>
<stop offset="0.8254" stop-color="#414141"/>
<stop offset="0.8692" stop-color="#323232"/>
<stop offset="0.9201" stop-color="#292929"/>
<stop offset="0.9943" stop-color="#262626"/>
</radialGradient>
<linearGradient id="paint6_linear_102_158" x1="29.9589" y1="18.7155" x2="29.9616" y2="19.1941" gradientUnits="userSpaceOnUse">
<stop stop-color="#3D3D3D"/>
<stop offset="0.0563" stop-color="#585858"/>
<stop offset="0.1775" stop-color="#9D9D9D"/>
<stop offset="0.3359" stop-color="white"/>
<stop offset="0.3434" stop-color="#EFEFEF"/>
<stop offset="0.3639" stop-color="#C8C8C8"/>
<stop offset="0.3859" stop-color="#A6A6A6"/>
<stop offset="0.4092" stop-color="#8B8B8B"/>
<stop offset="0.4345" stop-color="#767676"/>
<stop offset="0.4627" stop-color="#676767"/>
<stop offset="0.4961" stop-color="#5F5F5F"/>
<stop offset="0.5477" stop-color="#5C5C5C"/>
<stop offset="0.6927" stop-color="#919191"/>
<stop offset="0.9943" stop-color="#262626"/>
</linearGradient>
<linearGradient id="paint7_linear_102_158" x1="38.845" y1="19.286" x2="29.7846" y2="24.0082" gradientUnits="userSpaceOnUse">
<stop offset="0.0202" stop-color="#45108A"/>
<stop offset="0.2929" stop-color="#3D065F"/>
<stop offset="1" stop-color="#10054D"/>
</linearGradient>
<linearGradient id="paint8_linear_102_158" x1="29.595" y1="19.291" x2="20.534" y2="24.0123" gradientUnits="userSpaceOnUse">
<stop offset="0.0202" stop-color="#45108A"/>
<stop offset="0.2929" stop-color="#3D065F"/>
<stop offset="1" stop-color="#10054D"/>
</linearGradient>
<linearGradient id="paint9_linear_102_158" x1="38.8989" y1="4.80383" x2="18.672" y2="10.258" gradientUnits="userSpaceOnUse">
<stop stop-color="#1504B2"/>
<stop offset="0.489583" stop-color="#CC00B6"/>
<stop offset="1" stop-color="#A01FD1"/>
</linearGradient>
<linearGradient id="paint10_linear_102_158" x1="38.8641" y1="13.7614" x2="32.5072" y2="24.3491" gradientUnits="userSpaceOnUse">
<stop offset="0.0202" stop-color="#45108A"/>
<stop offset="0.2929" stop-color="#3D065F"/>
<stop offset="1" stop-color="#10054D"/>
</linearGradient>
<linearGradient id="paint11_linear_102_158" x1="42.774" y1="14.858" x2="28.1982" y2="30.3988" gradientUnits="userSpaceOnUse">
<stop stop-color="#1504B2"/>
<stop offset="0.489583" stop-color="#CC00B6"/>
<stop offset="1" stop-color="#A01FD1"/>
</linearGradient>
</defs>
</svg>
