<svg width="800" height="800" viewBox="0 0 800 800" fill="none" xmlns="http://www.w3.org/2000/svg">
<rect width="800" height="800" rx="400" fill="url(#paint0_linear_54_1294)"/>
<path d="M536.152 491.719C548.698 495.073 564.313 507.132 572.505 514.021L573.133 514.549L573.921 514.319C576.119 513.68 578.206 513.175 580.305 512.779L581.681 512.519L581.547 511.124C577.791 472.144 567.885 440.034 553.655 420.712L553.462 420.499C547.39 414.863 540.531 409.778 533.074 405.386L531.346 404.368L530.816 406.304C527.003 420.216 514.457 456.696 480.424 494.899C438.192 542.301 378.418 576.027 302.76 595.134L300.755 595.641L301.82 597.414C308.472 608.482 315.369 616.936 324.185 624.825L324.799 625.373L325.595 625.166C339.599 621.518 412.659 600.804 475.793 551.181L476.569 550.571L476.336 549.611C474.126 540.518 474.266 532.484 476.753 525.735C484.488 504.74 514.392 488.819 532.532 491.004L536.152 491.719Z" fill="white"/>
<path d="M400.182 693.296C419.038 693.296 432.313 698.538 446.296 703.643C463.916 710.075 484.319 717.436 518.002 717.436C545.88 717.281 571.901 709.411 592.842 694.611C611.432 681.475 626.174 662.851 634.152 642.141C647.475 607.563 641.416 572.876 618.084 551.53C581.499 518.815 561.336 526.625 530.906 566.624C505.394 600.158 485.41 624.125 439.979 629.796C470.654 615.111 484.321 606.783 495.856 590.093L496.512 589.146L495.833 588.216C490.83 581.355 483.92 570.715 479.397 558.987L478.572 556.848L476.826 558.337C440.792 589.117 394.963 614.686 340.615 634.341L337.569 635.44L340.274 637.223C349.935 643.586 361.271 649.629 374.766 655.591C317.135 654.483 293.917 614.573 274.887 580.877L266.307 568.922C254.181 550.093 237.281 535.576 219.944 532.743C206.508 530.548 193.449 536.246 182.102 545.327C158.783 566.663 152.59 607.728 165.938 642.375C174.014 663.339 188.222 681.439 207.023 694.722C227.903 709.474 253.648 717.352 281.486 717.507C315.164 717.507 334.215 710.078 351.72 703.643C365.606 698.538 377.136 693.296 395.992 693.296H400.182Z" fill="white"/>
<path d="M526.278 262.268C516.135 253.9 513.447 268.415 512.961 271.893C519.068 229.944 508.597 188.115 484.352 158.82C463.237 133.31 434.132 119.809 400.176 119.784C366.224 119.811 337.116 133.31 316.004 158.82C292.083 187.723 281.593 228.829 287.183 270.215C286.351 265.126 283.428 254.371 274.078 262.266C262.106 272.375 256.648 285.084 258.865 298.044C260.824 309.494 268.662 318.776 279.119 323.098C289.574 327.42 290.212 316.995 290.969 312.746C293.271 327.682 300.246 357.934 320.741 384.915C341.126 411.751 368.596 425.954 400.18 425.984C431.76 425.954 459.229 411.751 479.615 384.915C500.109 357.934 507.084 327.682 509.387 312.746C510.153 318.855 511.042 327.121 521.237 323.098C531.432 319.075 539.531 309.494 541.49 298.044C543.705 285.086 537.748 271.731 526.278 262.268ZM366.184 153.247C367.948 151.123 370.433 149.813 373.182 149.56C375.933 149.304 378.615 150.136 380.737 151.9C382.861 153.664 384.171 156.149 384.424 158.898C384.95 164.572 380.762 169.617 375.086 170.143C369.4 170.668 364.368 166.478 363.844 160.805C363.588 158.054 364.42 155.37 366.184 153.247ZM387.619 193.384C388.145 199.06 383.955 204.103 378.281 204.629C372.595 205.15 367.563 200.964 367.037 195.29C366.513 189.617 370.701 184.572 376.375 184.046C376.698 184.017 377.018 184.002 377.334 184.002C382.608 184.002 387.123 188.033 387.619 193.384ZM372.599 315.977C367.029 319.697 359.438 321.747 351.225 321.747C336.461 321.747 321.524 314.843 319.8 301.606C340.749 309.563 361.579 309.574 381.791 301.64C381.078 307.493 377.938 312.413 372.599 315.977ZM381.579 240.229C378.83 240.483 376.147 239.653 374.024 237.889C371.9 236.125 370.59 233.64 370.337 230.891C370.081 228.142 370.913 225.458 372.677 223.336C374.441 221.211 376.926 219.902 379.675 219.649C380 219.619 380.324 219.602 380.645 219.602C383.048 219.602 385.357 220.432 387.23 221.989C389.354 223.753 390.664 226.238 390.917 228.987C391.441 234.66 387.253 239.703 381.579 240.229ZM419.627 151.898C421.5 150.344 423.807 149.514 426.21 149.514C426.532 149.514 426.857 149.529 427.182 149.56C429.931 149.813 432.418 151.125 434.18 153.247C435.942 155.37 436.773 158.054 436.52 160.802C435.994 166.476 430.939 170.668 425.277 170.14C422.529 169.887 420.042 168.575 418.28 166.453C416.516 164.329 415.686 161.647 415.939 158.898C416.193 156.147 417.502 153.662 419.627 151.898ZM412.742 193.384C413.268 187.71 418.317 183.51 423.987 184.046C429.66 184.572 433.851 189.615 433.325 195.29C433.069 198.039 431.76 200.524 429.635 202.288C427.513 204.052 424.825 204.88 422.08 204.629C416.409 204.103 412.218 199.058 412.742 193.384ZM409.447 228.984C409.702 226.236 411.012 223.751 413.134 221.987C415.007 220.432 417.316 219.6 419.719 219.6C420.042 219.6 420.366 219.615 420.689 219.646C423.438 219.9 425.925 221.212 427.687 223.334C429.451 225.458 430.283 228.14 430.027 230.889C429.501 236.563 424.441 240.749 418.783 240.227C416.034 239.973 413.547 238.662 411.785 236.539C410.025 234.417 409.193 231.733 409.447 228.984ZM448.718 321.964C440.574 321.964 433.082 319.899 427.622 316.148C422.34 312.52 419.241 307.466 418.556 301.42C438.774 309.358 459.606 309.35 480.564 301.388C478.848 314.91 463.696 321.964 448.718 321.964Z" fill="white"/>
<path d="M498.364 391.376L497.365 391.165L496.784 392.005C471.153 429.11 439.407 447.176 399.74 447.239C360.911 447.176 328.407 428.592 303.131 392.005L302.551 391.165L301.551 391.376C296.485 392.449 270.03 398.891 246.757 420.499L246.567 420.712C232.387 439.964 222.506 472.072 218.741 511.124L218.607 512.519L219.984 512.779C222.121 513.183 224.279 513.701 226.401 514.319L227.189 514.549L227.817 514.021C235.419 507.629 254.532 492.59 267.832 490.996C272.209 490.47 277.566 491.048 283.322 492.668L284.744 493.068L285.199 491.66C286.554 487.457 290.552 477.249 300.376 464.88C297.039 477.247 296.921 491.19 297.074 497.39L297.095 498.272L297.866 498.697C310.439 505.626 319.817 515.479 323.592 525.729C328.153 538.109 323.37 553.066 317.37 567.039C447.769 528.279 494.754 461.157 516.768 396.997C508.132 393.006 500.816 391.896 498.364 391.376Z" fill="white"/>
<path d="M271.56 504.901C260.877 505.31 250.962 513.374 244.524 520.068L243.181 521.463L244.847 522.45C255.989 529.058 266.41 538.476 273.437 548.289C280.808 558.583 286.094 568.291 290.47 576.584L291.554 578.637L293.018 576.838C311.334 554.321 311.009 539.768 309.186 533.097C304.944 517.577 284.612 504.398 271.56 504.901Z" fill="white"/>
<path d="M555.83 520.068C549.393 513.374 539.477 505.31 528.796 504.901C515.716 504.405 495.41 517.577 491.168 533.095C487.962 544.818 492.544 558.063 505.171 573.588L506.472 575.187L507.631 573.481C510.981 568.558 514.136 564.652 517.478 560.517C520.441 556.85 523.502 553.06 526.919 548.289C533.946 538.476 544.367 529.058 555.509 522.45L557.175 521.463L555.83 520.068Z" fill="white"/>
<path d="M505.773 265.975C505.773 265.975 513.58 265.714 514.296 267.493C515.013 269.271 516.453 272.809 516.453 272.809L510.087 277.455L505.773 265.975Z" fill="url(#paint1_linear_54_1294)"/>
<path d="M294.419 265.975C294.419 265.975 286.612 265.714 285.896 267.493C285.18 269.271 283.739 272.809 283.739 272.809L290.105 277.455L294.419 265.975Z" fill="url(#paint2_linear_54_1294)"/>
<path d="M414.49 276.628C409.606 269.351 404.778 265.657 400.16 265.657C395.528 265.657 390.701 269.337 385.817 276.614L383.032 274.739C388.587 266.483 394.353 262.299 400.16 262.299C405.968 262.299 411.733 266.497 417.274 274.753L414.49 276.628Z" fill="url(#paint3_radial_54_1294)"/>
<path d="M493.848 256.155L431.198 253.567H369.36L307.172 256.043C318.101 251.859 335.09 249.578 349.545 249.522C349.937 249.522 350.315 249.522 350.693 249.522L450.258 249.578C450.524 249.578 450.789 249.578 451.041 249.578C465.609 249.606 482.821 251.929 493.848 256.155Z" fill="url(#paint4_linear_54_1294)"/>
<path d="M364.28 328.545C338.224 349.157 305.213 351.2 291.821 321.282C278.429 291.363 286.686 270.737 299.07 260.423C311.454 250.11 356.64 246.528 371.795 252.209C408.92 266.161 390.337 307.932 364.28 328.545Z" fill="url(#paint5_linear_54_1294)"/>
<path d="M436.656 328.587C462.684 349.227 495.695 351.312 509.129 321.408C522.549 291.503 514.321 270.863 501.95 260.549C489.58 250.222 444.394 246.584 429.239 252.251C392.072 266.161 410.614 307.946 436.656 328.587Z" fill="url(#paint6_linear_54_1294)"/>
<path d="M512.029 210.417C506.105 168.021 496.065 126.198 482.079 85.7191C477.795 73.3234 471.886 59.721 459.632 54.9476C439.645 47.1573 420.263 65.4186 400 63.1885C379.729 65.4263 360.355 47.1573 340.368 54.9476C328.114 59.721 322.205 73.3234 317.921 85.7191C303.935 126.19 293.895 168.021 287.971 210.417C287.849 211.318 287.726 212.265 288.025 213.128C288.424 214.281 289.489 215.068 290.5 215.748C319.117 235.055 355.635 237.927 390.19 237.194C393.448 237.125 396.728 237.018 400.008 236.858C403.288 237.026 406.568 237.125 409.825 237.194C444.373 237.935 480.899 235.055 509.515 215.748C510.534 215.06 511.592 214.281 511.99 213.128C512.274 212.257 512.159 211.318 512.029 210.417Z" fill="url(#paint7_linear_54_1294)"/>
<path d="M396.114 63.3487C379.63 63.9521 363.705 52.0911 347.519 53.0534C360.608 66.251 379.377 69.1533 396.114 63.3487Z" fill="#282828"/>
<path d="M346.216 192.789C326.78 191.056 310.326 186.389 293.757 178.515C291.527 190.009 289.588 201.557 287.964 213.151C287.841 214.052 287.718 214.999 288.017 215.855C288.416 217.008 289.481 217.794 290.493 218.474C319.109 237.782 355.627 240.654 390.183 239.92C393.44 239.852 396.72 239.745 400 239.584C403.28 239.752 406.56 239.852 409.817 239.92C444.365 240.661 480.891 237.782 509.507 218.474C510.526 217.787 511.584 217.008 511.983 215.855C512.281 214.992 512.159 214.052 512.036 213.151C510.526 202.351 508.748 191.583 506.71 180.867C469.924 192.048 430.141 193.423 391.363 193.92C376.304 194.111 361.221 194.126 346.216 192.789Z" fill="url(#paint8_linear_54_1294)"/>
<path d="M560.456 205.941C558.241 198.579 549.389 194.263 541.074 194.103C532.759 193.943 524.49 196.371 517.14 199.938C460.306 227.548 367.636 227.548 282.867 199.938C275.02 197.387 267.248 193.943 258.926 194.103C250.611 194.263 241.759 198.579 239.544 205.941C236.762 215.183 245.093 224.019 253.569 229.61C278.982 246.382 310.817 252.385 341.801 256.448C358.416 258.625 375.123 260.366 391.899 260.863C394.597 260.939 397.295 260.985 399.992 261C402.69 260.985 405.388 260.939 408.093 260.863C424.869 260.374 441.576 258.625 458.191 256.448C489.175 252.385 521.011 246.382 546.424 229.61C554.907 224.019 563.238 215.183 560.456 205.941Z" fill="url(#paint9_linear_54_1294)"/>
<path opacity="0.09" d="M341.219 68.4888C338.629 70.5586 337.05 73.6059 335.617 76.5922C328.137 92.2415 322.734 108.876 319.6 125.923C319.186 128.161 318.964 130.841 320.673 132.338C321.837 133.362 323.592 133.461 325.087 133.041C329.562 131.773 331.846 126.87 333.011 122.379C335.226 113.879 335.525 104.927 338.23 96.5719C340.935 88.2165 346.929 80.052 355.573 78.3794C357.505 78.0051 359.673 77.8829 361.022 76.4547C368.264 68.7867 346.415 64.334 341.219 68.4888Z" fill="white"/>
<path opacity="0.09" d="M413.197 70.2761C411.787 71.3453 410.775 73.0867 411.028 74.828C411.296 76.6534 412.906 78.0587 414.668 78.6162C416.431 79.1738 418.339 79.021 420.171 78.7843C426.907 77.8983 433.429 75.8209 439.905 73.7588C449.853 70.5892 438.48 64.5327 432.939 65.2429C427.421 65.9532 417.596 66.9461 413.197 70.2761Z" fill="white"/>
<path d="M555.191 199.51C551.298 196.119 545.596 194.21 540.116 194.103C531.801 193.943 523.532 196.371 516.182 199.938C459.348 227.548 366.678 227.548 281.909 199.938C274.069 197.387 266.291 193.943 257.975 194.103C253.339 194.195 248.541 195.569 244.817 198.052C245.008 200.732 245.905 203.367 247.668 205.72C251.898 211.379 258.872 214.19 265.54 216.557C344.461 244.549 431.881 246.901 512.964 225.929C521.723 223.66 530.514 221.094 538.354 216.588C545.381 212.54 551.658 206.758 555.191 199.51Z" fill="#2B2B2B"/>
<defs>
<linearGradient id="paint0_linear_54_1294" x1="-21.4679" y1="64.6499" x2="922.417" y2="495.678" gradientUnits="userSpaceOnUse">
<stop offset="0.0202" stop-color="#45108A"/>
<stop offset="0.2929" stop-color="#3D065F"/>
<stop offset="1" stop-color="#10054D"/>
</linearGradient>
<linearGradient id="paint1_linear_54_1294" x1="514.875" y1="268.906" x2="507.784" y2="271.777" gradientUnits="userSpaceOnUse">
<stop stop-color="#3D3D3D"/>
<stop offset="0.0563" stop-color="#585858"/>
<stop offset="0.1775" stop-color="#9D9D9D"/>
<stop offset="0.3359" stop-color="white"/>
<stop offset="0.3434" stop-color="#EFEFEF"/>
<stop offset="0.3639" stop-color="#C8C8C8"/>
<stop offset="0.3859" stop-color="#A6A6A6"/>
<stop offset="0.4092" stop-color="#8B8B8B"/>
<stop offset="0.4345" stop-color="#767676"/>
<stop offset="0.4627" stop-color="#676767"/>
<stop offset="0.4961" stop-color="#5F5F5F"/>
<stop offset="0.5477" stop-color="#5C5C5C"/>
<stop offset="0.6927" stop-color="#919191"/>
<stop offset="0.9943" stop-color="#262626"/>
</linearGradient>
<linearGradient id="paint2_linear_54_1294" x1="285.317" y1="268.906" x2="292.408" y2="271.777" gradientUnits="userSpaceOnUse">
<stop stop-color="#3D3D3D"/>
<stop offset="0.0563" stop-color="#585858"/>
<stop offset="0.1775" stop-color="#9D9D9D"/>
<stop offset="0.3359" stop-color="white"/>
<stop offset="0.3434" stop-color="#EFEFEF"/>
<stop offset="0.3639" stop-color="#C8C8C8"/>
<stop offset="0.3859" stop-color="#A6A6A6"/>
<stop offset="0.4092" stop-color="#8B8B8B"/>
<stop offset="0.4345" stop-color="#767676"/>
<stop offset="0.4627" stop-color="#676767"/>
<stop offset="0.4961" stop-color="#5F5F5F"/>
<stop offset="0.5477" stop-color="#5C5C5C"/>
<stop offset="0.6927" stop-color="#919191"/>
<stop offset="0.9943" stop-color="#262626"/>
</linearGradient>
<radialGradient id="paint3_radial_54_1294" cx="0" cy="0" r="1" gradientUnits="userSpaceOnUse" gradientTransform="translate(400.395 293.943) rotate(0.326615) scale(28.7001 44.191)">
<stop stop-color="#3D3D3D"/>
<stop offset="0.0563" stop-color="#585858"/>
<stop offset="0.1775" stop-color="#9D9D9D"/>
<stop offset="0.3359" stop-color="white"/>
<stop offset="0.3434" stop-color="#EFEFEF"/>
<stop offset="0.3639" stop-color="#C8C8C8"/>
<stop offset="0.3859" stop-color="#A6A6A6"/>
<stop offset="0.4092" stop-color="#8B8B8B"/>
<stop offset="0.4345" stop-color="#767676"/>
<stop offset="0.4627" stop-color="#676767"/>
<stop offset="0.4961" stop-color="#5F5F5F"/>
<stop offset="0.5477" stop-color="#5C5C5C"/>
<stop offset="0.5836" stop-color="#5F5F5F"/>
<stop offset="0.6146" stop-color="#6A6A6A"/>
<stop offset="0.6437" stop-color="#7C7C7C"/>
<stop offset="0.6715" stop-color="#949494"/>
<stop offset="0.6927" stop-color="#ADADAD"/>
<stop offset="0.7137" stop-color="#959595"/>
<stop offset="0.7484" stop-color="#737373"/>
<stop offset="0.7855" stop-color="#575757"/>
<stop offset="0.8254" stop-color="#414141"/>
<stop offset="0.8692" stop-color="#323232"/>
<stop offset="0.9201" stop-color="#292929"/>
<stop offset="0.9943" stop-color="#262626"/>
</radialGradient>
<linearGradient id="paint4_linear_54_1294" x1="400.545" y1="249.539" x2="400.51" y2="255.921" gradientUnits="userSpaceOnUse">
<stop stop-color="#3D3D3D"/>
<stop offset="0.0563" stop-color="#585858"/>
<stop offset="0.1775" stop-color="#9D9D9D"/>
<stop offset="0.3359" stop-color="white"/>
<stop offset="0.3434" stop-color="#EFEFEF"/>
<stop offset="0.3639" stop-color="#C8C8C8"/>
<stop offset="0.3859" stop-color="#A6A6A6"/>
<stop offset="0.4092" stop-color="#8B8B8B"/>
<stop offset="0.4345" stop-color="#767676"/>
<stop offset="0.4627" stop-color="#676767"/>
<stop offset="0.4961" stop-color="#5F5F5F"/>
<stop offset="0.5477" stop-color="#5C5C5C"/>
<stop offset="0.6927" stop-color="#919191"/>
<stop offset="0.9943" stop-color="#262626"/>
</linearGradient>
<linearGradient id="paint5_linear_54_1294" x1="282.066" y1="257.146" x2="402.871" y2="320.109" gradientUnits="userSpaceOnUse">
<stop offset="0.0202" stop-color="#45108A"/>
<stop offset="0.2929" stop-color="#3D065F"/>
<stop offset="1" stop-color="#10054D"/>
</linearGradient>
<linearGradient id="paint6_linear_54_1294" x1="405.4" y1="257.213" x2="526.214" y2="320.164" gradientUnits="userSpaceOnUse">
<stop offset="0.0202" stop-color="#45108A"/>
<stop offset="0.2929" stop-color="#3D065F"/>
<stop offset="1" stop-color="#10054D"/>
</linearGradient>
<linearGradient id="paint7_linear_54_1294" x1="281.348" y1="64.0512" x2="551.041" y2="136.773" gradientUnits="userSpaceOnUse">
<stop stop-color="#1504B2"/>
<stop offset="0.489583" stop-color="#CC00B6"/>
<stop offset="1" stop-color="#A01FD1"/>
</linearGradient>
<linearGradient id="paint8_linear_54_1294" x1="281.811" y1="183.485" x2="366.57" y2="324.655" gradientUnits="userSpaceOnUse">
<stop offset="0.0202" stop-color="#45108A"/>
<stop offset="0.2929" stop-color="#3D065F"/>
<stop offset="1" stop-color="#10054D"/>
</linearGradient>
<linearGradient id="paint9_linear_54_1294" x1="229.681" y1="198.107" x2="424.025" y2="405.316" gradientUnits="userSpaceOnUse">
<stop stop-color="#1504B2"/>
<stop offset="0.489583" stop-color="#CC00B6"/>
<stop offset="1" stop-color="#A01FD1"/>
</linearGradient>
</defs>
</svg>
